<svg width="24" height="24" viewBox="0 0 24 24" fill="none" xmlns="http://www.w3.org/2000/svg">
<path d="M5.54425 15.585C5.54425 17.1682 6.83229 18.4562 8.41547 18.4562H15.5848C17.168 18.4562 18.456 17.1682 18.456 15.585L18.4562 8.41516C18.4562 6.83199 17.1681 5.54395 15.585 5.54395H8.41516C6.83199 5.54395 5.54395 6.83199 5.54395 8.41516L5.54425 15.585ZM6.63516 8.41516C6.63516 7.43352 7.43388 6.63485 8.41547 6.63485H15.5848C16.5664 6.63485 17.3651 7.43357 17.3651 8.41516V15.5845C17.3651 16.5661 16.5664 17.3648 15.5848 17.3648L8.41547 17.365C7.43383 17.365 6.63516 16.5663 6.63516 15.5847V8.41516Z" fill="black"/>
<path d="M10.734 4.40057C11.0351 4.40057 11.2794 4.15628 11.2794 3.85509V2.28962C11.2794 1.98845 11.0352 1.74414 10.734 1.74414C10.4328 1.74414 10.1885 1.98842 10.1885 2.28962V3.85509C10.1885 4.15645 10.4328 4.40057 10.734 4.40057Z" fill="black"/>
<path d="M12.7217 2.28962V3.85509C12.7217 4.15626 12.966 4.40057 13.2672 4.40057C13.5683 4.40057 13.8126 4.15628 13.8126 3.85509V2.28962C13.8126 1.98845 13.5684 1.74414 13.2672 1.74414C12.9658 1.74414 12.7217 1.98842 12.7217 2.28962Z" fill="black"/>
<path d="M7.65527 0.545478V3.8552C7.65527 4.15637 7.89956 4.40068 8.20075 4.40068C8.50192 4.40068 8.74623 4.1564 8.74623 3.8552V0.545478C8.74623 0.244308 8.50195 0 8.20075 0C7.89958 0 7.65527 0.244283 7.65527 0.545478Z" fill="black"/>
<path d="M15.2539 0.545478V3.8552C15.2539 4.15637 15.4982 4.40068 15.7994 4.40068C16.1006 4.40068 16.3449 4.1564 16.3449 3.8552V0.545478C16.3449 0.244308 16.1006 0 15.7994 0C15.498 0 15.2539 0.244283 15.2539 0.545478Z" fill="black"/>
<path d="M10.1885 20.1451V21.7106C10.1885 22.0117 10.4328 22.256 10.734 22.256C11.0351 22.256 11.2794 22.0118 11.2794 21.7106V20.1451C11.2794 19.8439 11.0351 19.5996 10.734 19.5996C10.4328 19.5996 10.1885 19.8437 10.1885 20.1451Z" fill="black"/>
<path d="M12.7217 20.1451V21.7106C12.7217 22.0117 12.966 22.256 13.2672 22.256C13.5683 22.256 13.8126 22.0118 13.8126 21.7106V20.1451C13.8126 19.8439 13.5684 19.5996 13.2672 19.5996C12.9658 19.5996 12.7217 19.8437 12.7217 20.1451Z" fill="black"/>
<path d="M7.65527 20.1451V23.4548C7.65527 23.756 7.89956 24.0003 8.20075 24.0003C8.50192 24.0003 8.74623 23.756 8.74623 23.4548V20.1451C8.74623 19.8439 8.50195 19.5996 8.20075 19.5996C7.89958 19.5996 7.65527 19.8437 7.65527 20.1451Z" fill="black"/>
<path d="M15.2539 20.1451V23.4548C15.2539 23.756 15.4982 24.0003 15.7994 24.0003C16.1006 24.0003 16.3449 23.756 16.3449 23.4548V20.1451C16.3449 19.8439 16.1006 19.5996 15.7994 19.5996C15.498 19.5996 15.2539 19.8437 15.2539 20.1451Z" fill="black"/>
<path d="M21.7106 10.1875H20.1451C19.8439 10.1875 19.5996 10.4318 19.5996 10.733C19.5996 11.0341 19.8439 11.2785 20.1451 11.2785H21.7106C22.0117 11.2785 22.256 11.0342 22.256 10.733C22.256 10.4318 22.0118 10.1875 21.7106 10.1875Z" fill="black"/>
<path d="M21.7106 12.7217H20.1451C19.8439 12.7217 19.5996 12.966 19.5996 13.2672C19.5996 13.5683 19.8439 13.8126 20.1451 13.8126H21.7106C22.0117 13.8126 22.256 13.5684 22.256 13.2672C22.256 12.9658 22.0118 12.7217 21.7106 12.7217Z" fill="black"/>
<path d="M23.4548 7.65527H20.1451C19.8439 7.65527 19.5996 7.89956 19.5996 8.20075C19.5996 8.50192 19.8439 8.74623 20.1451 8.74623H23.4548C23.756 8.74623 24.0003 8.50195 24.0003 8.20075C24.0003 7.89958 23.756 7.65527 23.4548 7.65527Z" fill="black"/>
<path d="M23.4548 15.2539H20.1451C19.8439 15.2539 19.5996 15.4982 19.5996 15.7994C19.5996 16.1006 19.8439 16.3449 20.1451 16.3449H23.4548C23.756 16.3449 24.0003 16.1006 24.0003 15.7994C24.0003 15.4982 23.756 15.2539 23.4548 15.2539Z" fill="black"/>
<path d="M2.28962 11.2794H3.85509C4.15626 11.2794 4.40057 11.0352 4.40057 10.734C4.40057 10.4328 4.15628 10.1885 3.85509 10.1885H2.28962C1.98845 10.1885 1.74414 10.4328 1.74414 10.734C1.74414 11.0353 1.98842 11.2794 2.28962 11.2794Z" fill="black"/>
<path d="M2.28962 13.8126H3.85509C4.15626 13.8126 4.40057 13.5684 4.40057 13.2672C4.40057 12.966 4.15628 12.7217 3.85509 12.7217H2.28962C1.98845 12.7217 1.74414 12.966 1.74414 13.2672C1.74414 13.5683 1.98842 13.8126 2.28962 13.8126Z" fill="black"/>
<path d="M0.000976562 8.20075C0.000976562 8.50192 0.24526 8.74623 0.546455 8.74623H3.85618C4.15735 8.74623 4.40166 8.50195 4.40166 8.20075C4.40166 7.89958 4.15737 7.65527 3.85618 7.65527H0.546455C0.245285 7.65527 0.000976562 7.89956 0.000976562 8.20075Z" fill="black"/>
<path d="M0.545478 16.3449H3.8552C4.15637 16.3449 4.40068 16.1006 4.40068 15.7994C4.40068 15.4982 4.1564 15.2539 3.8552 15.2539H0.545478C0.244308 15.2539 0 15.4982 0 15.7994C0 16.1006 0.244283 16.3449 0.545478 16.3449Z" fill="black"/>
<path d="M9.30817 15.2386H14.6931C14.9943 15.2386 15.2386 14.9943 15.2386 14.6931V9.30817C15.2386 9.007 14.9943 8.7627 14.6931 8.7627H9.30817C9.007 8.7627 8.7627 9.00698 8.7627 9.30817V14.6931C8.7627 14.9943 9.00698 15.2386 9.30817 15.2386ZM9.85365 9.85365H14.1476V14.1476H9.85365V9.85365Z" fill="black"/>
</svg>
