<svg width="18" height="24" viewBox="0 0 18 24" fill="none" xmlns="http://www.w3.org/2000/svg">
<mask id="path-1-outside-1_1189_28752" maskUnits="userSpaceOnUse" x="0" y="0" width="18" height="24" fill="black">
<rect fill="white" width="18" height="24"/>
<path d="M1.33593 17.5198C1.58624 17.7536 1.92127 17.8753 2.26331 17.8563C3.48415 17.8563 5.27433 16.7821 6.5131 15.9193C6.75254 16.3993 6.89143 16.9233 6.92116 17.4589C6.72345 17.4589 6.56313 17.6192 6.56313 17.8169V21.4296C6.57464 21.9026 6.77284 22.3518 7.11459 22.679C7.44161 23.0049 7.88451 23.1878 8.34631 23.1875H10.1795H10.1793C10.6488 23.1897 11.0993 23.0026 11.4289 22.6683C11.7589 22.3357 11.9452 21.8872 11.9481 21.4187V17.8169C11.9494 17.6349 11.8139 17.4808 11.6331 17.4589C11.6627 16.9225 11.8003 16.3977 12.0376 15.9158C13.28 16.7751 15.0487 17.8348 16.2625 17.8348C16.6045 17.8537 16.9395 17.7322 17.1898 17.4982C18.0456 16.6424 17.1898 14.5658 15.4999 12.1849V12.1851C16.0772 11.2579 16.4389 10.2129 16.5585 9.12726C16.6782 8.04166 16.5525 6.94291 16.1908 5.9123C17.1397 4.42295 18.0312 2.50744 17.1898 1.66619C16.5703 1.04665 15.3208 1.27587 13.4733 2.33926C12.2429 1.46782 10.7723 1 9.26441 1C7.75665 1 6.28616 1.46786 5.05554 2.33926C3.20447 1.26515 1.95502 1.04681 1.33548 1.66619C0.494113 2.50756 1.3927 4.42307 2.33798 5.93399V5.93383C1.97403 6.96399 1.84679 8.06269 1.96588 9.14879C2.08496 10.2347 2.44699 11.2799 3.02546 12.2066C1.33917 14.5947 0.479881 16.6643 1.33549 17.5199L1.33593 17.5198ZM7.29366 18.175H11.2321V19.0701H7.29366V18.175ZM9.02663 17.4589L8.18875 13.2807L8.38567 13.0659L8.9406 14.0649C9.00854 14.1768 9.13209 14.2426 9.26284 14.2367C9.39326 14.2378 9.51394 14.1678 9.57788 14.0542L10.1363 13.0482L10.3297 13.263L9.49905 17.4592L9.02663 17.4589ZM7.29366 19.7861H11.2321V20.6812H7.29366V19.7861ZM10.9098 17.4589H10.2296L11.053 13.2414L11.1927 12.5254C11.2313 12.3277 11.1023 12.136 10.9044 12.0975C10.7067 12.059 10.5152 12.188 10.4767 12.3857L10.337 12.2103C10.2583 12.1282 10.1453 12.0884 10.0326 12.1029C9.91916 12.1173 9.81926 12.1852 9.76411 12.2855L9.26286 13.1627L8.77953 12.2927C8.72359 12.1913 8.62225 12.1234 8.50749 12.11C8.39352 12.0973 8.28036 12.1399 8.20316 12.2246L8.02766 12.418V12.3964C7.98978 12.2028 7.80245 12.0764 7.60873 12.1136C7.51507 12.1317 7.43243 12.1865 7.37936 12.266C7.32614 12.3453 7.30696 12.4426 7.32598 12.5361L8.2962 17.459H7.64821C7.57804 15.991 6.82215 14.6412 5.6074 13.8142C4.94391 13.3927 4.36275 12.8541 3.89235 12.2245C5.02608 10.7084 6.272 9.27928 7.61945 7.94971C8.1637 7.40194 8.71496 6.8756 9.26289 6.38876C9.81067 6.88281 10.3621 7.40198 10.9099 7.94971C12.2562 9.28083 13.501 10.7109 14.6334 12.2281C14.1707 12.8678 13.5972 13.4196 12.9399 13.8572C11.7378 14.6747 10.9869 16.0072 10.9099 17.459L10.9098 17.4589ZM10.9098 22.1637C10.7127 22.3618 10.4445 22.4725 10.1651 22.4716H8.34637C8.06697 22.4725 7.79875 22.3618 7.60153 22.1637C7.40621 21.9647 7.29576 21.6978 7.29368 21.4189V21.3975H11.2321V21.4189C11.2327 21.7015 11.1221 21.9729 10.9242 22.1744L10.9098 22.1637ZM15.7255 13.8785C16.8677 15.7726 16.9536 16.7428 16.685 17.0328C16.327 17.3908 14.8267 17.0328 12.4172 15.3465C12.672 15.0056 12.9803 14.7081 13.3302 14.4658C13.9897 14.0269 14.5737 13.4839 15.0596 12.8582C15.2994 13.1876 15.5251 13.5206 15.7255 13.8786V13.8785ZM15.0417 11.5943C13.9285 10.1257 12.7154 8.7358 11.4112 7.43373C10.8776 6.90019 10.337 6.38822 9.79999 5.90489C10.9348 4.90591 12.149 4.00059 13.4306 3.19822C14.645 4.17961 15.473 5.55917 15.7679 7.09267C16.0628 8.62601 15.8054 10.2143 15.0417 11.5761V11.5943ZM16.685 2.17448C16.9714 2.46091 16.8031 3.47413 15.8471 5.11758H15.8473C15.4168 4.24201 14.817 3.46071 14.082 2.81895C15.6181 1.97758 16.4415 1.93106 16.685 2.17448H16.685ZM12.8003 2.75102C11.5561 3.55564 10.3736 4.452 9.26294 5.43261C8.15335 4.452 6.97216 3.55564 5.7291 2.75102C6.78467 2.07554 8.01157 1.71656 9.2647 1.71656C10.5178 1.71656 11.7449 2.07556 12.8003 2.75102ZM1.84438 2.17448C2.08782 1.93105 2.91849 1.97756 4.44365 2.81895H4.44381C3.70887 3.46071 3.10901 4.24197 2.67854 5.11758C1.74413 3.4743 1.55439 2.46091 1.84434 2.17448H1.84438ZM2.63927 8.34007C2.63911 6.34243 3.54348 4.45217 5.099 3.19867C6.3788 4.00264 7.59073 4.91037 8.72237 5.91255C8.18883 6.39587 7.64457 6.90785 7.11472 7.43422C5.81331 8.73003 4.60159 10.1128 3.48783 11.5731C2.92966 10.5872 2.63734 9.47319 2.63927 8.34007ZM2.81828 13.8788C3.0152 13.5494 3.24441 13.202 3.48783 12.8549C3.97517 13.4755 4.56194 14.0115 5.22433 14.441C5.57262 14.6796 5.87984 14.9736 6.13366 15.311C3.71342 17.001 2.21666 17.3876 1.83722 17.0152C1.57237 16.7431 1.66188 15.755 2.81833 13.8788L2.81828 13.8788Z"/>
</mask>
<path d="M1.33593 17.5198C1.58624 17.7536 1.92127 17.8753 2.26331 17.8563C3.48415 17.8563 5.27433 16.7821 6.5131 15.9193C6.75254 16.3993 6.89143 16.9233 6.92116 17.4589C6.72345 17.4589 6.56313 17.6192 6.56313 17.8169V21.4296C6.57464 21.9026 6.77284 22.3518 7.11459 22.679C7.44161 23.0049 7.88451 23.1878 8.34631 23.1875H10.1795H10.1793C10.6488 23.1897 11.0993 23.0026 11.4289 22.6683C11.7589 22.3357 11.9452 21.8872 11.9481 21.4187V17.8169C11.9494 17.6349 11.8139 17.4808 11.6331 17.4589C11.6627 16.9225 11.8003 16.3977 12.0376 15.9158C13.28 16.7751 15.0487 17.8348 16.2625 17.8348C16.6045 17.8537 16.9395 17.7322 17.1898 17.4982C18.0456 16.6424 17.1898 14.5658 15.4999 12.1849V12.1851C16.0772 11.2579 16.4389 10.2129 16.5585 9.12726C16.6782 8.04166 16.5525 6.94291 16.1908 5.9123C17.1397 4.42295 18.0312 2.50744 17.1898 1.66619C16.5703 1.04665 15.3208 1.27587 13.4733 2.33926C12.2429 1.46782 10.7723 1 9.26441 1C7.75665 1 6.28616 1.46786 5.05554 2.33926C3.20447 1.26515 1.95502 1.04681 1.33548 1.66619C0.494113 2.50756 1.3927 4.42307 2.33798 5.93399V5.93383C1.97403 6.96399 1.84679 8.06269 1.96588 9.14879C2.08496 10.2347 2.44699 11.2799 3.02546 12.2066C1.33917 14.5947 0.479881 16.6643 1.33549 17.5199L1.33593 17.5198ZM7.29366 18.175H11.2321V19.0701H7.29366V18.175ZM9.02663 17.4589L8.18875 13.2807L8.38567 13.0659L8.9406 14.0649C9.00854 14.1768 9.13209 14.2426 9.26284 14.2367C9.39326 14.2378 9.51394 14.1678 9.57788 14.0542L10.1363 13.0482L10.3297 13.263L9.49905 17.4592L9.02663 17.4589ZM7.29366 19.7861H11.2321V20.6812H7.29366V19.7861ZM10.9098 17.4589H10.2296L11.053 13.2414L11.1927 12.5254C11.2313 12.3277 11.1023 12.136 10.9044 12.0975C10.7067 12.059 10.5152 12.188 10.4767 12.3857L10.337 12.2103C10.2583 12.1282 10.1453 12.0884 10.0326 12.1029C9.91916 12.1173 9.81926 12.1852 9.76411 12.2855L9.26286 13.1627L8.77953 12.2927C8.72359 12.1913 8.62225 12.1234 8.50749 12.11C8.39352 12.0973 8.28036 12.1399 8.20316 12.2246L8.02766 12.418V12.3964C7.98978 12.2028 7.80245 12.0764 7.60873 12.1136C7.51507 12.1317 7.43243 12.1865 7.37936 12.266C7.32614 12.3453 7.30696 12.4426 7.32598 12.5361L8.2962 17.459H7.64821C7.57804 15.991 6.82215 14.6412 5.6074 13.8142C4.94391 13.3927 4.36275 12.8541 3.89235 12.2245C5.02608 10.7084 6.272 9.27928 7.61945 7.94971C8.1637 7.40194 8.71496 6.8756 9.26289 6.38876C9.81067 6.88281 10.3621 7.40198 10.9099 7.94971C12.2562 9.28083 13.501 10.7109 14.6334 12.2281C14.1707 12.8678 13.5972 13.4196 12.9399 13.8572C11.7378 14.6747 10.9869 16.0072 10.9099 17.459L10.9098 17.4589ZM10.9098 22.1637C10.7127 22.3618 10.4445 22.4725 10.1651 22.4716H8.34637C8.06697 22.4725 7.79875 22.3618 7.60153 22.1637C7.40621 21.9647 7.29576 21.6978 7.29368 21.4189V21.3975H11.2321V21.4189C11.2327 21.7015 11.1221 21.9729 10.9242 22.1744L10.9098 22.1637ZM15.7255 13.8785C16.8677 15.7726 16.9536 16.7428 16.685 17.0328C16.327 17.3908 14.8267 17.0328 12.4172 15.3465C12.672 15.0056 12.9803 14.7081 13.3302 14.4658C13.9897 14.0269 14.5737 13.4839 15.0596 12.8582C15.2994 13.1876 15.5251 13.5206 15.7255 13.8786V13.8785ZM15.0417 11.5943C13.9285 10.1257 12.7154 8.7358 11.4112 7.43373C10.8776 6.90019 10.337 6.38822 9.79999 5.90489C10.9348 4.90591 12.149 4.00059 13.4306 3.19822C14.645 4.17961 15.473 5.55917 15.7679 7.09267C16.0628 8.62601 15.8054 10.2143 15.0417 11.5761V11.5943ZM16.685 2.17448C16.9714 2.46091 16.8031 3.47413 15.8471 5.11758H15.8473C15.4168 4.24201 14.817 3.46071 14.082 2.81895C15.6181 1.97758 16.4415 1.93106 16.685 2.17448H16.685ZM12.8003 2.75102C11.5561 3.55564 10.3736 4.452 9.26294 5.43261C8.15335 4.452 6.97216 3.55564 5.7291 2.75102C6.78467 2.07554 8.01157 1.71656 9.2647 1.71656C10.5178 1.71656 11.7449 2.07556 12.8003 2.75102ZM1.84438 2.17448C2.08782 1.93105 2.91849 1.97756 4.44365 2.81895H4.44381C3.70887 3.46071 3.10901 4.24197 2.67854 5.11758C1.74413 3.4743 1.55439 2.46091 1.84434 2.17448H1.84438ZM2.63927 8.34007C2.63911 6.34243 3.54348 4.45217 5.099 3.19867C6.3788 4.00264 7.59073 4.91037 8.72237 5.91255C8.18883 6.39587 7.64457 6.90785 7.11472 7.43422C5.81331 8.73003 4.60159 10.1128 3.48783 11.5731C2.92966 10.5872 2.63734 9.47319 2.63927 8.34007ZM2.81828 13.8788C3.0152 13.5494 3.24441 13.202 3.48783 12.8549C3.97517 13.4755 4.56194 14.0115 5.22433 14.441C5.57262 14.6796 5.87984 14.9736 6.13366 15.311C3.71342 17.001 2.21666 17.3876 1.83722 17.0152C1.57237 16.7431 1.66188 15.755 2.81833 13.8788L2.81828 13.8788Z" fill="black"/>
<path d="M1.33593 17.5198C1.58624 17.7536 1.92127 17.8753 2.26331 17.8563C3.48415 17.8563 5.27433 16.7821 6.5131 15.9193C6.75254 16.3993 6.89143 16.9233 6.92116 17.4589C6.72345 17.4589 6.56313 17.6192 6.56313 17.8169V21.4296C6.57464 21.9026 6.77284 22.3518 7.11459 22.679C7.44161 23.0049 7.88451 23.1878 8.34631 23.1875H10.1795H10.1793C10.6488 23.1897 11.0993 23.0026 11.4289 22.6683C11.7589 22.3357 11.9452 21.8872 11.9481 21.4187V17.8169C11.9494 17.6349 11.8139 17.4808 11.6331 17.4589C11.6627 16.9225 11.8003 16.3977 12.0376 15.9158C13.28 16.7751 15.0487 17.8348 16.2625 17.8348C16.6045 17.8537 16.9395 17.7322 17.1898 17.4982C18.0456 16.6424 17.1898 14.5658 15.4999 12.1849V12.1851C16.0772 11.2579 16.4389 10.2129 16.5585 9.12726C16.6782 8.04166 16.5525 6.94291 16.1908 5.9123C17.1397 4.42295 18.0312 2.50744 17.1898 1.66619C16.5703 1.04665 15.3208 1.27587 13.4733 2.33926C12.2429 1.46782 10.7723 1 9.26441 1C7.75665 1 6.28616 1.46786 5.05554 2.33926C3.20447 1.26515 1.95502 1.04681 1.33548 1.66619C0.494113 2.50756 1.3927 4.42307 2.33798 5.93399V5.93383C1.97403 6.96399 1.84679 8.06269 1.96588 9.14879C2.08496 10.2347 2.44699 11.2799 3.02546 12.2066C1.33917 14.5947 0.479881 16.6643 1.33549 17.5199L1.33593 17.5198ZM7.29366 18.175H11.2321V19.0701H7.29366V18.175ZM9.02663 17.4589L8.18875 13.2807L8.38567 13.0659L8.9406 14.0649C9.00854 14.1768 9.13209 14.2426 9.26284 14.2367C9.39326 14.2378 9.51394 14.1678 9.57788 14.0542L10.1363 13.0482L10.3297 13.263L9.49905 17.4592L9.02663 17.4589ZM7.29366 19.7861H11.2321V20.6812H7.29366V19.7861ZM10.9098 17.4589H10.2296L11.053 13.2414L11.1927 12.5254C11.2313 12.3277 11.1023 12.136 10.9044 12.0975C10.7067 12.059 10.5152 12.188 10.4767 12.3857L10.337 12.2103C10.2583 12.1282 10.1453 12.0884 10.0326 12.1029C9.91916 12.1173 9.81926 12.1852 9.76411 12.2855L9.26286 13.1627L8.77953 12.2927C8.72359 12.1913 8.62225 12.1234 8.50749 12.11C8.39352 12.0973 8.28036 12.1399 8.20316 12.2246L8.02766 12.418V12.3964C7.98978 12.2028 7.80245 12.0764 7.60873 12.1136C7.51507 12.1317 7.43243 12.1865 7.37936 12.266C7.32614 12.3453 7.30696 12.4426 7.32598 12.5361L8.2962 17.459H7.64821C7.57804 15.991 6.82215 14.6412 5.6074 13.8142C4.94391 13.3927 4.36275 12.8541 3.89235 12.2245C5.02608 10.7084 6.272 9.27928 7.61945 7.94971C8.1637 7.40194 8.71496 6.8756 9.26289 6.38876C9.81067 6.88281 10.3621 7.40198 10.9099 7.94971C12.2562 9.28083 13.501 10.7109 14.6334 12.2281C14.1707 12.8678 13.5972 13.4196 12.9399 13.8572C11.7378 14.6747 10.9869 16.0072 10.9099 17.459L10.9098 17.4589ZM10.9098 22.1637C10.7127 22.3618 10.4445 22.4725 10.1651 22.4716H8.34637C8.06697 22.4725 7.79875 22.3618 7.60153 22.1637C7.40621 21.9647 7.29576 21.6978 7.29368 21.4189V21.3975H11.2321V21.4189C11.2327 21.7015 11.1221 21.9729 10.9242 22.1744L10.9098 22.1637ZM15.7255 13.8785C16.8677 15.7726 16.9536 16.7428 16.685 17.0328C16.327 17.3908 14.8267 17.0328 12.4172 15.3465C12.672 15.0056 12.9803 14.7081 13.3302 14.4658C13.9897 14.0269 14.5737 13.4839 15.0596 12.8582C15.2994 13.1876 15.5251 13.5206 15.7255 13.8786V13.8785ZM15.0417 11.5943C13.9285 10.1257 12.7154 8.7358 11.4112 7.43373C10.8776 6.90019 10.337 6.38822 9.79999 5.90489C10.9348 4.90591 12.149 4.00059 13.4306 3.19822C14.645 4.17961 15.473 5.55917 15.7679 7.09267C16.0628 8.62601 15.8054 10.2143 15.0417 11.5761V11.5943ZM16.685 2.17448C16.9714 2.46091 16.8031 3.47413 15.8471 5.11758H15.8473C15.4168 4.24201 14.817 3.46071 14.082 2.81895C15.6181 1.97758 16.4415 1.93106 16.685 2.17448H16.685ZM12.8003 2.75102C11.5561 3.55564 10.3736 4.452 9.26294 5.43261C8.15335 4.452 6.97216 3.55564 5.7291 2.75102C6.78467 2.07554 8.01157 1.71656 9.2647 1.71656C10.5178 1.71656 11.7449 2.07556 12.8003 2.75102ZM1.84438 2.17448C2.08782 1.93105 2.91849 1.97756 4.44365 2.81895H4.44381C3.70887 3.46071 3.10901 4.24197 2.67854 5.11758C1.74413 3.4743 1.55439 2.46091 1.84434 2.17448H1.84438ZM2.63927 8.34007C2.63911 6.34243 3.54348 4.45217 5.099 3.19867C6.3788 4.00264 7.59073 4.91037 8.72237 5.91255C8.18883 6.39587 7.64457 6.90785 7.11472 7.43422C5.81331 8.73003 4.60159 10.1128 3.48783 11.5731C2.92966 10.5872 2.63734 9.47319 2.63927 8.34007ZM2.81828 13.8788C3.0152 13.5494 3.24441 13.202 3.48783 12.8549C3.97517 13.4755 4.56194 14.0115 5.22433 14.441C5.57262 14.6796 5.87984 14.9736 6.13366 15.311C3.71342 17.001 2.21666 17.3876 1.83722 17.0152C1.57237 16.7431 1.66188 15.755 2.81833 13.8788L2.81828 13.8788Z" stroke="black" stroke-width="0.2" mask="url(#path-1-outside-1_1189_28752)"/>
<path d="M9.18117 8.50781C8.80123 8.50781 8.43694 8.6587 8.16844 8.92723C7.89991 9.19591 7.74902 9.56019 7.74902 9.93996C7.74902 10.3197 7.89991 10.684 8.16844 10.9527C8.43696 11.2212 8.80124 11.3721 9.18117 11.3721C9.56094 11.3721 9.92523 11.2212 10.1937 10.9527C10.4624 10.684 10.6133 10.3197 10.6133 9.93996C10.6133 9.56019 10.4624 9.1959 10.1937 8.92723C9.92521 8.6587 9.56093 8.50781 9.18117 8.50781ZM9.18117 10.656C8.99128 10.656 8.80906 10.5806 8.6748 10.4463C8.54054 10.3121 8.4651 10.1298 8.4651 9.93996C8.4651 9.75007 8.54054 9.56785 8.6748 9.43359C8.80906 9.29933 8.99128 9.22389 9.18117 9.22389C9.37106 9.22389 9.55311 9.29933 9.68753 9.43359C9.8218 9.56785 9.89724 9.75007 9.89724 9.93996C9.89724 10.1298 9.8218 10.3121 9.68753 10.4463C9.55311 10.5806 9.37106 10.656 9.18117 10.656Z" fill="black"/>
</svg>
