<svg width="21" height="21" viewBox="0 0 21 21" fill="none" xmlns="http://www.w3.org/2000/svg">
<path d="M12.2845 0.00038897C12.1627 0.0077416 12.053 0.0764727 11.9935 0.182922L9.39281 4.74656L5.19294 7.16827C5.02207 7.26769 4.96422 7.48683 5.06363 7.6577L5.28245 8.03747L3.49084 9.07176C3.31933 9.17022 3.26019 9.38904 3.35865 9.56054L4.6538 11.7989C4.70111 11.8814 4.77927 11.9418 4.87118 11.9666C4.96293 11.9913 5.06091 11.9786 5.14322 11.9311L6.93275 10.8968L7.15157 11.2759C7.25115 11.4463 7.46964 11.5042 7.64034 11.4052L8.46828 10.9276L9.97666 13.5394C10.0756 13.7096 10.2933 13.7679 10.4642 13.6703L12.4717 12.5115C12.6419 12.4125 12.7003 12.1948 12.6024 12.0241L11.0948 9.41305L11.8416 8.9823L17.0919 9.01091C17.2199 9.01139 17.3383 8.94346 17.4027 8.83285C17.4672 8.72224 17.4675 8.58558 17.4037 8.47449L12.6142 0.180325C12.5469 0.062844 12.4192 -0.00668461 12.2841 0.000508848L12.2845 0.00038897ZM12.3054 1.07867L16.4709 8.29464L11.9514 8.26523L10.0697 5.00374L12.3054 1.07867ZM1.3503 5.38411C1.15338 5.38491 0.994178 5.54459 0.993699 5.74151V16.0644H0.356599C0.158881 16.0652 -0.000798994 16.226 3.00789e-06 16.4237V17.3412C3.00789e-06 18.9461 1.30235 20.2461 2.90697 20.2461H17.8557C19.4603 20.2461 20.7654 18.9461 20.7654 17.3412L20.7655 16.4237C20.7659 16.3283 20.7281 16.2367 20.6607 16.1693C20.5931 16.1018 20.5015 16.0639 20.4061 16.0644H19.7697V5.7415C19.7693 5.54426 19.6096 5.38458 19.4123 5.38411H17.7606C17.5627 5.38411 17.4022 5.54458 17.4022 5.74246C17.4022 5.9405 17.5627 6.10098 17.7606 6.10098H19.0529V16.0646H1.71V6.10098H4.16527C4.36314 6.10098 4.52362 5.9405 4.52362 5.74246C4.52362 5.54458 4.36314 5.38411 4.16527 5.38411L1.3503 5.38411ZM9.52416 5.496L10.3907 6.99382L11.2563 8.49245L10.4445 8.96093C10.4386 8.96381 10.4328 8.96684 10.4271 8.97004L8.42015 10.1287C8.41632 10.1311 8.41264 10.1333 8.40896 10.1357L7.59284 10.6071L7.37402 10.2288L6.08092 7.98754C6.07868 7.98386 6.07628 7.98003 6.07389 7.97635L5.8621 7.61L9.52416 5.496ZM5.63978 8.65613L6.57259 10.2764L5.09568 11.1303L4.16 9.50997L5.63978 8.65613ZM10.4739 9.77083L11.8039 12.0728L10.4186 12.8722L9.08924 10.5694L9.25147 10.4757L10.4739 9.77083ZM0.713195 16.781H7.76222V18.1522C7.76301 18.349 7.92221 18.5082 8.11881 18.509H12.644C12.8406 18.5082 12.9998 18.349 13.0006 18.1522V16.781H20.0496V17.3411C20.0496 18.5614 19.0765 19.532 17.856 19.532H2.90727C1.68659 19.532 0.71367 18.5614 0.71367 17.3411L0.713195 16.781ZM8.47829 16.781H12.2845V17.7929H8.47829V16.781Z" fill="black"/>
</svg>
