<svg width="24" height="22" viewBox="0 0 24 22" fill="none" xmlns="http://www.w3.org/2000/svg">
<path d="M2.4021 8.47452L3.04527 8.64679L3.00979 8.77893L3.14182 8.647L3.14198 8.64684L3.20328 8.58559L3.16793 8.57612C3.733 6.51609 4.99303 4.71417 6.73532 3.47662L6.73532 3.47662C8.4911 2.22929 10.627 1.63325 12.775 1.79096C14.9231 1.94883 16.9486 2.85055 18.5037 4.34098C20.045 5.81844 21.0278 7.78287 21.2869 9.90081H20.6923C20.5453 9.90081 20.4096 9.97986 20.3371 10.1077L20.3371 10.1078C20.2648 10.2358 20.2668 10.3928 20.3424 10.5189L20.3853 10.4931L20.3424 10.5189L21.4165 12.309L21.4165 12.3091C21.4903 12.4318 21.6231 12.5071 21.7664 12.5071C21.9098 12.5071 22.0426 12.4318 22.1163 12.3091L22.1164 12.309L23.1905 10.5189L23.1476 10.4931L23.1905 10.5189C23.2661 10.3928 23.2681 10.2358 23.1958 10.1078L23.1957 10.1077C23.1232 9.97986 22.9875 9.90081 22.8405 9.90081H22.811L22.811 9.90096H22.1073C21.847 7.58067 20.7888 5.42199 19.1127 3.79532C17.4259 2.15799 15.2194 1.16204 12.8757 0.980197C10.5318 0.798358 8.19838 1.44188 6.27919 2.79921L6.27919 2.79921C4.35992 4.15675 2.9759 6.14268 2.36675 8.41326L2.35379 8.46158L2.4021 8.47452ZM22.1198 10.717L21.7664 11.3062L21.4129 10.717H22.1198Z" fill="black" stroke="black" stroke-width="0.1"/>
<path d="M21.8319 13.637L21.8448 13.5886L21.7965 13.5757L21.1049 13.3905L21.0566 13.3775L21.0437 13.4258C20.4852 15.506 19.2192 17.3264 17.4633 18.5736L17.4922 18.6144L17.4633 18.5736C15.7075 19.8209 13.5716 20.417 11.4236 20.2593C9.2755 20.1014 7.24997 19.1997 5.69487 17.7092C4.15358 16.2318 3.17081 14.2673 2.91175 12.1494H3.50628C3.65327 12.1494 3.78897 12.0704 3.86146 11.9425L3.86151 11.9424C3.9338 11.8144 3.93181 11.6574 3.85621 11.5314L3.85621 11.5314L2.7821 9.74118L2.78218 9.74113L2.78041 9.73856C2.70156 9.62399 2.5714 9.55547 2.43218 9.55547C2.29295 9.55547 2.16279 9.624 2.08394 9.73856L2.08386 9.7385L2.08225 9.74118L1.00814 11.5314L1.00814 11.5314C0.932544 11.6574 0.930551 11.8144 1.00285 11.9424L1.00289 11.9425C1.07541 12.0704 1.21121 12.1493 1.35815 12.1493H2.09129C2.35164 14.4696 3.40984 16.6282 5.0859 18.2549C6.77275 19.8922 8.97922 20.8882 11.323 21.07C13.6668 21.2519 16.0002 20.6083 17.9194 19.251C19.8387 17.8935 21.2227 15.9075 21.8319 13.637ZM2.07877 11.3332L2.43226 10.744L2.78575 11.3332H2.07877Z" fill="black" stroke="black" stroke-width="0.1"/>
<mask id="path-3-outside-1_1189_28741" maskUnits="userSpaceOnUse" x="4.29688" y="3.22266" width="15" height="15" fill="black">
<rect fill="white" x="4.29688" y="3.22266" width="15" height="15"/>
<path d="M6.44013 9.22779C6.41136 9.34079 6.31179 9.42135 6.19542 9.42615H5.77683C5.60564 9.42599 5.45827 9.54746 5.4255 9.71561C5.254 10.5799 5.254 11.4695 5.4255 12.3337C5.45827 12.5019 5.60564 12.6234 5.77683 12.6232H6.19542C6.31179 12.628 6.41136 12.7086 6.44013 12.8216C6.54243 13.143 6.67206 13.455 6.82774 13.7544C6.88752 13.8549 6.87409 13.9828 6.79466 14.0686L6.4972 14.3662C6.37604 14.4874 6.35766 14.6773 6.45324 14.8194C6.94476 15.5505 7.57355 16.1793 8.3048 16.6708C8.4469 16.7667 8.63695 16.7483 8.75794 16.627L9.05571 16.3294V16.3295C9.14139 16.2501 9.26926 16.2367 9.36963 16.2963C9.66901 16.4521 9.98116 16.5817 10.3028 16.684C10.4156 16.7128 10.4962 16.8124 10.5008 16.9288V17.3473C10.5008 17.5185 10.6221 17.6659 10.7903 17.6987C11.6547 17.8702 12.5443 17.8702 13.4087 17.6987C13.5769 17.6659 13.6984 17.5185 13.6984 17.3473V16.9288C13.703 16.8122 13.7837 16.7127 13.8967 16.684C14.218 16.5817 14.53 16.4521 14.8292 16.2966C14.9296 16.2365 15.0576 16.2499 15.1435 16.3295L15.4412 16.6271L15.4411 16.627C15.5622 16.7483 15.7523 16.7667 15.8942 16.6708C16.6255 16.1794 17.2542 15.5506 17.7458 14.8194C17.8413 14.6773 17.823 14.4874 17.7018 14.3662L17.404 14.0686H17.4042C17.3249 13.9826 17.3115 13.8549 17.3713 13.7544C17.5269 13.455 17.6566 13.143 17.7589 12.8216C17.7876 12.7086 17.8872 12.628 18.0036 12.6232H18.4222C18.5935 12.6234 18.7407 12.5019 18.7735 12.3337C18.945 11.4695 18.945 10.5799 18.7735 9.71561C18.7407 9.54746 18.5935 9.42599 18.4222 9.42615H18.0036C17.8872 9.42135 17.7876 9.3408 17.7589 9.22779C17.6566 8.90635 17.5269 8.59437 17.3713 8.29497C17.3115 8.19443 17.3249 8.06656 17.4043 7.98073L17.702 7.68311H17.7018C17.823 7.56196 17.8413 7.37207 17.7458 7.22998C17.2542 6.49873 16.6255 5.86994 15.8942 5.37859C15.7521 5.28268 15.5621 5.30107 15.4411 5.42238L15.1433 5.71984C15.0575 5.79912 14.9299 5.81254 14.8294 5.75308C14.53 5.59724 14.2178 5.46761 13.8962 5.36532C13.7834 5.33655 13.7028 5.23697 13.6982 5.1206V4.70201C13.6982 4.53082 13.5769 4.38345 13.4087 4.35069C12.5442 4.17998 11.6547 4.17998 10.7903 4.35069C10.6221 4.38345 10.5006 4.53082 10.5006 4.70201V5.1206C10.496 5.23713 10.4153 5.3367 10.3023 5.36532C9.98101 5.46761 9.66899 5.59724 9.36979 5.75277C9.26942 5.8127 9.14139 5.79928 9.05555 5.71984L8.75778 5.42238H8.75794C8.63678 5.30107 8.44673 5.28268 8.3048 5.37859C7.57355 5.8701 6.94476 6.49889 6.45324 7.22998C6.35766 7.37208 6.37604 7.56197 6.4972 7.68311L6.79498 7.98073H6.79482C6.87409 8.06672 6.88752 8.19443 6.82774 8.29497C6.67206 8.59435 6.54243 8.90633 6.44013 9.22779H6.44013ZM7.12265 9.44453V9.44469C7.21248 9.16226 7.32629 8.88799 7.46311 8.62505C7.56237 8.44108 7.60025 8.23009 7.57116 8.0231C7.54191 7.81611 7.44728 7.62383 7.30103 7.47438L7.21711 7.39047C7.5702 6.9159 7.99072 6.49538 8.46529 6.14229L8.54937 6.22621C8.69865 6.37262 8.89094 6.4674 9.09808 6.4965C9.30523 6.52575 9.51623 6.4877 9.70003 6.38813C9.96297 6.25163 10.2369 6.13782 10.5192 6.04783C10.719 5.9879 10.8947 5.86546 11.0201 5.69875C11.1456 5.53188 11.2147 5.32937 11.2169 5.12061V5.00377C11.8021 4.91634 12.397 4.91634 12.9822 5.00377V5.12061C12.9844 5.32936 13.0533 5.53188 13.1788 5.69859C13.3042 5.86546 13.4797 5.98773 13.6795 6.04783C13.962 6.13782 14.2362 6.25179 14.4992 6.38845C14.6831 6.48771 14.894 6.52559 15.1011 6.49634C15.3081 6.46725 15.5004 6.37246 15.6497 6.22621L15.7337 6.14229C16.2085 6.49521 16.629 6.91573 16.9819 7.39047L16.8982 7.47438C16.7519 7.62367 16.6571 7.81596 16.6279 8.0231C16.5988 8.23009 16.6367 8.44108 16.7359 8.62505C16.8727 8.88799 16.9866 9.16227 17.0764 9.44469C17.1365 9.64449 17.2588 9.81999 17.4256 9.94545C17.5923 10.0709 17.7949 10.1398 18.0036 10.1422H18.1203C18.208 10.7272 18.208 11.3221 18.1203 11.9071H18.0036C17.7949 11.9095 17.5923 11.9784 17.4256 12.1039C17.2588 12.2294 17.1365 12.4049 17.0764 12.6047C16.9866 12.8871 16.8727 13.1614 16.7359 13.4243C16.6367 13.6083 16.5988 13.8193 16.6279 14.0263C16.6571 14.2332 16.7517 14.4255 16.898 14.575L16.9819 14.6589C16.629 15.1336 16.2085 15.5541 15.7337 15.9071L15.6497 15.8231C15.5004 15.6767 15.3081 15.5821 15.101 15.5529C14.8938 15.5238 14.6828 15.5618 14.499 15.6612C14.2361 15.7977 13.9621 15.9115 13.6798 16.0015C13.48 16.0615 13.3044 16.1839 13.1789 16.3506C13.0534 16.5175 12.9844 16.72 12.9821 16.9287V17.0456C12.397 17.133 11.802 17.133 11.2169 17.0456V16.9287C11.2146 16.72 11.1457 16.5175 11.0203 16.3508C10.8948 16.1839 10.7193 16.0616 10.5195 16.0015C10.2371 15.9115 9.96281 15.7976 9.69987 15.6609C9.5159 15.5618 9.30507 15.5239 9.09808 15.5532C8.89109 15.5823 8.69881 15.6769 8.54937 15.8231L8.46529 15.9071C7.99072 15.554 7.5702 15.1335 7.21711 14.6589L7.30087 14.575C7.44712 14.4257 7.5419 14.2334 7.57116 14.0263C7.60025 13.8193 7.56237 13.6083 7.46311 13.4243C7.32628 13.1614 7.21248 12.8871 7.12265 12.6047C7.06255 12.4049 6.94028 12.2294 6.77341 12.1039C6.6067 11.9784 6.40418 11.9095 6.19543 11.9071H6.07875C5.991 11.3221 5.991 10.7272 6.07875 10.1422H6.19543C6.40418 10.1398 6.6067 10.0709 6.77341 9.94545C6.94028 9.81998 7.06255 9.64447 7.12265 9.44469V9.44453Z"/>
</mask>
<path d="M6.44013 9.22779C6.41136 9.34079 6.31179 9.42135 6.19542 9.42615H5.77683C5.60564 9.42599 5.45827 9.54746 5.4255 9.71561C5.254 10.5799 5.254 11.4695 5.4255 12.3337C5.45827 12.5019 5.60564 12.6234 5.77683 12.6232H6.19542C6.31179 12.628 6.41136 12.7086 6.44013 12.8216C6.54243 13.143 6.67206 13.455 6.82774 13.7544C6.88752 13.8549 6.87409 13.9828 6.79466 14.0686L6.4972 14.3662C6.37604 14.4874 6.35766 14.6773 6.45324 14.8194C6.94476 15.5505 7.57355 16.1793 8.3048 16.6708C8.4469 16.7667 8.63695 16.7483 8.75794 16.627L9.05571 16.3294V16.3295C9.14139 16.2501 9.26926 16.2367 9.36963 16.2963C9.66901 16.4521 9.98116 16.5817 10.3028 16.684C10.4156 16.7128 10.4962 16.8124 10.5008 16.9288V17.3473C10.5008 17.5185 10.6221 17.6659 10.7903 17.6987C11.6547 17.8702 12.5443 17.8702 13.4087 17.6987C13.5769 17.6659 13.6984 17.5185 13.6984 17.3473V16.9288C13.703 16.8122 13.7837 16.7127 13.8967 16.684C14.218 16.5817 14.53 16.4521 14.8292 16.2966C14.9296 16.2365 15.0576 16.2499 15.1435 16.3295L15.4412 16.6271L15.4411 16.627C15.5622 16.7483 15.7523 16.7667 15.8942 16.6708C16.6255 16.1794 17.2542 15.5506 17.7458 14.8194C17.8413 14.6773 17.823 14.4874 17.7018 14.3662L17.404 14.0686H17.4042C17.3249 13.9826 17.3115 13.8549 17.3713 13.7544C17.5269 13.455 17.6566 13.143 17.7589 12.8216C17.7876 12.7086 17.8872 12.628 18.0036 12.6232H18.4222C18.5935 12.6234 18.7407 12.5019 18.7735 12.3337C18.945 11.4695 18.945 10.5799 18.7735 9.71561C18.7407 9.54746 18.5935 9.42599 18.4222 9.42615H18.0036C17.8872 9.42135 17.7876 9.3408 17.7589 9.22779C17.6566 8.90635 17.5269 8.59437 17.3713 8.29497C17.3115 8.19443 17.3249 8.06656 17.4043 7.98073L17.702 7.68311H17.7018C17.823 7.56196 17.8413 7.37207 17.7458 7.22998C17.2542 6.49873 16.6255 5.86994 15.8942 5.37859C15.7521 5.28268 15.5621 5.30107 15.4411 5.42238L15.1433 5.71984C15.0575 5.79912 14.9299 5.81254 14.8294 5.75308C14.53 5.59724 14.2178 5.46761 13.8962 5.36532C13.7834 5.33655 13.7028 5.23697 13.6982 5.1206V4.70201C13.6982 4.53082 13.5769 4.38345 13.4087 4.35069C12.5442 4.17998 11.6547 4.17998 10.7903 4.35069C10.6221 4.38345 10.5006 4.53082 10.5006 4.70201V5.1206C10.496 5.23713 10.4153 5.3367 10.3023 5.36532C9.98101 5.46761 9.66899 5.59724 9.36979 5.75277C9.26942 5.8127 9.14139 5.79928 9.05555 5.71984L8.75778 5.42238H8.75794C8.63678 5.30107 8.44673 5.28268 8.3048 5.37859C7.57355 5.8701 6.94476 6.49889 6.45324 7.22998C6.35766 7.37208 6.37604 7.56197 6.4972 7.68311L6.79498 7.98073H6.79482C6.87409 8.06672 6.88752 8.19443 6.82774 8.29497C6.67206 8.59435 6.54243 8.90633 6.44013 9.22779H6.44013ZM7.12265 9.44453V9.44469C7.21248 9.16226 7.32629 8.88799 7.46311 8.62505C7.56237 8.44108 7.60025 8.23009 7.57116 8.0231C7.54191 7.81611 7.44728 7.62383 7.30103 7.47438L7.21711 7.39047C7.5702 6.9159 7.99072 6.49538 8.46529 6.14229L8.54937 6.22621C8.69865 6.37262 8.89094 6.4674 9.09808 6.4965C9.30523 6.52575 9.51623 6.4877 9.70003 6.38813C9.96297 6.25163 10.2369 6.13782 10.5192 6.04783C10.719 5.9879 10.8947 5.86546 11.0201 5.69875C11.1456 5.53188 11.2147 5.32937 11.2169 5.12061V5.00377C11.8021 4.91634 12.397 4.91634 12.9822 5.00377V5.12061C12.9844 5.32936 13.0533 5.53188 13.1788 5.69859C13.3042 5.86546 13.4797 5.98773 13.6795 6.04783C13.962 6.13782 14.2362 6.25179 14.4992 6.38845C14.6831 6.48771 14.894 6.52559 15.1011 6.49634C15.3081 6.46725 15.5004 6.37246 15.6497 6.22621L15.7337 6.14229C16.2085 6.49521 16.629 6.91573 16.9819 7.39047L16.8982 7.47438C16.7519 7.62367 16.6571 7.81596 16.6279 8.0231C16.5988 8.23009 16.6367 8.44108 16.7359 8.62505C16.8727 8.88799 16.9866 9.16227 17.0764 9.44469C17.1365 9.64449 17.2588 9.81999 17.4256 9.94545C17.5923 10.0709 17.7949 10.1398 18.0036 10.1422H18.1203C18.208 10.7272 18.208 11.3221 18.1203 11.9071H18.0036C17.7949 11.9095 17.5923 11.9784 17.4256 12.1039C17.2588 12.2294 17.1365 12.4049 17.0764 12.6047C16.9866 12.8871 16.8727 13.1614 16.7359 13.4243C16.6367 13.6083 16.5988 13.8193 16.6279 14.0263C16.6571 14.2332 16.7517 14.4255 16.898 14.575L16.9819 14.6589C16.629 15.1336 16.2085 15.5541 15.7337 15.9071L15.6497 15.8231C15.5004 15.6767 15.3081 15.5821 15.101 15.5529C14.8938 15.5238 14.6828 15.5618 14.499 15.6612C14.2361 15.7977 13.9621 15.9115 13.6798 16.0015C13.48 16.0615 13.3044 16.1839 13.1789 16.3506C13.0534 16.5175 12.9844 16.72 12.9821 16.9287V17.0456C12.397 17.133 11.802 17.133 11.2169 17.0456V16.9287C11.2146 16.72 11.1457 16.5175 11.0203 16.3508C10.8948 16.1839 10.7193 16.0616 10.5195 16.0015C10.2371 15.9115 9.96281 15.7976 9.69987 15.6609C9.5159 15.5618 9.30507 15.5239 9.09808 15.5532C8.89109 15.5823 8.69881 15.6769 8.54937 15.8231L8.46529 15.9071C7.99072 15.554 7.5702 15.1335 7.21711 14.6589L7.30087 14.575C7.44712 14.4257 7.5419 14.2334 7.57116 14.0263C7.60025 13.8193 7.56237 13.6083 7.46311 13.4243C7.32628 13.1614 7.21248 12.8871 7.12265 12.6047C7.06255 12.4049 6.94028 12.2294 6.77341 12.1039C6.6067 11.9784 6.40418 11.9095 6.19543 11.9071H6.07875C5.991 11.3221 5.991 10.7272 6.07875 10.1422H6.19543C6.40418 10.1398 6.6067 10.0709 6.77341 9.94545C6.94028 9.81998 7.06255 9.64447 7.12265 9.44469V9.44453Z" fill="black"/>
<path d="M6.44013 9.22779C6.41136 9.34079 6.31179 9.42135 6.19542 9.42615H5.77683C5.60564 9.42599 5.45827 9.54746 5.4255 9.71561C5.254 10.5799 5.254 11.4695 5.4255 12.3337C5.45827 12.5019 5.60564 12.6234 5.77683 12.6232H6.19542C6.31179 12.628 6.41136 12.7086 6.44013 12.8216C6.54243 13.143 6.67206 13.455 6.82774 13.7544C6.88752 13.8549 6.87409 13.9828 6.79466 14.0686L6.4972 14.3662C6.37604 14.4874 6.35766 14.6773 6.45324 14.8194C6.94476 15.5505 7.57355 16.1793 8.3048 16.6708C8.4469 16.7667 8.63695 16.7483 8.75794 16.627L9.05571 16.3294V16.3295C9.14139 16.2501 9.26926 16.2367 9.36963 16.2963C9.66901 16.4521 9.98116 16.5817 10.3028 16.684C10.4156 16.7128 10.4962 16.8124 10.5008 16.9288V17.3473C10.5008 17.5185 10.6221 17.6659 10.7903 17.6987C11.6547 17.8702 12.5443 17.8702 13.4087 17.6987C13.5769 17.6659 13.6984 17.5185 13.6984 17.3473V16.9288C13.703 16.8122 13.7837 16.7127 13.8967 16.684C14.218 16.5817 14.53 16.4521 14.8292 16.2966C14.9296 16.2365 15.0576 16.2499 15.1435 16.3295L15.4412 16.6271L15.4411 16.627C15.5622 16.7483 15.7523 16.7667 15.8942 16.6708C16.6255 16.1794 17.2542 15.5506 17.7458 14.8194C17.8413 14.6773 17.823 14.4874 17.7018 14.3662L17.404 14.0686H17.4042C17.3249 13.9826 17.3115 13.8549 17.3713 13.7544C17.5269 13.455 17.6566 13.143 17.7589 12.8216C17.7876 12.7086 17.8872 12.628 18.0036 12.6232H18.4222C18.5935 12.6234 18.7407 12.5019 18.7735 12.3337C18.945 11.4695 18.945 10.5799 18.7735 9.71561C18.7407 9.54746 18.5935 9.42599 18.4222 9.42615H18.0036C17.8872 9.42135 17.7876 9.3408 17.7589 9.22779C17.6566 8.90635 17.5269 8.59437 17.3713 8.29497C17.3115 8.19443 17.3249 8.06656 17.4043 7.98073L17.702 7.68311H17.7018C17.823 7.56196 17.8413 7.37207 17.7458 7.22998C17.2542 6.49873 16.6255 5.86994 15.8942 5.37859C15.7521 5.28268 15.5621 5.30107 15.4411 5.42238L15.1433 5.71984C15.0575 5.79912 14.9299 5.81254 14.8294 5.75308C14.53 5.59724 14.2178 5.46761 13.8962 5.36532C13.7834 5.33655 13.7028 5.23697 13.6982 5.1206V4.70201C13.6982 4.53082 13.5769 4.38345 13.4087 4.35069C12.5442 4.17998 11.6547 4.17998 10.7903 4.35069C10.6221 4.38345 10.5006 4.53082 10.5006 4.70201V5.1206C10.496 5.23713 10.4153 5.3367 10.3023 5.36532C9.98101 5.46761 9.66899 5.59724 9.36979 5.75277C9.26942 5.8127 9.14139 5.79928 9.05555 5.71984L8.75778 5.42238H8.75794C8.63678 5.30107 8.44673 5.28268 8.3048 5.37859C7.57355 5.8701 6.94476 6.49889 6.45324 7.22998C6.35766 7.37208 6.37604 7.56197 6.4972 7.68311L6.79498 7.98073H6.79482C6.87409 8.06672 6.88752 8.19443 6.82774 8.29497C6.67206 8.59435 6.54243 8.90633 6.44013 9.22779H6.44013ZM7.12265 9.44453V9.44469C7.21248 9.16226 7.32629 8.88799 7.46311 8.62505C7.56237 8.44108 7.60025 8.23009 7.57116 8.0231C7.54191 7.81611 7.44728 7.62383 7.30103 7.47438L7.21711 7.39047C7.5702 6.9159 7.99072 6.49538 8.46529 6.14229L8.54937 6.22621C8.69865 6.37262 8.89094 6.4674 9.09808 6.4965C9.30523 6.52575 9.51623 6.4877 9.70003 6.38813C9.96297 6.25163 10.2369 6.13782 10.5192 6.04783C10.719 5.9879 10.8947 5.86546 11.0201 5.69875C11.1456 5.53188 11.2147 5.32937 11.2169 5.12061V5.00377C11.8021 4.91634 12.397 4.91634 12.9822 5.00377V5.12061C12.9844 5.32936 13.0533 5.53188 13.1788 5.69859C13.3042 5.86546 13.4797 5.98773 13.6795 6.04783C13.962 6.13782 14.2362 6.25179 14.4992 6.38845C14.6831 6.48771 14.894 6.52559 15.1011 6.49634C15.3081 6.46725 15.5004 6.37246 15.6497 6.22621L15.7337 6.14229C16.2085 6.49521 16.629 6.91573 16.9819 7.39047L16.8982 7.47438C16.7519 7.62367 16.6571 7.81596 16.6279 8.0231C16.5988 8.23009 16.6367 8.44108 16.7359 8.62505C16.8727 8.88799 16.9866 9.16227 17.0764 9.44469C17.1365 9.64449 17.2588 9.81999 17.4256 9.94545C17.5923 10.0709 17.7949 10.1398 18.0036 10.1422H18.1203C18.208 10.7272 18.208 11.3221 18.1203 11.9071H18.0036C17.7949 11.9095 17.5923 11.9784 17.4256 12.1039C17.2588 12.2294 17.1365 12.4049 17.0764 12.6047C16.9866 12.8871 16.8727 13.1614 16.7359 13.4243C16.6367 13.6083 16.5988 13.8193 16.6279 14.0263C16.6571 14.2332 16.7517 14.4255 16.898 14.575L16.9819 14.6589C16.629 15.1336 16.2085 15.5541 15.7337 15.9071L15.6497 15.8231C15.5004 15.6767 15.3081 15.5821 15.101 15.5529C14.8938 15.5238 14.6828 15.5618 14.499 15.6612C14.2361 15.7977 13.9621 15.9115 13.6798 16.0015C13.48 16.0615 13.3044 16.1839 13.1789 16.3506C13.0534 16.5175 12.9844 16.72 12.9821 16.9287V17.0456C12.397 17.133 11.802 17.133 11.2169 17.0456V16.9287C11.2146 16.72 11.1457 16.5175 11.0203 16.3508C10.8948 16.1839 10.7193 16.0616 10.5195 16.0015C10.2371 15.9115 9.96281 15.7976 9.69987 15.6609C9.5159 15.5618 9.30507 15.5239 9.09808 15.5532C8.89109 15.5823 8.69881 15.6769 8.54937 15.8231L8.46529 15.9071C7.99072 15.554 7.5702 15.1335 7.21711 14.6589L7.30087 14.575C7.44712 14.4257 7.5419 14.2334 7.57116 14.0263C7.60025 13.8193 7.56237 13.6083 7.46311 13.4243C7.32628 13.1614 7.21248 12.8871 7.12265 12.6047C7.06255 12.4049 6.94028 12.2294 6.77341 12.1039C6.6067 11.9784 6.40418 11.9095 6.19543 11.9071H6.07875C5.991 11.3221 5.991 10.7272 6.07875 10.1422H6.19543C6.40418 10.1398 6.6067 10.0709 6.77341 9.94545C6.94028 9.81998 7.06255 9.64447 7.12265 9.44469V9.44453Z" stroke="black" stroke-width="0.2" mask="url(#path-3-outside-1_1189_28741)"/>
<path d="M14.5955 8.52864C13.9334 7.86654 13.0355 7.49459 12.0992 7.49459C11.1632 7.49569 10.2659 7.86798 9.60397 8.52974C9.60397 8.52975 9.60396 8.52975 9.60396 8.52975M14.5955 8.52864L8.51881 11.025C8.51993 10.0757 8.89746 9.1657 9.56861 8.49439L9.60396 8.52975M14.5955 8.52864C15.2576 9.19075 15.6295 10.0886 15.6295 11.025C15.6295 11.9613 15.2576 12.8592 14.5955 13.5213C13.9334 14.1834 13.0355 14.5553 12.0992 14.5553C11.1628 14.5553 10.265 14.1834 9.60286 13.5213C8.94077 12.8592 8.56881 11.9613 8.56881 11.025M14.5955 8.52864L8.56881 11.025M9.60396 8.52975C8.94219 9.19168 8.56993 10.0889 8.56881 11.025M9.60396 8.52975L8.56881 11.025M12.0991 15.3714H12.0992C13.2519 15.3714 14.3575 14.9135 15.1726 14.0983C15.9877 13.2832 16.4456 12.1777 16.4456 11.025C16.4456 9.87219 15.9877 8.76667 15.1726 7.95156C14.3574 7.13646 13.2519 6.67852 12.0992 6.67852C10.9464 6.67852 9.84089 7.13642 9.02578 7.95157C8.21068 8.76671 7.75273 9.87219 7.75273 11.025L7.75273 11.025C7.75403 12.1774 8.21242 13.2821 9.02722 14.0969C9.84202 14.9117 10.9467 15.3701 12.0991 15.3714Z" fill="black" stroke="black" stroke-width="0.1"/>
<path d="M13.9256 9.34235L11.7019 12.2016L10.8243 11.3323L10.7888 11.2971L10.7536 11.3326L10.2496 11.8409L10.2144 11.8764L10.25 11.9116L11.4543 13.1049L11.4896 13.0695L11.4544 13.105L11.4543 13.1049C11.5307 13.1809 11.6338 13.2234 11.7415 13.2234V13.2233C11.7502 13.2233 11.7587 13.223 11.7661 13.2227L11.7665 13.2227L11.7665 13.2227L11.7677 13.2226C11.8842 13.215 11.9918 13.158 12.0636 13.066L12.0636 13.0659L14.5699 9.84362L14.6006 9.80416L14.5611 9.77346L13.9958 9.33359L13.9563 9.30287L13.9256 9.34235Z" fill="black" stroke="black" stroke-width="0.1"/>
</svg>
