<svg width="22" height="22" viewBox="0 0 22 22" fill="none" xmlns="http://www.w3.org/2000/svg">
<mask id="path-1-outside-1_1190_28741" maskUnits="userSpaceOnUse" x="0.168945" y="0.180664" width="22" height="22" fill="black">
<rect fill="white" x="0.168945" y="0.180664" width="22" height="22"/>
<path fill-rule="evenodd" clip-rule="evenodd" d="M11.069 5.04795C11.0426 5.04907 11.0164 5.04955 10.9903 5.04955L10.9903 5.04955C9.89841 5.04955 9.01021 4.19411 8.96833 3.10208C8.94759 2.5615 9.13874 2.04537 9.5062 1.64865C9.87382 1.25195 10.374 1.02194 10.9145 1.00132C12.0438 0.961388 12.972 1.82947 13.0151 2.9472C13.0572 4.06288 12.1845 5.00512 11.069 5.04795ZM10.9316 1.45929C10.5137 1.47541 10.1267 1.65316 9.84235 1.96021L9.84233 1.96024C9.55797 2.26725 9.41012 2.66637 9.4261 3.08468C9.45937 3.95002 10.1834 4.62279 11.0512 4.59019C11.9138 4.55708 12.5896 3.82792 12.5569 2.96478C12.5244 2.1199 11.8371 1.45817 10.9925 1.45817C10.9724 1.45817 10.9521 1.45865 10.9316 1.45929ZM10.14 18.211C10.5074 17.8143 11.0077 17.5843 11.548 17.5637L11.548 17.5637C12.678 17.5119 13.6059 18.3918 13.6487 19.5097C13.6911 20.6254 12.818 21.5676 11.7028 21.6103C11.6765 21.6114 11.6501 21.6119 11.624 21.6119C10.5321 21.6119 9.64382 20.7566 9.6021 19.6645C9.58152 19.1239 9.7725 18.6079 10.14 18.211ZM10.06 19.6472C10.0933 20.5125 10.8113 21.1816 11.6854 21.1527L11.6854 21.1527C12.5482 21.1198 13.2237 20.3905 13.1906 19.5273C13.1582 18.6826 12.4707 18.0205 11.6256 18.0205C11.6058 18.0205 11.5854 18.021 11.5652 18.0217C11.1471 18.0379 10.7601 18.2157 10.4759 18.5227C10.1917 18.8298 10.0441 19.229 10.06 19.6472ZM17.1592 7.46083C17.7014 7.46083 18.211 7.24936 18.5936 6.86526C18.9756 6.48213 19.1854 5.9732 19.1844 5.43246C19.1833 4.89173 18.9718 4.38344 18.5888 4.00191C18.2068 3.62086 17.699 3.41113 17.1597 3.41113C16.6176 3.41113 16.108 3.6226 15.7253 4.0067C14.9375 4.79741 14.9394 6.08204 15.73 6.87034C16.112 7.25091 16.6198 7.46079 17.1592 7.46079L17.1592 7.46083ZM16.05 4.33008C16.3463 4.0331 16.7403 3.86926 17.1599 3.86926C17.5772 3.86926 17.97 4.03149 18.2655 4.3264C18.5618 4.62178 18.7254 5.01481 18.7263 5.43312C18.727 5.85159 18.5647 6.24527 18.2694 6.54143C17.973 6.83857 17.579 7.00226 17.1594 7.00226C16.7421 7.00226 16.3492 6.84002 16.0535 6.54528C15.4419 5.93568 15.4403 4.94193 16.05 4.33008H16.05ZM4.02438 15.7469C4.40673 15.3628 4.91612 15.1514 5.45829 15.1514C5.99792 15.1514 6.50573 15.3611 6.8879 15.7421C7.27071 16.1237 7.48218 16.6316 7.48314 17.1727C7.48408 17.7134 7.27405 18.2222 6.89236 18.6053C6.50969 18.9893 6.0003 19.2011 5.45813 19.2011C4.91866 19.2011 4.41118 18.9912 4.02917 18.6103C3.64603 18.2286 3.43424 17.7203 3.4336 17.1796C3.43266 16.6388 3.64237 16.1301 4.02438 15.7469ZM5.45813 18.7428C5.8777 18.7428 6.2717 18.5789 6.56788 18.2816H6.56783C6.86322 17.9855 7.02545 17.5918 7.02481 17.1733C7.02399 16.755 6.86049 16.362 6.56415 16.0666C6.26847 15.7718 5.87574 15.6096 5.45825 15.6096C5.03883 15.6096 4.64485 15.7733 4.34883 16.0704C4.05328 16.3666 3.89103 16.7603 3.89169 17.1788C3.89234 17.5972 4.05601 17.9904 4.35251 18.2858C4.64806 18.5805 5.0408 18.7428 5.45813 18.7428ZM17.4204 14.8789C16.8538 14.8789 16.3092 15.1183 15.9265 15.5361C15.561 15.9351 15.3729 16.4523 15.3965 16.9924C15.4202 17.5327 15.6527 18.0314 16.0514 18.3966C16.4259 18.7396 16.9113 18.9284 17.4186 18.9284C17.9853 18.9284 18.5298 18.6886 18.9125 18.271C19.6666 17.4483 19.6105 16.1651 18.7872 15.4105C18.413 15.0677 17.9277 14.8789 17.4204 14.8789H17.4204ZM18.5747 17.9614C18.2784 18.2847 17.8572 18.4703 17.419 18.4703C17.0267 18.4703 16.6509 18.3241 16.3613 18.0587C16.0528 17.7761 15.8728 17.3906 15.8546 16.9726C15.8362 16.5546 15.982 16.1546 16.2646 15.8459C16.5609 15.5226 16.9821 15.3372 17.4204 15.3372C17.8126 15.3372 18.1883 15.4834 18.4777 15.7484C19.1147 16.3322 19.1582 17.3247 18.5747 17.9614ZM6.69049 7.07598C6.30782 7.49377 5.7636 7.73321 5.19697 7.73321V7.73325C4.68966 7.73325 4.20406 7.54432 3.82988 7.20131C3.00687 6.44735 2.95044 5.16402 3.70457 4.34054C4.08724 3.92287 4.63162 3.68359 5.19809 3.68359C5.7054 3.68359 6.191 3.87219 6.56518 4.21521C7.38819 4.96962 7.44462 6.25298 6.69049 7.07598ZM5.19791 4.1418C4.75947 4.1418 4.33831 4.32706 4.04229 4.65009H4.04228C3.45887 5.28706 3.50253 6.27995 4.13931 6.86337C4.42893 7.12871 4.80473 7.27496 5.19697 7.27496C5.63541 7.27496 6.05656 7.08971 6.35258 6.76668C6.936 6.12953 6.89234 5.13665 6.2554 4.55307C5.96595 4.28773 5.59047 4.1418 5.19791 4.1418ZM19.5924 9.01761L19.5274 9.01857C18.4117 9.05438 17.533 9.99104 17.5684 11.1067C17.6028 12.206 18.491 13.0674 19.5907 13.0674L19.6562 13.0663C20.1965 13.0494 20.6982 12.8227 21.0682 12.428C21.4386 12.0334 21.6328 11.5186 21.6154 10.978C21.5805 9.87879 20.692 9.01758 19.5924 9.01758L19.5924 9.01761ZM20.7343 12.1145C20.4479 12.4195 20.06 12.595 19.6415 12.6082L19.5907 12.6088C18.74 12.6088 18.0532 11.9428 18.0264 11.092C17.999 10.2289 18.679 9.504 19.5419 9.47638L19.5926 9.47574C20.4433 9.47574 21.1306 10.1421 21.1576 10.9926C21.1709 11.4111 21.0208 11.8094 20.7343 12.1145ZM3.0262 9.54492C4.12555 9.54492 5.01379 10.4061 5.04863 11.5055L5.04863 11.5055C5.06573 12.0457 4.87169 12.5607 4.50134 12.9554C4.13132 13.3497 3.62974 13.5763 3.08916 13.5933L3.02347 13.5944C1.92424 13.5944 1.03604 12.7335 1.00104 11.6343C0.965723 10.5182 1.84469 9.58136 2.96066 9.54588L3.0262 9.54492ZM3.02366 13.136L3.07481 13.1354H3.07481C3.49296 13.1221 3.88119 12.9467 4.1673 12.6421C4.45357 12.3366 4.60382 11.9383 4.59056 11.5202C4.56371 10.6695 3.87657 10.0035 3.02624 10.0035L2.97542 10.0041C2.11212 10.0316 1.43185 10.7562 1.45935 11.6198C1.48652 12.47 2.1735 13.136 3.02366 13.136ZM13.7288 8.32083L13.7293 8.32558C13.7315 8.351 13.7392 8.37481 13.7494 8.39751C13.7521 8.40374 13.7553 8.40918 13.7588 8.41509C13.7692 8.43395 13.782 8.4509 13.7969 8.46592C13.7985 8.4675 13.7999 8.4691 13.8012 8.47068C13.8035 8.47326 13.8057 8.47579 13.8085 8.47807C13.8258 8.49293 13.8448 8.50604 13.8662 8.51547C13.8676 8.51603 13.869 8.51619 13.8705 8.51635C13.8719 8.51651 13.8734 8.51667 13.8747 8.51723C13.8762 8.51777 13.8774 8.51865 13.8785 8.51952C13.8798 8.52045 13.881 8.52137 13.8826 8.52186L14.8622 8.86072C14.887 8.86935 14.9124 8.87351 14.9371 8.87351C15.0321 8.87351 15.121 8.81389 15.1537 8.71926C15.1951 8.5997 15.1315 8.46912 15.0121 8.42772L14.4309 8.2268L15.3363 7.52112C15.4363 7.44344 15.4541 7.29927 15.3764 7.19969C15.2985 7.09979 15.1544 7.08189 15.055 7.15989L14.1487 7.86606L14.1059 7.38416C14.0947 7.25821 13.9818 7.16758 13.8575 7.17605C13.7312 7.18724 13.6382 7.29849 13.6494 7.42444L13.7288 8.32019V8.32083ZM8.21015 13.5726C8.2109 13.5736 8.21168 13.5745 8.21221 13.5757L8.60671 14.5342C8.65482 14.6514 8.5992 14.7851 8.48204 14.8333C8.45343 14.8451 8.42386 14.8505 8.39493 14.8505C8.30494 14.8505 8.21942 14.7971 8.18298 14.7084L7.94898 14.1397L7.16256 15.2759C7.11813 15.3403 7.04652 15.3747 6.97396 15.3747C6.92904 15.3747 6.88365 15.3614 6.84385 15.3339C6.73979 15.2617 6.7139 15.1189 6.78583 15.0149L7.57207 13.8787L7.08887 13.8634C6.96227 13.8597 6.86286 13.7537 6.86701 13.6273C6.87085 13.5006 6.9765 13.3919 7.10325 13.4054L8.0073 13.4341C8.0332 13.4347 8.05749 13.4411 8.08115 13.45C8.08547 13.4518 8.08945 13.4537 8.09352 13.4557L8.09809 13.4579C8.11807 13.4673 8.13613 13.4795 8.15243 13.4942C8.15405 13.4956 8.15573 13.497 8.15741 13.4983C8.15969 13.5001 8.16198 13.5019 8.1641 13.5041C8.18009 13.5202 8.19431 13.5386 8.20486 13.5597C8.20569 13.5614 8.20622 13.5633 8.20676 13.5651C8.20726 13.5669 8.20777 13.5686 8.20854 13.5704C8.20896 13.5712 8.20955 13.5719 8.21015 13.5726ZM11.1338 5.15528H11.1327C11.0068 5.15528 10.9043 5.25709 10.9035 5.3832L10.8968 6.68126L10.491 6.41689C10.3848 6.34768 10.2427 6.37789 10.1739 6.48386C10.1048 6.59 10.1349 6.73209 10.2408 6.80098L10.9988 7.29454C11 7.29534 11.0014 7.29586 11.0027 7.29638C11.004 7.2969 11.0053 7.29741 11.0066 7.29821C11.0189 7.30557 11.0318 7.31132 11.0451 7.31612L11.0522 7.31895C11.056 7.32051 11.0597 7.32207 11.0637 7.32315C11.0828 7.32826 11.1027 7.33146 11.1225 7.33162L11.1239 7.33178L11.1254 7.33162C11.1449 7.33162 11.164 7.32858 11.1831 7.32331C11.1869 7.32236 11.1906 7.32072 11.1944 7.31908C11.1969 7.31797 11.1995 7.31686 11.2021 7.31596L11.2104 7.31308C11.2178 7.3106 11.2252 7.30812 11.2321 7.30429C11.2335 7.30349 11.2347 7.30253 11.2359 7.30157C11.2371 7.30061 11.2383 7.29965 11.2396 7.29885L11.2415 7.29796L11.2431 7.29739C11.2446 7.29685 11.246 7.29632 11.2475 7.29534L12.1191 6.73447C12.2257 6.6659 12.2564 6.52428 12.1878 6.41783C12.1192 6.31122 11.9775 6.28053 11.8712 6.3491L11.3549 6.6814L11.3616 5.38576C11.3626 5.25901 11.2603 5.15591 11.1338 5.15527L11.1338 5.15528ZM11.1189 17.1692H11.1153L11.1152 17.1693C10.9888 17.1672 10.8878 17.0631 10.8899 16.9372L10.9094 15.6393L10.4986 15.8952C10.3913 15.962 10.25 15.9295 10.1831 15.8218C10.1163 15.7144 10.149 15.5733 10.2564 15.5063L11.0196 15.0308H11.0198L11.024 15.0281C11.0457 15.0145 11.0695 15.006 11.0938 15.0006C11.0984 14.9995 11.103 14.9989 11.1076 14.9983L11.1128 14.9975C11.1341 14.9943 11.1557 14.9943 11.1772 14.9974C11.1796 14.9977 11.1818 14.9979 11.1841 14.998C11.1872 14.9983 11.1902 14.9985 11.1932 14.9991C11.2154 15.0041 11.2373 15.0114 11.2578 15.0229C11.2596 15.024 11.2611 15.0253 11.2627 15.0266L11.2648 15.0283L11.2669 15.0298L11.2687 15.0306L11.2695 15.0309L11.2711 15.0314C11.2717 15.0316 11.2723 15.0319 11.2728 15.0324L12.1328 15.6107C12.2378 15.6815 12.2656 15.8237 12.1949 15.9289C12.1508 15.9945 12.0781 16.0299 12.0046 16.0299C11.9603 16.0299 11.9162 16.0173 11.8767 15.9909L11.3676 15.6484L11.3481 16.9436C11.3461 17.0689 11.2438 17.1692 11.1189 17.1692ZM8.42566 6.94852C8.30195 6.94228 8.19326 7.04362 8.18894 7.16989L8.1688 7.78416L7.07902 7.02475C6.97528 6.95235 6.83239 6.97776 6.75998 7.08182C6.68758 7.18555 6.71299 7.3286 6.81704 7.40085L7.90776 8.16087L7.45975 8.34437C7.34259 8.39232 7.2868 8.5261 7.3346 8.64342C7.37104 8.73213 7.45655 8.78568 7.54686 8.78568C7.57579 8.78568 7.60504 8.78025 7.63365 8.76842L8.47072 8.42541L8.47184 8.42477C8.49566 8.41486 8.51627 8.40031 8.53514 8.38337C8.53957 8.37934 8.54333 8.37531 8.54726 8.37109L8.54726 8.37109L8.54952 8.36866C8.56391 8.35332 8.57589 8.33638 8.58549 8.31752L8.5888 8.31184L8.5888 8.31184C8.59037 8.30929 8.59192 8.30675 8.59332 8.30377C8.60227 8.28315 8.60866 8.26141 8.61138 8.23839C8.61163 8.23645 8.61148 8.2345 8.61133 8.23256C8.6112 8.23083 8.61107 8.2291 8.61122 8.22737C8.61122 8.22625 8.61158 8.22521 8.61194 8.22417L8.61194 8.22417C8.6123 8.22313 8.61266 8.22209 8.61266 8.22097L8.64686 7.18508C8.65118 7.05849 8.55208 6.95268 8.42565 6.94852L8.42566 6.94852ZM14.7079 14.4013L14.1309 14.611L15.1716 15.3961C15.2725 15.4724 15.2926 15.6161 15.2165 15.7171C15.1713 15.7764 15.1029 15.808 15.0332 15.808C14.9851 15.808 14.9366 15.7932 14.8952 15.762L13.8542 14.9766L13.8189 15.4591C13.8096 15.5854 13.699 15.6806 13.5739 15.6711C13.4476 15.6618 13.3528 15.5523 13.3619 15.426L13.4273 14.5287L13.4275 14.528L13.4276 14.5234C13.4296 14.498 13.4369 14.4742 13.4465 14.451C13.4487 14.4461 13.4512 14.4415 13.4538 14.4368L13.4538 14.4368L13.4556 14.4334C13.466 14.4142 13.4785 14.3965 13.4936 14.381L13.4984 14.3758C13.5002 14.3738 13.502 14.3718 13.504 14.3698C13.521 14.3546 13.54 14.3412 13.5616 14.3313C13.5635 14.3304 13.5654 14.3299 13.5674 14.3294L13.5692 14.3289C13.5703 14.3286 13.5715 14.3283 13.5726 14.3278C13.5744 14.3271 13.5758 14.3252 13.5779 14.3246L14.5515 13.9709C14.671 13.9277 14.8018 13.9889 14.8449 14.1078C14.8882 14.2268 14.8269 14.3581 14.7079 14.4013ZM15.6414 12.2058C15.748 12.1372 15.7789 11.9955 15.7106 11.8892L15.4486 11.4817L16.7467 11.4845H16.7472C16.8736 11.4845 16.9761 11.3823 16.9764 11.2557C16.9766 11.1293 16.8744 11.0264 16.7477 11.0262L15.3943 11.0235L15.6566 10.4834C15.7118 10.3696 15.6645 10.2325 15.5505 10.1773C15.4368 10.1222 15.2995 10.1695 15.2444 10.2831L14.8226 11.1518C14.8217 11.1537 14.8214 11.1557 14.821 11.1577C14.8207 11.1594 14.8204 11.161 14.8199 11.1625C14.8107 11.1838 14.8052 11.2059 14.8029 11.2285L14.802 11.2358C14.8015 11.2397 14.801 11.2436 14.8008 11.2476C14.8004 11.2735 14.8036 11.2994 14.8119 11.3241C14.8125 11.3261 14.8134 11.3279 14.8143 11.3297C14.8152 11.3313 14.8161 11.3329 14.8167 11.3347C14.8219 11.3489 14.8274 11.3628 14.8357 11.3758L15.3246 12.1369C15.3684 12.2052 15.4424 12.2423 15.5179 12.2423C15.5602 12.2419 15.6031 12.2303 15.6414 12.2058ZM6.38902 12.1327C6.34586 12.1327 6.30175 12.1203 6.26307 12.0949L6.26307 12.0949C6.15742 12.0252 6.12833 11.8831 6.19818 11.7768L6.4651 11.3724L5.39562 11.3607C5.26903 11.3591 5.16753 11.2555 5.16897 11.1291C5.17025 11.0025 5.28117 10.9063 5.40057 10.9025L6.46797 10.9141L6.13887 10.3958C6.0711 10.289 6.10274 10.1474 6.20952 10.0796C6.31677 10.0119 6.45791 10.0435 6.52568 10.1503L6.52584 10.1504L6.5984 10.265L7.08079 11.0251C7.08134 11.026 7.08162 11.0271 7.08189 11.0282C7.08218 11.0293 7.08246 11.0304 7.08303 11.0313C7.08389 11.0326 7.0849 11.0338 7.0859 11.035C7.08731 11.0367 7.08871 11.0383 7.08974 11.0404C7.10077 11.0613 7.10748 11.0834 7.1118 11.1058C7.11188 11.1066 7.11224 11.1073 7.1126 11.1081C7.11296 11.1089 7.11331 11.1096 7.11339 11.1104C7.11383 11.1125 7.11361 11.1146 7.11339 11.1167C7.1132 11.1185 7.11301 11.1203 7.11323 11.1221C7.11579 11.1435 7.11531 11.1649 7.11164 11.1862C7.11134 11.1879 7.11142 11.1898 7.1115 11.1917C7.11159 11.194 7.11168 11.1962 7.11116 11.1983C7.11084 11.1996 7.1102 11.2008 7.10956 11.202C7.10892 11.2032 7.10828 11.2044 7.10796 11.2057C7.10173 11.2298 7.0931 11.2535 7.07887 11.2747L7.07615 11.2789L6.58034 12.0298C6.53639 12.0965 6.4635 12.1327 6.38902 12.1327ZM13.0867 13.0982C13.0867 12.257 12.5038 11.488 11.6689 11.2279L11.6675 11.2321C11.5614 11.1995 11.4441 11.2441 11.3943 11.3477L11.1915 11.7698L10.9845 11.3278C10.9374 11.2274 10.8269 11.1819 10.723 11.207L10.7219 11.2023C9.84134 11.4202 9.20216 12.2176 9.20216 13.098V13.4522H13.0864L13.0867 13.0982ZM9.66472 12.9941C9.70787 12.4234 10.1039 11.9157 10.656 11.7062L10.9816 12.4011C11.0192 12.4815 11.0996 12.5327 11.1881 12.5331H11.1893C11.2773 12.5331 11.3577 12.4825 11.3958 12.4035L11.7156 11.7383C12.2209 11.9702 12.5823 12.463 12.6246 12.9942L9.66472 12.9941ZM12.5439 9.57958C12.5439 10.3511 11.9163 10.9788 11.145 10.9788C10.3738 10.9788 9.7461 10.3511 9.7461 9.57958C9.7461 8.80835 10.3735 8.18066 11.145 8.18066C11.9163 8.18066 12.5439 8.80807 12.5439 9.57958ZM12.0857 9.57938C12.0857 9.06086 11.6639 8.63875 11.145 8.63875C10.6265 8.63875 10.2044 9.06086 10.2044 9.57938C10.2044 10.0981 10.6265 10.5202 11.145 10.5202C11.6635 10.5202 12.0857 10.0982 12.0857 9.57938Z"/>
</mask>
<path fill-rule="evenodd" clip-rule="evenodd" d="M11.069 5.04795C11.0426 5.04907 11.0164 5.04955 10.9903 5.04955L10.9903 5.04955C9.89841 5.04955 9.01021 4.19411 8.96833 3.10208C8.94759 2.5615 9.13874 2.04537 9.5062 1.64865C9.87382 1.25195 10.374 1.02194 10.9145 1.00132C12.0438 0.961388 12.972 1.82947 13.0151 2.9472C13.0572 4.06288 12.1845 5.00512 11.069 5.04795ZM10.9316 1.45929C10.5137 1.47541 10.1267 1.65316 9.84235 1.96021L9.84233 1.96024C9.55797 2.26725 9.41012 2.66637 9.4261 3.08468C9.45937 3.95002 10.1834 4.62279 11.0512 4.59019C11.9138 4.55708 12.5896 3.82792 12.5569 2.96478C12.5244 2.1199 11.8371 1.45817 10.9925 1.45817C10.9724 1.45817 10.9521 1.45865 10.9316 1.45929ZM10.14 18.211C10.5074 17.8143 11.0077 17.5843 11.548 17.5637L11.548 17.5637C12.678 17.5119 13.6059 18.3918 13.6487 19.5097C13.6911 20.6254 12.818 21.5676 11.7028 21.6103C11.6765 21.6114 11.6501 21.6119 11.624 21.6119C10.5321 21.6119 9.64382 20.7566 9.6021 19.6645C9.58152 19.1239 9.7725 18.6079 10.14 18.211ZM10.06 19.6472C10.0933 20.5125 10.8113 21.1816 11.6854 21.1527L11.6854 21.1527C12.5482 21.1198 13.2237 20.3905 13.1906 19.5273C13.1582 18.6826 12.4707 18.0205 11.6256 18.0205C11.6058 18.0205 11.5854 18.021 11.5652 18.0217C11.1471 18.0379 10.7601 18.2157 10.4759 18.5227C10.1917 18.8298 10.0441 19.229 10.06 19.6472ZM17.1592 7.46083C17.7014 7.46083 18.211 7.24936 18.5936 6.86526C18.9756 6.48213 19.1854 5.9732 19.1844 5.43246C19.1833 4.89173 18.9718 4.38344 18.5888 4.00191C18.2068 3.62086 17.699 3.41113 17.1597 3.41113C16.6176 3.41113 16.108 3.6226 15.7253 4.0067C14.9375 4.79741 14.9394 6.08204 15.73 6.87034C16.112 7.25091 16.6198 7.46079 17.1592 7.46079L17.1592 7.46083ZM16.05 4.33008C16.3463 4.0331 16.7403 3.86926 17.1599 3.86926C17.5772 3.86926 17.97 4.03149 18.2655 4.3264C18.5618 4.62178 18.7254 5.01481 18.7263 5.43312C18.727 5.85159 18.5647 6.24527 18.2694 6.54143C17.973 6.83857 17.579 7.00226 17.1594 7.00226C16.7421 7.00226 16.3492 6.84002 16.0535 6.54528C15.4419 5.93568 15.4403 4.94193 16.05 4.33008H16.05ZM4.02438 15.7469C4.40673 15.3628 4.91612 15.1514 5.45829 15.1514C5.99792 15.1514 6.50573 15.3611 6.8879 15.7421C7.27071 16.1237 7.48218 16.6316 7.48314 17.1727C7.48408 17.7134 7.27405 18.2222 6.89236 18.6053C6.50969 18.9893 6.0003 19.2011 5.45813 19.2011C4.91866 19.2011 4.41118 18.9912 4.02917 18.6103C3.64603 18.2286 3.43424 17.7203 3.4336 17.1796C3.43266 16.6388 3.64237 16.1301 4.02438 15.7469ZM5.45813 18.7428C5.8777 18.7428 6.2717 18.5789 6.56788 18.2816H6.56783C6.86322 17.9855 7.02545 17.5918 7.02481 17.1733C7.02399 16.755 6.86049 16.362 6.56415 16.0666C6.26847 15.7718 5.87574 15.6096 5.45825 15.6096C5.03883 15.6096 4.64485 15.7733 4.34883 16.0704C4.05328 16.3666 3.89103 16.7603 3.89169 17.1788C3.89234 17.5972 4.05601 17.9904 4.35251 18.2858C4.64806 18.5805 5.0408 18.7428 5.45813 18.7428ZM17.4204 14.8789C16.8538 14.8789 16.3092 15.1183 15.9265 15.5361C15.561 15.9351 15.3729 16.4523 15.3965 16.9924C15.4202 17.5327 15.6527 18.0314 16.0514 18.3966C16.4259 18.7396 16.9113 18.9284 17.4186 18.9284C17.9853 18.9284 18.5298 18.6886 18.9125 18.271C19.6666 17.4483 19.6105 16.1651 18.7872 15.4105C18.413 15.0677 17.9277 14.8789 17.4204 14.8789H17.4204ZM18.5747 17.9614C18.2784 18.2847 17.8572 18.4703 17.419 18.4703C17.0267 18.4703 16.6509 18.3241 16.3613 18.0587C16.0528 17.7761 15.8728 17.3906 15.8546 16.9726C15.8362 16.5546 15.982 16.1546 16.2646 15.8459C16.5609 15.5226 16.9821 15.3372 17.4204 15.3372C17.8126 15.3372 18.1883 15.4834 18.4777 15.7484C19.1147 16.3322 19.1582 17.3247 18.5747 17.9614ZM6.69049 7.07598C6.30782 7.49377 5.7636 7.73321 5.19697 7.73321V7.73325C4.68966 7.73325 4.20406 7.54432 3.82988 7.20131C3.00687 6.44735 2.95044 5.16402 3.70457 4.34054C4.08724 3.92287 4.63162 3.68359 5.19809 3.68359C5.7054 3.68359 6.191 3.87219 6.56518 4.21521C7.38819 4.96962 7.44462 6.25298 6.69049 7.07598ZM5.19791 4.1418C4.75947 4.1418 4.33831 4.32706 4.04229 4.65009H4.04228C3.45887 5.28706 3.50253 6.27995 4.13931 6.86337C4.42893 7.12871 4.80473 7.27496 5.19697 7.27496C5.63541 7.27496 6.05656 7.08971 6.35258 6.76668C6.936 6.12953 6.89234 5.13665 6.2554 4.55307C5.96595 4.28773 5.59047 4.1418 5.19791 4.1418ZM19.5924 9.01761L19.5274 9.01857C18.4117 9.05438 17.533 9.99104 17.5684 11.1067C17.6028 12.206 18.491 13.0674 19.5907 13.0674L19.6562 13.0663C20.1965 13.0494 20.6982 12.8227 21.0682 12.428C21.4386 12.0334 21.6328 11.5186 21.6154 10.978C21.5805 9.87879 20.692 9.01758 19.5924 9.01758L19.5924 9.01761ZM20.7343 12.1145C20.4479 12.4195 20.06 12.595 19.6415 12.6082L19.5907 12.6088C18.74 12.6088 18.0532 11.9428 18.0264 11.092C17.999 10.2289 18.679 9.504 19.5419 9.47638L19.5926 9.47574C20.4433 9.47574 21.1306 10.1421 21.1576 10.9926C21.1709 11.4111 21.0208 11.8094 20.7343 12.1145ZM3.0262 9.54492C4.12555 9.54492 5.01379 10.4061 5.04863 11.5055L5.04863 11.5055C5.06573 12.0457 4.87169 12.5607 4.50134 12.9554C4.13132 13.3497 3.62974 13.5763 3.08916 13.5933L3.02347 13.5944C1.92424 13.5944 1.03604 12.7335 1.00104 11.6343C0.965723 10.5182 1.84469 9.58136 2.96066 9.54588L3.0262 9.54492ZM3.02366 13.136L3.07481 13.1354H3.07481C3.49296 13.1221 3.88119 12.9467 4.1673 12.6421C4.45357 12.3366 4.60382 11.9383 4.59056 11.5202C4.56371 10.6695 3.87657 10.0035 3.02624 10.0035L2.97542 10.0041C2.11212 10.0316 1.43185 10.7562 1.45935 11.6198C1.48652 12.47 2.1735 13.136 3.02366 13.136ZM13.7288 8.32083L13.7293 8.32558C13.7315 8.351 13.7392 8.37481 13.7494 8.39751C13.7521 8.40374 13.7553 8.40918 13.7588 8.41509C13.7692 8.43395 13.782 8.4509 13.7969 8.46592C13.7985 8.4675 13.7999 8.4691 13.8012 8.47068C13.8035 8.47326 13.8057 8.47579 13.8085 8.47807C13.8258 8.49293 13.8448 8.50604 13.8662 8.51547C13.8676 8.51603 13.869 8.51619 13.8705 8.51635C13.8719 8.51651 13.8734 8.51667 13.8747 8.51723C13.8762 8.51777 13.8774 8.51865 13.8785 8.51952C13.8798 8.52045 13.881 8.52137 13.8826 8.52186L14.8622 8.86072C14.887 8.86935 14.9124 8.87351 14.9371 8.87351C15.0321 8.87351 15.121 8.81389 15.1537 8.71926C15.1951 8.5997 15.1315 8.46912 15.0121 8.42772L14.4309 8.2268L15.3363 7.52112C15.4363 7.44344 15.4541 7.29927 15.3764 7.19969C15.2985 7.09979 15.1544 7.08189 15.055 7.15989L14.1487 7.86606L14.1059 7.38416C14.0947 7.25821 13.9818 7.16758 13.8575 7.17605C13.7312 7.18724 13.6382 7.29849 13.6494 7.42444L13.7288 8.32019V8.32083ZM8.21015 13.5726C8.2109 13.5736 8.21168 13.5745 8.21221 13.5757L8.60671 14.5342C8.65482 14.6514 8.5992 14.7851 8.48204 14.8333C8.45343 14.8451 8.42386 14.8505 8.39493 14.8505C8.30494 14.8505 8.21942 14.7971 8.18298 14.7084L7.94898 14.1397L7.16256 15.2759C7.11813 15.3403 7.04652 15.3747 6.97396 15.3747C6.92904 15.3747 6.88365 15.3614 6.84385 15.3339C6.73979 15.2617 6.7139 15.1189 6.78583 15.0149L7.57207 13.8787L7.08887 13.8634C6.96227 13.8597 6.86286 13.7537 6.86701 13.6273C6.87085 13.5006 6.9765 13.3919 7.10325 13.4054L8.0073 13.4341C8.0332 13.4347 8.05749 13.4411 8.08115 13.45C8.08547 13.4518 8.08945 13.4537 8.09352 13.4557L8.09809 13.4579C8.11807 13.4673 8.13613 13.4795 8.15243 13.4942C8.15405 13.4956 8.15573 13.497 8.15741 13.4983C8.15969 13.5001 8.16198 13.5019 8.1641 13.5041C8.18009 13.5202 8.19431 13.5386 8.20486 13.5597C8.20569 13.5614 8.20622 13.5633 8.20676 13.5651C8.20726 13.5669 8.20777 13.5686 8.20854 13.5704C8.20896 13.5712 8.20955 13.5719 8.21015 13.5726ZM11.1338 5.15528H11.1327C11.0068 5.15528 10.9043 5.25709 10.9035 5.3832L10.8968 6.68126L10.491 6.41689C10.3848 6.34768 10.2427 6.37789 10.1739 6.48386C10.1048 6.59 10.1349 6.73209 10.2408 6.80098L10.9988 7.29454C11 7.29534 11.0014 7.29586 11.0027 7.29638C11.004 7.2969 11.0053 7.29741 11.0066 7.29821C11.0189 7.30557 11.0318 7.31132 11.0451 7.31612L11.0522 7.31895C11.056 7.32051 11.0597 7.32207 11.0637 7.32315C11.0828 7.32826 11.1027 7.33146 11.1225 7.33162L11.1239 7.33178L11.1254 7.33162C11.1449 7.33162 11.164 7.32858 11.1831 7.32331C11.1869 7.32236 11.1906 7.32072 11.1944 7.31908C11.1969 7.31797 11.1995 7.31686 11.2021 7.31596L11.2104 7.31308C11.2178 7.3106 11.2252 7.30812 11.2321 7.30429C11.2335 7.30349 11.2347 7.30253 11.2359 7.30157C11.2371 7.30061 11.2383 7.29965 11.2396 7.29885L11.2415 7.29796L11.2431 7.29739C11.2446 7.29685 11.246 7.29632 11.2475 7.29534L12.1191 6.73447C12.2257 6.6659 12.2564 6.52428 12.1878 6.41783C12.1192 6.31122 11.9775 6.28053 11.8712 6.3491L11.3549 6.6814L11.3616 5.38576C11.3626 5.25901 11.2603 5.15591 11.1338 5.15527L11.1338 5.15528ZM11.1189 17.1692H11.1153L11.1152 17.1693C10.9888 17.1672 10.8878 17.0631 10.8899 16.9372L10.9094 15.6393L10.4986 15.8952C10.3913 15.962 10.25 15.9295 10.1831 15.8218C10.1163 15.7144 10.149 15.5733 10.2564 15.5063L11.0196 15.0308H11.0198L11.024 15.0281C11.0457 15.0145 11.0695 15.006 11.0938 15.0006C11.0984 14.9995 11.103 14.9989 11.1076 14.9983L11.1128 14.9975C11.1341 14.9943 11.1557 14.9943 11.1772 14.9974C11.1796 14.9977 11.1818 14.9979 11.1841 14.998C11.1872 14.9983 11.1902 14.9985 11.1932 14.9991C11.2154 15.0041 11.2373 15.0114 11.2578 15.0229C11.2596 15.024 11.2611 15.0253 11.2627 15.0266L11.2648 15.0283L11.2669 15.0298L11.2687 15.0306L11.2695 15.0309L11.2711 15.0314C11.2717 15.0316 11.2723 15.0319 11.2728 15.0324L12.1328 15.6107C12.2378 15.6815 12.2656 15.8237 12.1949 15.9289C12.1508 15.9945 12.0781 16.0299 12.0046 16.0299C11.9603 16.0299 11.9162 16.0173 11.8767 15.9909L11.3676 15.6484L11.3481 16.9436C11.3461 17.0689 11.2438 17.1692 11.1189 17.1692ZM8.42566 6.94852C8.30195 6.94228 8.19326 7.04362 8.18894 7.16989L8.1688 7.78416L7.07902 7.02475C6.97528 6.95235 6.83239 6.97776 6.75998 7.08182C6.68758 7.18555 6.71299 7.3286 6.81704 7.40085L7.90776 8.16087L7.45975 8.34437C7.34259 8.39232 7.2868 8.5261 7.3346 8.64342C7.37104 8.73213 7.45655 8.78568 7.54686 8.78568C7.57579 8.78568 7.60504 8.78025 7.63365 8.76842L8.47072 8.42541L8.47184 8.42477C8.49566 8.41486 8.51627 8.40031 8.53514 8.38337C8.53957 8.37934 8.54333 8.37531 8.54726 8.37109L8.54726 8.37109L8.54952 8.36866C8.56391 8.35332 8.57589 8.33638 8.58549 8.31752L8.5888 8.31184L8.5888 8.31184C8.59037 8.30929 8.59192 8.30675 8.59332 8.30377C8.60227 8.28315 8.60866 8.26141 8.61138 8.23839C8.61163 8.23645 8.61148 8.2345 8.61133 8.23256C8.6112 8.23083 8.61107 8.2291 8.61122 8.22737C8.61122 8.22625 8.61158 8.22521 8.61194 8.22417L8.61194 8.22417C8.6123 8.22313 8.61266 8.22209 8.61266 8.22097L8.64686 7.18508C8.65118 7.05849 8.55208 6.95268 8.42565 6.94852L8.42566 6.94852ZM14.7079 14.4013L14.1309 14.611L15.1716 15.3961C15.2725 15.4724 15.2926 15.6161 15.2165 15.7171C15.1713 15.7764 15.1029 15.808 15.0332 15.808C14.9851 15.808 14.9366 15.7932 14.8952 15.762L13.8542 14.9766L13.8189 15.4591C13.8096 15.5854 13.699 15.6806 13.5739 15.6711C13.4476 15.6618 13.3528 15.5523 13.3619 15.426L13.4273 14.5287L13.4275 14.528L13.4276 14.5234C13.4296 14.498 13.4369 14.4742 13.4465 14.451C13.4487 14.4461 13.4512 14.4415 13.4538 14.4368L13.4538 14.4368L13.4556 14.4334C13.466 14.4142 13.4785 14.3965 13.4936 14.381L13.4984 14.3758C13.5002 14.3738 13.502 14.3718 13.504 14.3698C13.521 14.3546 13.54 14.3412 13.5616 14.3313C13.5635 14.3304 13.5654 14.3299 13.5674 14.3294L13.5692 14.3289C13.5703 14.3286 13.5715 14.3283 13.5726 14.3278C13.5744 14.3271 13.5758 14.3252 13.5779 14.3246L14.5515 13.9709C14.671 13.9277 14.8018 13.9889 14.8449 14.1078C14.8882 14.2268 14.8269 14.3581 14.7079 14.4013ZM15.6414 12.2058C15.748 12.1372 15.7789 11.9955 15.7106 11.8892L15.4486 11.4817L16.7467 11.4845H16.7472C16.8736 11.4845 16.9761 11.3823 16.9764 11.2557C16.9766 11.1293 16.8744 11.0264 16.7477 11.0262L15.3943 11.0235L15.6566 10.4834C15.7118 10.3696 15.6645 10.2325 15.5505 10.1773C15.4368 10.1222 15.2995 10.1695 15.2444 10.2831L14.8226 11.1518C14.8217 11.1537 14.8214 11.1557 14.821 11.1577C14.8207 11.1594 14.8204 11.161 14.8199 11.1625C14.8107 11.1838 14.8052 11.2059 14.8029 11.2285L14.802 11.2358C14.8015 11.2397 14.801 11.2436 14.8008 11.2476C14.8004 11.2735 14.8036 11.2994 14.8119 11.3241C14.8125 11.3261 14.8134 11.3279 14.8143 11.3297C14.8152 11.3313 14.8161 11.3329 14.8167 11.3347C14.8219 11.3489 14.8274 11.3628 14.8357 11.3758L15.3246 12.1369C15.3684 12.2052 15.4424 12.2423 15.5179 12.2423C15.5602 12.2419 15.6031 12.2303 15.6414 12.2058ZM6.38902 12.1327C6.34586 12.1327 6.30175 12.1203 6.26307 12.0949L6.26307 12.0949C6.15742 12.0252 6.12833 11.8831 6.19818 11.7768L6.4651 11.3724L5.39562 11.3607C5.26903 11.3591 5.16753 11.2555 5.16897 11.1291C5.17025 11.0025 5.28117 10.9063 5.40057 10.9025L6.46797 10.9141L6.13887 10.3958C6.0711 10.289 6.10274 10.1474 6.20952 10.0796C6.31677 10.0119 6.45791 10.0435 6.52568 10.1503L6.52584 10.1504L6.5984 10.265L7.08079 11.0251C7.08134 11.026 7.08162 11.0271 7.08189 11.0282C7.08218 11.0293 7.08246 11.0304 7.08303 11.0313C7.08389 11.0326 7.0849 11.0338 7.0859 11.035C7.08731 11.0367 7.08871 11.0383 7.08974 11.0404C7.10077 11.0613 7.10748 11.0834 7.1118 11.1058C7.11188 11.1066 7.11224 11.1073 7.1126 11.1081C7.11296 11.1089 7.11331 11.1096 7.11339 11.1104C7.11383 11.1125 7.11361 11.1146 7.11339 11.1167C7.1132 11.1185 7.11301 11.1203 7.11323 11.1221C7.11579 11.1435 7.11531 11.1649 7.11164 11.1862C7.11134 11.1879 7.11142 11.1898 7.1115 11.1917C7.11159 11.194 7.11168 11.1962 7.11116 11.1983C7.11084 11.1996 7.1102 11.2008 7.10956 11.202C7.10892 11.2032 7.10828 11.2044 7.10796 11.2057C7.10173 11.2298 7.0931 11.2535 7.07887 11.2747L7.07615 11.2789L6.58034 12.0298C6.53639 12.0965 6.4635 12.1327 6.38902 12.1327ZM13.0867 13.0982C13.0867 12.257 12.5038 11.488 11.6689 11.2279L11.6675 11.2321C11.5614 11.1995 11.4441 11.2441 11.3943 11.3477L11.1915 11.7698L10.9845 11.3278C10.9374 11.2274 10.8269 11.1819 10.723 11.207L10.7219 11.2023C9.84134 11.4202 9.20216 12.2176 9.20216 13.098V13.4522H13.0864L13.0867 13.0982ZM9.66472 12.9941C9.70787 12.4234 10.1039 11.9157 10.656 11.7062L10.9816 12.4011C11.0192 12.4815 11.0996 12.5327 11.1881 12.5331H11.1893C11.2773 12.5331 11.3577 12.4825 11.3958 12.4035L11.7156 11.7383C12.2209 11.9702 12.5823 12.463 12.6246 12.9942L9.66472 12.9941ZM12.5439 9.57958C12.5439 10.3511 11.9163 10.9788 11.145 10.9788C10.3738 10.9788 9.7461 10.3511 9.7461 9.57958C9.7461 8.80835 10.3735 8.18066 11.145 8.18066C11.9163 8.18066 12.5439 8.80807 12.5439 9.57958ZM12.0857 9.57938C12.0857 9.06086 11.6639 8.63875 11.145 8.63875C10.6265 8.63875 10.2044 9.06086 10.2044 9.57938C10.2044 10.0981 10.6265 10.5202 11.145 10.5202C11.6635 10.5202 12.0857 10.0982 12.0857 9.57938Z" fill="black"/>
<path d="M10.9903 5.04955L10.9845 5.14955H10.9903V5.04955ZM11.069 5.04795L11.0651 4.94803L11.0647 4.94804L11.069 5.04795ZM10.9903 5.04955L10.9961 4.94955H10.9903V5.04955ZM8.96833 3.10208L9.06826 3.09825L9.06826 3.09824L8.96833 3.10208ZM9.5062 1.64865L9.43286 1.58068L9.43284 1.5807L9.5062 1.64865ZM10.9145 1.00132L10.911 0.901387L10.9107 0.901397L10.9145 1.00132ZM13.0151 2.9472L13.1151 2.94343L13.115 2.94334L13.0151 2.9472ZM9.84235 1.96021L9.91077 2.03351L9.91572 2.02816L9.84235 1.96021ZM10.9316 1.45929L10.9285 1.35933L10.9278 1.35936L10.9316 1.45929ZM9.84233 1.96024L9.77391 1.88694L9.76896 1.89228L9.84233 1.96024ZM9.4261 3.08468L9.32618 3.08849L9.32618 3.08852L9.4261 3.08468ZM11.0512 4.59019L11.0549 4.69012L11.055 4.69011L11.0512 4.59019ZM12.5569 2.96478L12.6568 2.96099L12.6568 2.96095L12.5569 2.96478ZM11.548 17.5637L11.5518 17.6636L11.5796 17.4688L11.548 17.5637ZM10.14 18.211L10.0666 18.1431L10.0666 18.1431L10.14 18.211ZM11.548 17.5637L11.5434 17.4638L11.5163 17.6586L11.548 17.5637ZM13.6487 19.5097L13.7486 19.5059L13.7486 19.5059L13.6487 19.5097ZM11.7028 21.6103L11.699 21.5104L11.6986 21.5104L11.7028 21.6103ZM9.6021 19.6645L9.50217 19.6683L9.50217 19.6683L9.6021 19.6645ZM11.6854 21.1527L11.7717 21.2033L11.8635 21.0467L11.6821 21.0527L11.6854 21.1527ZM10.06 19.6472L9.96011 19.651L9.96011 19.651L10.06 19.6472ZM11.6854 21.1527L11.5992 21.1022L11.5068 21.2596L11.6892 21.2526L11.6854 21.1527ZM13.1906 19.5273L13.2905 19.5235L13.2905 19.5235L13.1906 19.5273ZM11.5652 18.0217L11.562 17.9217L11.5613 17.9217L11.5652 18.0217ZM10.4759 18.5227L10.5493 18.5907L10.5493 18.5907L10.4759 18.5227ZM18.5936 6.86526L18.5228 6.79466L18.5228 6.79468L18.5936 6.86526ZM17.1592 7.46083L17.0624 7.43581L17.0301 7.56083H17.1592V7.46083ZM19.1844 5.43246L19.2844 5.43229L19.2844 5.43226L19.1844 5.43246ZM18.5888 4.00191L18.5182 4.07271L18.5183 4.07276L18.5888 4.00191ZM15.7253 4.0067L15.7962 4.07728L15.7962 4.07728L15.7253 4.0067ZM15.73 6.87034L15.6594 6.94115L15.6594 6.94118L15.73 6.87034ZM17.1592 7.46079L17.2561 7.48581L17.2884 7.36079H17.1592V7.46079ZM16.05 4.33008L15.9792 4.25944L15.8089 4.43008H16.05V4.33008ZM18.2655 4.3264L18.1949 4.39718L18.1949 4.39722L18.2655 4.3264ZM18.7263 5.43312L18.8263 5.43296L18.8263 5.43288L18.7263 5.43312ZM18.2694 6.54143L18.1986 6.47082L18.1986 6.47082L18.2694 6.54143ZM16.0535 6.54528L16.1241 6.47446L16.1241 6.47445L16.0535 6.54528ZM16.05 4.33008L16.1209 4.40067L16.2909 4.23008H16.05V4.33008ZM4.02438 15.7469L4.0952 15.8175L4.09526 15.8175L4.02438 15.7469ZM6.8879 15.7421L6.81729 15.813L6.81731 15.813L6.8879 15.7421ZM7.48314 17.1727L7.58314 17.1725L7.58314 17.1725L7.48314 17.1727ZM6.89236 18.6053L6.96319 18.6759L6.9632 18.6759L6.89236 18.6053ZM4.02917 18.6103L4.09978 18.5395L4.09975 18.5394L4.02917 18.6103ZM3.4336 17.1796L3.5336 17.1795L3.5336 17.1794L3.4336 17.1796ZM6.56788 18.2816L6.63872 18.3522L6.80866 18.1816H6.56788V18.2816ZM6.56783 18.2816L6.49703 18.211L6.32687 18.3816H6.56783V18.2816ZM7.02481 17.1733L7.12481 17.1732L7.12481 17.1731L7.02481 17.1733ZM6.56415 16.0666L6.49355 16.1374L6.49356 16.1374L6.56415 16.0666ZM4.34883 16.0704L4.41961 16.1411L4.41967 16.141L4.34883 16.0704ZM3.89169 17.1788L3.99169 17.1786L3.89169 17.1788ZM4.35251 18.2858L4.42312 18.215L4.42309 18.215L4.35251 18.2858ZM15.9265 15.5361L16.0003 15.6037L16.0003 15.6037L15.9265 15.5361ZM15.3965 16.9924L15.4964 16.9881L15.4964 16.988L15.3965 16.9924ZM16.0514 18.3966L15.9838 18.4703L15.9838 18.4703L16.0514 18.3966ZM18.9125 18.271L18.8388 18.2034L18.8388 18.2034L18.9125 18.271ZM18.7872 15.4105L18.8547 15.3368L18.8547 15.3368L18.7872 15.4105ZM18.5747 17.9614L18.6485 18.0289L18.6485 18.0289L18.5747 17.9614ZM16.3613 18.0587L16.4289 17.985L16.4288 17.985L16.3613 18.0587ZM15.8546 16.9726L15.9545 16.9683L15.9545 16.9682L15.8546 16.9726ZM16.2646 15.8459L16.1909 15.7784L16.1909 15.7784L16.2646 15.8459ZM18.4777 15.7484L18.5453 15.6747L18.5453 15.6747L18.4777 15.7484ZM5.19697 7.73321V7.63321H5.09697V7.73321H5.19697ZM6.69049 7.07598L6.61676 7.00842L6.61675 7.00843L6.69049 7.07598ZM5.19697 7.73325V7.83325H5.29697V7.73325H5.19697ZM3.82988 7.20131L3.89746 7.1276L3.89743 7.12757L3.82988 7.20131ZM3.70457 4.34054L3.63084 4.27299L3.63082 4.273L3.70457 4.34054ZM6.56518 4.21521L6.4976 4.28892L6.4976 4.28892L6.56518 4.21521ZM4.04229 4.65009V4.75009H4.08629L4.11601 4.71765L4.04229 4.65009ZM4.04228 4.65009V4.55009H3.99827L3.96854 4.58255L4.04228 4.65009ZM4.13931 6.86337L4.07175 6.9371L4.07175 6.9371L4.13931 6.86337ZM6.35258 6.76668L6.42631 6.83424L6.42634 6.83421L6.35258 6.76668ZM6.2554 4.55307L6.18783 4.62678L6.18785 4.6268L6.2554 4.55307ZM19.5274 9.01857L19.5259 8.91857L19.5242 8.91863L19.5274 9.01857ZM19.5924 9.01761L19.5939 9.1176L19.7149 9.11582L19.6904 8.99733L19.5924 9.01761ZM17.5684 11.1067L17.6684 11.1036L17.6684 11.1035L17.5684 11.1067ZM19.5907 13.0674V13.1674L19.5924 13.1674L19.5907 13.0674ZM19.6562 13.0663L19.6579 13.1663L19.6594 13.1662L19.6562 13.0663ZM21.0682 12.428L20.9953 12.3596L20.9953 12.3597L21.0682 12.428ZM21.6154 10.978L21.5154 10.9811L21.5154 10.9812L21.6154 10.978ZM19.5924 9.01758V8.91758H19.4696L19.4945 9.03786L19.5924 9.01758ZM19.6415 12.6082L19.6428 12.7082L19.6447 12.7082L19.6415 12.6082ZM20.7343 12.1145L20.8072 12.1829L20.8072 12.1829L20.7343 12.1145ZM19.5907 12.6088V12.7089L19.5919 12.7088L19.5907 12.6088ZM18.0264 11.092L18.1263 11.0888L18.1263 11.0888L18.0264 11.092ZM19.5419 9.47638L19.5407 9.37637L19.5387 9.37643L19.5419 9.47638ZM19.5926 9.47574V9.37573L19.5914 9.37575L19.5926 9.47574ZM21.1576 10.9926L21.2575 10.9894L21.2575 10.9894L21.1576 10.9926ZM5.04863 11.5055L4.94916 11.5158L5.14858 11.5023L5.04863 11.5055ZM3.0262 9.54492L3.0262 9.44491L3.02473 9.44493L3.0262 9.54492ZM5.04863 11.5055L5.1481 11.4952L4.94868 11.5086L5.04863 11.5055ZM4.50134 12.9554L4.42842 12.8869L4.42842 12.8869L4.50134 12.9554ZM3.08916 13.5933L3.09087 13.6933L3.0923 13.6932L3.08916 13.5933ZM3.02347 13.5944L3.02347 13.6944L3.02517 13.6944L3.02347 13.5944ZM1.00104 11.6343L0.901085 11.6375L0.901086 11.6375L1.00104 11.6343ZM2.96066 9.54588L2.9592 9.44588L2.95748 9.44593L2.96066 9.54588ZM3.07481 13.1354V13.0353L3.07356 13.0354L3.07481 13.1354ZM3.02366 13.136V13.236L3.02491 13.236L3.02366 13.136ZM3.07481 13.1354L3.07481 13.2354L3.07799 13.2353L3.07481 13.1354ZM4.1673 12.6421L4.24019 12.7105L4.24026 12.7105L4.1673 12.6421ZM4.59056 11.5202L4.49061 11.5233L4.49061 11.5233L4.59056 11.5202ZM3.02624 10.0035L3.02624 9.90349L3.02499 9.9035L3.02624 10.0035ZM2.97542 10.0041L2.97416 9.90412L2.97223 9.90418L2.97542 10.0041ZM1.45935 11.6198L1.3594 11.6229L1.3594 11.623L1.45935 11.6198ZM13.7293 8.32558L13.8289 8.31681L13.8288 8.31577L13.7293 8.32558ZM13.7288 8.32083H13.6283L13.6293 8.33064L13.7288 8.32083ZM13.7494 8.39751L13.8411 8.35754L13.8406 8.35642L13.7494 8.39751ZM13.7588 8.41509L13.8465 8.36682L13.8448 8.36399L13.7588 8.41509ZM13.7969 8.46592L13.7258 8.53625L13.7262 8.53664L13.7969 8.46592ZM13.8012 8.47068L13.7258 8.53633L13.7258 8.53633L13.8012 8.47068ZM13.8085 8.47807L13.8739 8.40223L13.8707 8.39972L13.8085 8.47807ZM13.8662 8.51547L13.8259 8.60702L13.8282 8.60794L13.8662 8.51547ZM13.8705 8.51635L13.8815 8.41696L13.8815 8.41696L13.8705 8.51635ZM13.8747 8.51723L13.8366 8.60977L13.8402 8.61106L13.8747 8.51723ZM13.8785 8.51952L13.8185 8.59948L13.8185 8.5995L13.8785 8.51952ZM13.8826 8.52186L13.9153 8.42732L13.9127 8.42651L13.8826 8.52186ZM14.8622 8.86072L14.8951 8.76628L14.8949 8.76621L14.8622 8.86072ZM15.1537 8.71926L15.2482 8.75199L15.2482 8.75198L15.1537 8.71926ZM15.0121 8.42772L15.0449 8.33324L15.0448 8.33321L15.0121 8.42772ZM14.4309 8.2268L14.3695 8.14793L14.2242 8.26114L14.3983 8.32131L14.4309 8.2268ZM15.3363 7.52112L15.2749 7.44213L15.2748 7.44225L15.3363 7.52112ZM15.3764 7.19969L15.2975 7.26115L15.2975 7.26119L15.3764 7.19969ZM15.055 7.15989L15.1164 7.23877L15.1167 7.23856L15.055 7.15989ZM14.1487 7.86606L14.0491 7.87491L14.0653 8.05778L14.2102 7.94494L14.1487 7.86606ZM14.1059 7.38416L14.0062 7.39301L14.0062 7.39302L14.1059 7.38416ZM13.8575 7.17605L13.8507 7.07626L13.8486 7.07644L13.8575 7.17605ZM13.6494 7.42444L13.749 7.41561L13.749 7.41559L13.6494 7.42444ZM13.7288 8.32019H13.8292L13.8284 8.31135L13.7288 8.32019ZM8.21221 13.5757L8.30477 13.5376L8.30301 13.5338L8.21221 13.5757ZM8.21015 13.5726L8.13259 13.6358L8.1326 13.6358L8.21015 13.5726ZM8.60671 14.5342L8.69922 14.4962L8.69919 14.4961L8.60671 14.5342ZM8.48204 14.8333L8.44405 14.7408L8.44383 14.7408L8.48204 14.8333ZM8.18298 14.7084L8.27548 14.6704L8.27546 14.6704L8.18298 14.7084ZM7.94898 14.1397L8.04145 14.1017L7.97145 13.9316L7.86675 14.0828L7.94898 14.1397ZM7.16256 15.2759L7.08034 15.219L7.08025 15.2191L7.16256 15.2759ZM6.84385 15.3339L6.78681 15.416L6.78701 15.4162L6.84385 15.3339ZM6.78583 15.0149L6.7036 14.958L6.70356 14.958L6.78583 15.0149ZM7.57207 13.8787L7.6543 13.9356L7.75882 13.7846L7.57525 13.7788L7.57207 13.8787ZM7.08887 13.8634L7.09204 13.7634L7.09177 13.7634L7.08887 13.8634ZM6.86701 13.6273L6.96696 13.6306L6.96697 13.6303L6.86701 13.6273ZM7.10325 13.4054L7.09256 13.5052L7.10009 13.5054L7.10325 13.4054ZM8.0073 13.4341L8.00414 13.534L8.00484 13.534L8.0073 13.4341ZM8.08115 13.45L8.11874 13.3573L8.11654 13.3565L8.08115 13.45ZM8.09352 13.4557L8.05003 13.5457L8.0503 13.5459L8.09352 13.4557ZM8.09809 13.4579L8.05486 13.5481L8.0554 13.5483L8.09809 13.4579ZM8.15243 13.4942L8.22001 13.4204L8.21941 13.4199L8.15243 13.4942ZM8.15741 13.4983L8.21908 13.4196L8.21908 13.4196L8.15741 13.4983ZM8.1641 13.5041L8.09189 13.5733L8.09304 13.5744L8.1641 13.5041ZM8.20486 13.5597L8.29516 13.5167L8.2943 13.515L8.20486 13.5597ZM8.20676 13.5651L8.11068 13.5929L8.11068 13.5929L8.20676 13.5651ZM8.20854 13.5704L8.11646 13.6104L8.12074 13.6183L8.20854 13.5704ZM11.1338 5.15528V5.25528H11.3369L11.2131 5.09431L11.1338 5.15528ZM10.9035 5.3832L10.8035 5.38257L10.8035 5.38269L10.9035 5.3832ZM10.8968 6.68126L10.8422 6.76505L10.9959 6.86513L10.9968 6.68178L10.8968 6.68126ZM10.491 6.41689L10.4364 6.50065L10.4364 6.50068L10.491 6.41689ZM10.1739 6.48386L10.2577 6.5384L10.2577 6.53837L10.1739 6.48386ZM10.2408 6.80098L10.2954 6.71718L10.2953 6.71714L10.2408 6.80098ZM10.9988 7.29454L10.9442 7.37835L10.9458 7.37934L10.9988 7.29454ZM11.0027 7.29638L10.966 7.38941L10.966 7.38942L11.0027 7.29638ZM11.0066 7.29821L10.9536 7.38303L10.9553 7.38406L11.0066 7.29821ZM11.0451 7.31612L11.0821 7.22314L11.0791 7.22207L11.0451 7.31612ZM11.0522 7.31895L11.0907 7.22663L11.0892 7.22602L11.0522 7.31895ZM11.0637 7.32315L11.0371 7.41957L11.0379 7.41977L11.0637 7.32315ZM11.1225 7.33162L11.1336 7.23171L11.1233 7.23162L11.1225 7.33162ZM11.1239 7.33178L11.1129 7.43117L11.1239 7.4324L11.135 7.43117L11.1239 7.33178ZM11.1254 7.33162V7.231L11.1143 7.23223L11.1254 7.33162ZM11.1831 7.32331L11.1588 7.22626L11.1563 7.22694L11.1831 7.32331ZM11.1944 7.31908L11.2343 7.41078L11.2343 7.41077L11.1944 7.31908ZM11.2021 7.31596L11.1694 7.22144L11.169 7.22157L11.2021 7.31596ZM11.2104 7.31308L11.1785 7.21828L11.1777 7.21856L11.2104 7.31308ZM11.2321 7.30429L11.2803 7.39195L11.2828 7.39048L11.2321 7.30429ZM11.2396 7.29885L11.1969 7.20795L11.1889 7.21266L11.2396 7.29885ZM11.2415 7.29796L11.2065 7.20396L11.199 7.20745L11.2415 7.29796ZM11.2431 7.29739L11.2092 7.20329L11.2081 7.20369L11.2431 7.29739ZM11.2475 7.29534L11.1933 7.2112L11.1908 7.21294L11.2475 7.29534ZM12.1191 6.73447L12.065 6.65036L12.065 6.65037L12.1191 6.73447ZM12.1878 6.41783L12.1037 6.47192L12.1037 6.47198L12.1878 6.41783ZM11.8712 6.3491L11.9253 6.43318L11.9254 6.43313L11.8712 6.3491ZM11.3549 6.6814L11.2549 6.68088L11.2539 6.86531L11.409 6.76549L11.3549 6.6814ZM11.3616 5.38576L11.2616 5.385L11.2616 5.38524L11.3616 5.38576ZM11.1338 5.15527L11.1343 5.05527L10.93 5.05424L11.0546 5.21624L11.1338 5.15527ZM11.1153 17.1692V17.0692H11.0815L11.0547 17.0897L11.1153 17.1692ZM11.1152 17.1693L11.1136 17.2692L11.1483 17.2698L11.1758 17.2488L11.1152 17.1693ZM10.8899 16.9372L10.9899 16.9388L10.9899 16.9387L10.8899 16.9372ZM10.9094 15.6393L11.0094 15.6408L11.0121 15.4575L10.8565 15.5544L10.9094 15.6393ZM10.4986 15.8952L10.5515 15.9801L10.5515 15.9801L10.4986 15.8952ZM10.1831 15.8218L10.268 15.769L10.268 15.769L10.1831 15.8218ZM10.2564 15.5063L10.2036 15.4214L10.2035 15.4214L10.2564 15.5063ZM11.0196 15.0308V14.9308H10.991L10.9668 14.9459L11.0196 15.0308ZM11.0198 15.0308V15.1308H11.0496L11.0745 15.1145L11.0198 15.0308ZM11.024 15.0281L10.9709 14.9432L10.9692 14.9444L11.024 15.0281ZM11.0938 15.0006L11.1156 15.0982L11.1158 15.0981L11.0938 15.0006ZM11.1076 14.9983L11.1211 15.0974L11.1216 15.0973L11.1076 14.9983ZM11.1128 14.9975L11.1268 15.0966L11.1277 15.0964L11.1128 14.9975ZM11.1772 14.9974L11.1918 14.8984L11.1912 14.8984L11.1772 14.9974ZM11.1841 14.998L11.1914 14.8983L11.1914 14.8983L11.1841 14.998ZM11.1932 14.9991L11.215 14.9015L11.214 14.9013L11.1932 14.9991ZM11.2578 15.0229L11.3105 14.9379L11.3068 14.9358L11.2578 15.0229ZM11.2627 15.0266L11.1991 15.1038L11.1999 15.1045L11.2627 15.0266ZM11.2648 15.0283L11.202 15.1063L11.2066 15.1096L11.2648 15.0283ZM11.2669 15.0298L11.2087 15.1111L11.2169 15.117L11.2261 15.1211L11.2669 15.0298ZM11.2687 15.0306L11.2276 15.1225L11.2389 15.1261L11.2687 15.0306ZM11.2695 15.0309L11.3011 14.936L11.2993 14.9354L11.2695 15.0309ZM11.2711 15.0314L11.3077 14.9382L11.3026 14.9365L11.2711 15.0314ZM11.2728 15.0324L11.2092 15.1101L11.217 15.1154L11.2728 15.0324ZM12.1328 15.6107L12.1887 15.5278L12.1886 15.5277L12.1328 15.6107ZM12.1949 15.9289L12.2779 15.9848L12.278 15.9847L12.1949 15.9289ZM11.8767 15.9909L11.8209 16.0739L11.8212 16.0741L11.8767 15.9909ZM11.3676 15.6484L11.4235 15.5654L11.2704 15.4625L11.2677 15.6469L11.3676 15.6484ZM11.3481 16.9436L11.4481 16.9452L11.4481 16.9451L11.3481 16.9436ZM8.18894 7.16989L8.089 7.16648L8.08899 7.16662L8.18894 7.16989ZM8.42566 6.94852L8.48427 7.02954L8.71456 6.86295L8.43069 6.84864L8.42566 6.94852ZM8.1688 7.78416L8.11163 7.8662L8.26271 7.97149L8.26875 7.78744L8.1688 7.78416ZM7.07902 7.02475L7.02178 7.10676L7.02185 7.1068L7.07902 7.02475ZM6.75998 7.08182L6.84198 7.13905L6.84206 7.13894L6.75998 7.08182ZM6.81704 7.40085L6.87421 7.31881L6.87408 7.31871L6.81704 7.40085ZM7.90776 8.16087L7.94567 8.25341L8.1156 8.18381L7.96494 8.07883L7.90776 8.16087ZM7.45975 8.34437L7.49763 8.43691L7.49765 8.4369L7.45975 8.34437ZM7.3346 8.64342L7.24198 8.68115L7.2421 8.68142L7.3346 8.64342ZM7.63365 8.76842L7.59573 8.67588L7.59545 8.676L7.63365 8.76842ZM8.47072 8.42541L8.50896 8.51873L8.52033 8.51223L8.47072 8.42541ZM8.47184 8.42477L8.43312 8.33172L8.42223 8.33794L8.47184 8.42477ZM8.53514 8.38337L8.60196 8.45777L8.60241 8.45736L8.53514 8.38337ZM8.54726 8.37109L8.62042 8.43926L8.62058 8.43909L8.54726 8.37109ZM8.54726 8.37109L8.47417 8.30284L8.47394 8.30308L8.54726 8.37109ZM8.54952 8.36866L8.47657 8.30027L8.47643 8.30042L8.54952 8.36866ZM8.58549 8.31752L8.499 8.26697L8.49635 8.27219L8.58549 8.31752ZM8.5888 8.31184L8.50319 8.26015L8.50247 8.26138L8.5888 8.31184ZM8.5888 8.31184L8.50352 8.25962L8.5032 8.26015L8.5888 8.31184ZM8.59332 8.30377L8.6839 8.34624L8.68505 8.34359L8.59332 8.30377ZM8.61138 8.23839L8.51221 8.22546L8.51207 8.22667L8.61138 8.23839ZM8.61133 8.23256L8.71104 8.22491L8.71104 8.2249L8.61133 8.23256ZM8.61122 8.22737L8.71122 8.23606V8.22737H8.61122ZM8.61194 8.22417L8.51838 8.18874L8.51744 8.19147L8.61194 8.22417ZM8.61194 8.22417L8.7055 8.2596L8.70644 8.25687L8.61194 8.22417ZM8.61266 8.22097L8.51266 8.21767V8.22097H8.61266ZM8.64686 7.18508L8.54692 7.18167L8.54692 7.18178L8.64686 7.18508ZM8.42565 6.94852L8.36704 6.8675L8.13015 7.03887L8.42237 7.04847L8.42565 6.94852ZM14.1309 14.611L14.0967 14.517L13.9237 14.5799L14.0707 14.6908L14.1309 14.611ZM14.7079 14.4013L14.6738 14.3073L14.6738 14.3073L14.7079 14.4013ZM15.1716 15.3961L15.2319 15.3163L15.2318 15.3163L15.1716 15.3961ZM15.2165 15.7171L15.296 15.7777L15.2964 15.7772L15.2165 15.7171ZM14.8952 15.762L14.835 15.8418L14.8351 15.8419L14.8952 15.762ZM13.8542 14.9766L13.9145 14.8967L13.7679 14.7862L13.7545 14.9693L13.8542 14.9766ZM13.8189 15.4591L13.9186 15.4664L13.9187 15.4664L13.8189 15.4591ZM13.5739 15.6711L13.5815 15.5714L13.5812 15.5713L13.5739 15.6711ZM13.3619 15.426L13.2622 15.4188L13.2622 15.4188L13.3619 15.426ZM13.4273 14.5287L13.3303 14.5045L13.3282 14.5129L13.3276 14.5214L13.4273 14.5287ZM13.4275 14.528L13.5245 14.5522L13.5271 14.542L13.5274 14.5315L13.4275 14.528ZM13.4276 14.5234L13.3278 14.5159L13.3277 14.52L13.4276 14.5234ZM13.4465 14.451L13.3552 14.4102L13.3541 14.4128L13.4465 14.451ZM13.4538 14.4368L13.5415 14.4847L13.5416 14.4847L13.4538 14.4368ZM13.4538 14.4368L13.5416 14.4847L13.5416 14.4846L13.4538 14.4368ZM13.4556 14.4334L13.5434 14.4812L13.5435 14.4811L13.4556 14.4334ZM13.4936 14.381L13.5651 14.451L13.5672 14.4487L13.4936 14.381ZM13.4984 14.3758L13.572 14.4436L13.5734 14.442L13.4984 14.3758ZM13.504 14.3698L13.4373 14.2953L13.4349 14.2976L13.504 14.3698ZM13.5616 14.3313L13.6033 14.4222L13.6047 14.4215L13.5616 14.3313ZM13.5674 14.3294L13.5916 14.4264L13.5923 14.4263L13.5674 14.3294ZM13.5692 14.3289L13.5941 14.4258L13.5954 14.4254L13.5692 14.3289ZM13.5726 14.3278L13.5384 14.2336L13.5327 14.2361L13.5726 14.3278ZM13.5779 14.3246L13.6073 14.4203L13.612 14.4186L13.5779 14.3246ZM14.5515 13.9709L14.5175 13.8768L14.5173 13.8769L14.5515 13.9709ZM14.8449 14.1078L14.7509 14.142L14.751 14.1421L14.8449 14.1078ZM15.7106 11.8892L15.7948 11.8351L15.7947 11.8351L15.7106 11.8892ZM15.6414 12.2058L15.6952 12.2901L15.6955 12.2899L15.6414 12.2058ZM15.4486 11.4817L15.4489 11.3817L15.2652 11.3814L15.3645 11.5358L15.4486 11.4817ZM16.7467 11.4845L16.7465 11.5845H16.7467V11.4845ZM16.9764 11.2557L17.0764 11.256L17.0764 11.2559L16.9764 11.2557ZM16.7477 11.0262L16.7475 11.1262L16.7475 11.1262L16.7477 11.0262ZM15.3943 11.0235L15.3044 10.9798L15.2347 11.1232L15.3941 11.1235L15.3943 11.0235ZM15.6566 10.4834L15.7466 10.5271L15.7466 10.527L15.6566 10.4834ZM15.5505 10.1773L15.5068 10.2673L15.5069 10.2673L15.5505 10.1773ZM15.2444 10.2831L15.3344 10.3268L15.3344 10.3268L15.2444 10.2831ZM14.8226 11.1518L14.7326 11.1081L14.7315 11.1105L14.8226 11.1518ZM14.821 11.1577L14.7225 11.1406L14.7225 11.1406L14.821 11.1577ZM14.8199 11.1625L14.9118 11.202L14.9133 11.1981L14.8199 11.1625ZM14.8029 11.2285L14.9022 11.2404L14.9024 11.2384L14.8029 11.2285ZM14.802 11.2358L14.9012 11.2486L14.9013 11.2476L14.802 11.2358ZM14.8008 11.2476L14.7009 11.2426L14.7009 11.2457L14.8008 11.2476ZM14.8119 11.3241L14.9076 11.295L14.9067 11.2923L14.8119 11.3241ZM14.8143 11.3297L14.9029 11.2833L14.9029 11.2833L14.8143 11.3297ZM14.8167 11.3347L14.7222 11.3676L14.7229 11.3694L14.8167 11.3347ZM14.8357 11.3758L14.7515 11.4298L14.7515 11.4298L14.8357 11.3758ZM15.3246 12.1369L15.4088 12.0829L15.4087 12.0829L15.3246 12.1369ZM15.5179 12.2423V12.3423L15.5186 12.3423L15.5179 12.2423ZM6.26307 12.0949L6.17362 12.0501L6.13388 12.1296L6.20816 12.1784L6.26307 12.0949ZM6.26307 12.0949L6.35251 12.1396L6.39219 12.0602L6.31813 12.0114L6.26307 12.0949ZM6.19818 11.7768L6.11472 11.7217L6.11461 11.7219L6.19818 11.7768ZM6.4651 11.3724L6.54856 11.4275L6.64961 11.2744L6.4662 11.2724L6.4651 11.3724ZM5.39562 11.3607L5.39435 11.4607L5.39453 11.4607L5.39562 11.3607ZM5.16897 11.1291L5.26896 11.1303L5.26896 11.1301L5.16897 11.1291ZM5.40057 10.9025L5.40167 10.8024L5.39736 10.8025L5.40057 10.9025ZM6.46797 10.9141L6.46688 11.0141L6.65119 11.0161L6.55239 10.8605L6.46797 10.9141ZM6.13887 10.3958L6.05444 10.4494L6.05444 10.4494L6.13887 10.3958ZM6.20952 10.0796L6.1561 9.99508L6.15593 9.99519L6.20952 10.0796ZM6.52568 10.1503L6.44125 10.2039L6.44716 10.2132L6.45497 10.221L6.52568 10.1503ZM6.52584 10.1504L6.61032 10.0969L6.60439 10.0876L6.59655 10.0797L6.52584 10.1504ZM6.5984 10.265L6.51391 10.3185L6.51397 10.3186L6.5984 10.265ZM7.08079 11.0251L7.16723 10.9746L7.16522 10.9715L7.08079 11.0251ZM7.08189 11.0282L6.98498 11.0528L6.98498 11.0528L7.08189 11.0282ZM7.08303 11.0313L6.99865 11.085L6.99918 11.0858L7.08303 11.0313ZM7.0859 11.035L7.1624 10.9706L7.1624 10.9706L7.0859 11.035ZM7.08974 11.0404L7.00028 11.0851L7.00126 11.087L7.08974 11.0404ZM7.1118 11.1058L7.21171 11.0958L7.20999 11.0868L7.1118 11.1058ZM7.11339 11.1104L7.01333 11.1204L7.0155 11.1308L7.11339 11.1104ZM7.11339 11.1167L7.21286 11.127L7.21286 11.127L7.11339 11.1167ZM7.11323 11.1221L7.21253 11.1102L7.21246 11.1097L7.11323 11.1221ZM7.11164 11.1862L7.0131 11.1691L7.013 11.1697L7.11164 11.1862ZM7.1115 11.1917L7.21142 11.1877L7.21142 11.1877L7.1115 11.1917ZM7.11116 11.1983L7.20817 11.2226L7.20817 11.2226L7.11116 11.1983ZM7.10956 11.202L7.19779 11.2491L7.19779 11.2491L7.10956 11.202ZM7.10796 11.2057L7.20479 11.2307L7.20497 11.2299L7.10796 11.2057ZM7.07887 11.2747L6.99576 11.2191L6.99517 11.22L7.07887 11.2747ZM7.07615 11.2789L7.1596 11.334L7.15985 11.3336L7.07615 11.2789ZM6.58034 12.0298L6.49689 11.9747L6.49686 11.9748L6.58034 12.0298ZM11.6689 11.2279L11.6987 11.1325L11.6061 11.1036L11.5744 11.1952L11.6689 11.2279ZM13.0867 13.0982L13.1867 13.0983V13.0982H13.0867ZM11.6675 11.2321L11.6381 11.3277L11.7304 11.356L11.762 11.2648L11.6675 11.2321ZM11.3943 11.3477L11.4845 11.391L11.4845 11.3909L11.3943 11.3477ZM11.1915 11.7698L11.1009 11.8122L11.1903 12.0031L11.2816 11.8131L11.1915 11.7698ZM10.9845 11.3278L11.0751 11.2854L11.075 11.2853L10.9845 11.3278ZM10.723 11.207L10.6258 11.2304L10.6493 11.3277L10.7465 11.3042L10.723 11.207ZM10.7219 11.2023L10.8191 11.1789L10.7955 11.0811L10.6979 11.1053L10.7219 11.2023ZM9.20216 13.4522H9.10216V13.5522H9.20216V13.4522ZM13.0864 13.4522V13.5522H13.1863L13.1864 13.4523L13.0864 13.4522ZM10.656 11.7062L10.7466 11.6637L10.7073 11.5797L10.6206 11.6127L10.656 11.7062ZM9.66472 12.9941L9.565 12.9866L9.55687 13.0941L9.66471 13.0941L9.66472 12.9941ZM10.9816 12.4011L11.0722 12.3588L11.0722 12.3587L10.9816 12.4011ZM11.1881 12.5331L11.1876 12.6331H11.1881V12.5331ZM11.3958 12.4035L11.4859 12.4469L11.4859 12.4468L11.3958 12.4035ZM11.7156 11.7383L11.7573 11.6474L11.6681 11.6064L11.6255 11.6949L11.7156 11.7383ZM12.6246 12.9942L12.6246 13.0942L12.7329 13.0942L12.7243 12.9863L12.6246 12.9942ZM10.9903 5.14955C11.0176 5.14955 11.0452 5.14905 11.0732 5.14786L11.0647 4.94804C11.0399 4.94909 11.0152 4.94955 10.9903 4.94955V5.14955ZM10.9845 5.14938L10.9845 5.14938L10.9961 4.94972L10.9961 4.94972L10.9845 5.14938ZM8.86841 3.10591C8.91234 4.25157 9.8446 5.14955 10.9903 5.14955V4.94955C9.95222 4.94955 9.10808 4.13665 9.06826 3.09825L8.86841 3.10591ZM9.43284 1.5807C9.04736 1.99686 8.84664 2.53882 8.86841 3.10591L9.06826 3.09824C9.04853 2.58419 9.23011 2.09388 9.57957 1.71661L9.43284 1.5807ZM10.9107 0.901397C10.3436 0.923028 9.81848 1.16454 9.43286 1.58068L9.57955 1.71662C9.92915 1.33936 10.4043 1.12086 10.9183 1.10125L10.9107 0.901397ZM13.115 2.94334C13.0698 1.7706 12.0954 0.859502 10.911 0.901387L10.9181 1.10126C11.9922 1.06327 12.8742 1.88835 12.9152 2.95106L13.115 2.94334ZM11.0728 5.14788C12.2435 5.10292 13.1592 4.11424 13.1151 2.94343L12.9152 2.95097C12.9552 4.01152 12.1254 4.90731 11.0651 4.94803L11.0728 5.14788ZM9.91572 2.02816C10.182 1.74059 10.544 1.57431 10.9355 1.55921L10.9278 1.35936C10.4833 1.3765 10.0714 1.56574 9.76898 1.89226L9.91572 2.02816ZM9.91056 2.03334L9.91059 2.03332L9.77412 1.8871L9.77409 1.88713L9.91056 2.03334ZM9.52603 3.08086C9.51106 2.68907 9.64934 2.31576 9.91569 2.02819L9.76896 1.89228C9.4666 2.21874 9.30918 2.64367 9.32618 3.08849L9.52603 3.08086ZM11.0474 4.49026C10.2349 4.52079 9.55718 3.89107 9.52603 3.08083L9.32618 3.08852C9.36156 4.00896 10.132 4.7248 11.0549 4.69012L11.0474 4.49026ZM12.4569 2.96858C12.4876 3.77654 11.8548 4.45927 11.0473 4.49026L11.055 4.69011C11.9728 4.65489 12.6916 3.8793 12.6568 2.96099L12.4569 2.96858ZM10.9925 1.55817C11.7833 1.55817 12.4266 2.17737 12.4569 2.96862L12.6568 2.96095C12.6223 2.06243 11.8909 1.35817 10.9925 1.35817V1.55817ZM10.9348 1.55924C10.9548 1.55861 10.9739 1.55817 10.9925 1.55817V1.35817C10.9709 1.35817 10.9494 1.35868 10.9285 1.35934L10.9348 1.55924ZM11.5442 17.4638C10.9774 17.4854 10.4521 17.7269 10.0666 18.1431L10.2133 18.279C10.5628 17.9017 11.0381 17.6832 11.5518 17.6636L11.5442 17.4638ZM11.5163 17.6586L11.5164 17.6586L11.5796 17.4688L11.5796 17.4688L11.5163 17.6586ZM13.7486 19.5059C13.7037 18.3339 12.7303 17.4094 11.5434 17.4638L11.5525 17.6636C12.6257 17.6144 13.508 18.4497 13.5488 19.5136L13.7486 19.5059ZM11.7067 21.7103C12.877 21.6655 13.7931 20.6768 13.7486 19.5059L13.5488 19.5135C13.589 20.574 12.759 21.4698 11.699 21.5104L11.7067 21.7103ZM11.624 21.7119C11.6513 21.7119 11.6791 21.7114 11.7071 21.7102L11.6986 21.5104C11.6738 21.5115 11.6489 21.5119 11.624 21.5119V21.7119ZM9.50217 19.6683C9.54594 20.8141 10.4783 21.7119 11.624 21.7119V21.5119C10.5859 21.5119 9.74169 20.6991 9.70203 19.6606L9.50217 19.6683ZM10.0666 18.1431C9.68112 18.5594 9.48058 19.1012 9.50217 19.6683L9.70203 19.6606C9.68245 19.1466 9.86389 18.6564 10.2133 18.279L10.0666 18.1431ZM11.6821 21.0527C10.8627 21.0799 10.1911 20.4534 10.16 19.6433L9.96011 19.651C9.9955 20.5716 10.7599 21.2834 11.6887 21.2526L11.6821 21.0527ZM11.7717 21.2033L11.7717 21.2033L11.5992 21.1021L11.5992 21.1022L11.7717 21.2033ZM13.0907 19.5311C13.1217 20.3391 12.4892 21.022 11.6816 21.0528L11.6892 21.2526C12.6073 21.2176 13.3257 20.4418 13.2905 19.5235L13.0907 19.5311ZM11.6256 18.1205C12.4169 18.1205 13.0603 18.7401 13.0907 19.5312L13.2905 19.5235C13.256 18.6251 12.5245 17.9205 11.6256 17.9205V18.1205ZM11.5684 18.1216C11.5881 18.121 11.6073 18.1205 11.6256 18.1205V17.9205C11.6043 17.9205 11.5827 17.9211 11.562 17.9217L11.5684 18.1216ZM10.5493 18.5907C10.8155 18.3031 11.1774 18.1368 11.5691 18.1216L11.5613 17.9217C11.1168 17.939 10.7048 18.1283 10.4025 18.4548L10.5493 18.5907ZM10.16 19.6434C10.145 19.2517 10.2831 18.8782 10.5493 18.5907L10.4025 18.4548C10.1003 18.7813 9.94311 19.2064 9.96011 19.651L10.16 19.6434ZM18.5228 6.79468C18.1589 7.15994 17.6748 7.36083 17.1592 7.36083V7.56083C17.728 7.56083 18.263 7.33879 18.6645 6.93584L18.5228 6.79468ZM19.0844 5.43264C19.0853 5.94685 18.8861 6.43032 18.5228 6.79466L18.6644 6.93587C19.0652 6.53394 19.2854 5.99955 19.2844 5.43229L19.0844 5.43264ZM18.5183 4.07276C18.8824 4.43554 19.0834 4.91841 19.0844 5.43267L19.2844 5.43226C19.2832 4.86504 19.0612 4.33133 18.6594 3.93107L18.5183 4.07276ZM17.1597 3.51113C17.6726 3.51113 18.155 3.71038 18.5182 4.07271L18.6595 3.93111C18.2587 3.53134 17.7255 3.31113 17.1597 3.31113V3.51113ZM15.7962 4.07728C16.1601 3.71203 16.6441 3.51113 17.1597 3.51113V3.31113C16.591 3.31113 16.0559 3.53317 15.6545 3.93612L15.7962 4.07728ZM15.8006 6.79952C15.0491 6.05022 15.0473 4.82888 15.7962 4.07728L15.6545 3.93612C14.8277 4.76593 14.8297 6.11386 15.6594 6.94115L15.8006 6.79952ZM17.1592 7.36079C16.6462 7.36079 16.1638 7.1614 15.8005 6.79949L15.6594 6.94118C16.0601 7.34042 16.5933 7.56079 17.1592 7.56079V7.36079ZM17.2561 7.48585L17.2561 7.48581L17.0624 7.43577L17.0624 7.43581L17.2561 7.48585ZM17.1599 3.76926C16.7137 3.76926 16.2942 3.94371 15.9792 4.25944L16.1208 4.40071C16.3984 4.12249 16.7669 3.96926 17.1599 3.96926V3.76926ZM18.3361 4.25561C18.0218 3.94198 17.6037 3.76926 17.1599 3.76926V3.96926C17.5508 3.96926 17.9181 4.121 18.1949 4.39718L18.3361 4.25561ZM18.8263 5.43288C18.8253 4.98811 18.6512 4.56968 18.3361 4.25557L18.1949 4.39722C18.4725 4.67388 18.6254 5.04151 18.6263 5.43335L18.8263 5.43288ZM18.3402 6.61205C18.6543 6.29708 18.827 5.87793 18.8263 5.43296L18.6263 5.43327C18.6269 5.82525 18.4752 6.19346 18.1986 6.47082L18.3402 6.61205ZM17.1594 7.10226C17.6056 7.10226 18.0251 6.92798 18.3402 6.61205L18.1986 6.47082C17.921 6.74917 17.5524 6.90226 17.1594 6.90226V7.10226ZM15.9829 6.6161C16.2974 6.92954 16.7157 7.10226 17.1594 7.10226V6.90226C16.7686 6.90226 16.4011 6.7505 16.1241 6.47446L15.9829 6.6161ZM15.9792 4.25949C15.3305 4.91045 15.3321 5.96751 15.983 6.61611L16.1241 6.47445C15.5516 5.90385 15.5501 4.97342 16.1209 4.40067L15.9792 4.25949ZM16.05 4.43008H16.05V4.23008H16.05V4.43008ZM5.45829 15.0514C4.88955 15.0514 4.35464 15.2734 3.95351 15.6764L4.09526 15.8175C4.45881 15.4523 4.94269 15.2514 5.45829 15.2514V15.0514ZM6.95851 15.6713C6.55757 15.2716 6.02437 15.0514 5.45829 15.0514V15.2514C5.97147 15.2514 6.45388 15.4506 6.81729 15.813L6.95851 15.6713ZM7.58314 17.1725C7.58213 16.6049 7.3601 16.0716 6.95849 15.6713L6.81731 15.813C7.18133 16.1758 7.38223 16.6583 7.38314 17.1729L7.58314 17.1725ZM6.9632 18.6759C7.36357 18.274 7.58413 17.7398 7.58314 17.1725L7.38314 17.1729C7.38403 17.687 7.18453 18.1704 6.82151 18.5348L6.9632 18.6759ZM5.45813 19.3011C6.02691 19.3011 6.56178 19.0787 6.96319 18.6759L6.82153 18.5347C6.4576 18.8999 5.97368 19.1011 5.45813 19.1011V19.3011ZM3.95857 18.6811C4.35931 19.0807 4.89217 19.3011 5.45813 19.3011V19.1011C4.94514 19.1011 4.46306 18.9017 4.09978 18.5395L3.95857 18.6811ZM3.3336 17.1797C3.33427 17.747 3.55668 18.2807 3.9586 18.6811L4.09975 18.5394C3.73538 18.1765 3.53421 17.6936 3.5336 17.1795L3.3336 17.1797ZM3.95357 15.6763C3.55283 16.0782 3.33262 16.6125 3.3336 17.1797L3.5336 17.1794C3.53271 16.6652 3.73192 16.1819 4.0952 15.8175L3.95357 15.6763ZM6.49703 18.2111C6.21959 18.4895 5.85108 18.6428 5.45813 18.6428V18.8428C5.90433 18.8428 6.3238 18.6683 6.63872 18.3522L6.49703 18.2111ZM6.56783 18.3816H6.56788V18.1816H6.56783V18.3816ZM6.92481 17.1735C6.92541 17.5654 6.77365 17.9337 6.49703 18.211L6.63864 18.3522C6.95278 18.0373 7.12549 17.6181 7.12481 17.1732L6.92481 17.1735ZM6.49356 16.1374C6.77111 16.4141 6.92404 16.7817 6.92481 17.1735L7.12481 17.1731C7.12394 16.7283 6.94987 16.3099 6.63475 15.9958L6.49356 16.1374ZM5.45825 15.7096C5.84929 15.7096 6.21663 15.8614 6.49355 16.1374L6.63475 15.9958C6.32032 15.6823 5.90219 15.5096 5.45825 15.5096V15.7096ZM4.41967 16.141C4.69693 15.8627 5.06543 15.7096 5.45825 15.7096V15.5096C5.01224 15.5096 4.59276 15.6839 4.27798 15.9999L4.41967 16.141ZM3.99169 17.1786C3.99107 16.7866 4.14284 16.4184 4.41961 16.1411L4.27804 15.9998C3.96372 16.3148 3.79099 16.7339 3.79169 17.1789L3.99169 17.1786ZM4.42309 18.215C4.14538 17.9383 3.9923 17.5705 3.99169 17.1786L3.79169 17.1789C3.79238 17.6239 3.96664 18.0425 4.28193 18.3566L4.42309 18.215ZM5.45813 18.6428C5.06725 18.6428 4.69992 18.491 4.42312 18.215L4.2819 18.3566C4.59621 18.6701 5.01434 18.8428 5.45813 18.8428V18.6428ZM16.0003 15.6037C16.364 15.2066 16.8818 14.9789 17.4204 14.9789V14.7789C16.8257 14.7789 16.2544 15.0301 15.8528 15.4686L16.0003 15.6037ZM15.4964 16.988C15.4739 16.4745 15.6526 15.9831 16.0003 15.6037L15.8528 15.4686C15.4693 15.8871 15.2718 16.4302 15.2966 16.9968L15.4964 16.988ZM16.1189 18.3228C15.7399 17.9756 15.5189 17.5018 15.4964 16.9881L15.2966 16.9968C15.3214 17.5635 15.5656 18.0872 15.9838 18.4703L16.1189 18.3228ZM17.4186 18.8284C16.9364 18.8284 16.475 18.649 16.1189 18.3228L15.9838 18.4703C16.3768 18.8302 16.8863 19.0284 17.4186 19.0284V18.8284ZM18.8388 18.2034C18.475 18.6004 17.9572 18.8284 17.4186 18.8284V19.0284C18.0133 19.0284 18.5846 18.7768 18.9862 18.3385L18.8388 18.2034ZM18.7196 15.4842C19.5023 16.2015 19.5555 17.4215 18.8388 18.2034L18.9862 18.3385C19.7777 17.4751 19.7188 16.1287 18.8547 15.3368L18.7196 15.4842ZM17.4204 14.9789C17.9027 14.9789 18.3639 15.1583 18.7196 15.4842L18.8547 15.3368C18.4621 14.977 17.9527 14.7789 17.4204 14.7789V14.9789ZM17.4204 14.9789H17.4204V14.7789H17.4204V14.9789ZM17.419 18.5703C17.8853 18.5703 18.3332 18.3729 18.6485 18.0289L18.501 17.8938C18.2236 18.1965 17.8291 18.3703 17.419 18.3703V18.5703ZM16.2937 18.1325C16.6018 18.4147 17.0017 18.5703 17.419 18.5703V18.3703C17.0518 18.3703 16.7001 18.2335 16.4289 17.985L16.2937 18.1325ZM15.7547 16.977C15.7741 17.4215 15.9657 17.832 16.2938 18.1325L16.4288 17.985C16.1399 17.7203 15.9716 17.3597 15.9545 16.9683L15.7547 16.977ZM16.1909 15.7784C15.8904 16.1066 15.7352 16.5325 15.7547 16.977L15.9545 16.9682C15.9373 16.5768 16.0736 16.2026 16.3384 15.9135L16.1909 15.7784ZM17.4204 15.2372C16.954 15.2372 16.5061 15.4344 16.1909 15.7784L16.3383 15.9135C16.6158 15.6108 17.0102 15.4372 17.4204 15.4372V15.2372ZM18.5453 15.6747C18.2374 15.3928 17.8377 15.2372 17.4204 15.2372V15.4372C17.7876 15.4372 18.1391 15.574 18.4102 15.8222L18.5453 15.6747ZM18.6485 18.0289C19.2692 17.3515 19.2229 16.2957 18.5453 15.6747L18.4102 15.8221C19.0064 16.3686 19.0471 17.2979 18.501 17.8938L18.6485 18.0289ZM5.19697 7.83321C5.79164 7.83321 6.36261 7.582 6.76423 7.14352L6.61675 7.00843C6.25303 7.40554 5.73557 7.63321 5.19697 7.63321V7.83321ZM5.29697 7.73325V7.73321H5.09697V7.73325H5.29697ZM3.76231 7.27502C4.15492 7.63493 4.66463 7.83325 5.19697 7.83325V7.63325C4.71469 7.63325 4.2532 7.45371 3.89746 7.1276L3.76231 7.27502ZM3.63082 4.273C2.8394 5.13721 2.8986 6.48378 3.76233 7.27505L3.89743 7.12757C3.11514 6.41092 3.06148 5.19084 3.77832 4.40808L3.63082 4.273ZM5.19809 3.58359C4.60361 3.58359 4.03247 3.83462 3.63084 4.27299L3.7783 4.40809C4.14201 4.01113 4.65962 3.78359 5.19809 3.78359V3.58359ZM6.63275 4.14149C6.24011 3.78155 5.73039 3.58359 5.19809 3.58359V3.78359C5.68041 3.78359 6.14189 3.96284 6.4976 4.28892L6.63275 4.14149ZM6.76422 7.14354C7.55569 6.27979 7.49643 4.93318 6.63275 4.14149L6.4976 4.28892C7.27995 5.00606 7.33355 6.22618 6.61676 7.00842L6.76422 7.14354ZM4.11601 4.71765C4.39308 4.4153 4.78748 4.2418 5.19791 4.2418V4.0418C4.73145 4.0418 4.28354 4.23881 3.96856 4.58253L4.11601 4.71765ZM4.04228 4.75009H4.04229V4.55009H4.04228V4.75009ZM4.20686 6.78963C3.61079 6.24351 3.56992 5.31387 4.11603 4.71763L3.96854 4.58255C3.34782 5.26025 3.39427 6.31639 4.07175 6.9371L4.20686 6.78963ZM5.19697 7.17496C4.82978 7.17496 4.47807 7.03811 4.20686 6.78963L4.07175 6.9371C4.37978 7.21931 4.77967 7.37496 5.19697 7.37496V7.17496ZM6.27886 6.69911C6.00179 7.00146 5.60739 7.17496 5.19697 7.17496V7.37496C5.66343 7.37496 6.11134 7.17795 6.42631 6.83424L6.27886 6.69911ZM6.18785 4.6268C6.78408 5.17309 6.82495 6.10273 6.27883 6.69914L6.42634 6.83421C7.04705 6.15634 7.0006 5.10021 6.32296 4.47934L6.18785 4.6268ZM5.19791 4.2418C5.56547 4.2418 5.91683 4.37836 6.18783 4.62678L6.32298 4.47935C6.01506 4.1971 5.61547 4.0418 5.19791 4.0418V4.2418ZM19.5289 9.11856L19.5939 9.1176L19.591 8.91763L19.5259 8.91858L19.5289 9.11856ZM17.6684 11.1035C17.6347 10.0431 18.4701 9.15256 19.5306 9.11852L19.5242 8.91863C18.3533 8.9562 17.4312 9.93902 17.4685 11.1099L17.6684 11.1035ZM19.5907 12.9674C18.5451 12.9674 17.7011 12.149 17.6684 11.1036L17.4685 11.1098C17.5045 12.2631 18.437 13.1674 19.5907 13.1674V12.9674ZM19.6545 12.9663L19.589 12.9674L19.5924 13.1674L19.6579 13.1663L19.6545 12.9663ZM20.9953 12.3597C20.6434 12.7349 20.1668 12.9502 19.6531 12.9663L19.6594 13.1662C20.2262 13.1485 20.753 12.9105 21.1412 12.4964L20.9953 12.3597ZM21.5154 10.9812C21.532 11.4952 21.3475 11.9843 20.9953 12.3596L21.1412 12.4965C21.5297 12.0825 21.7336 11.5419 21.7153 10.9748L21.5154 10.9812ZM19.5924 9.11758C20.638 9.11758 21.4823 9.93589 21.5154 10.9811L21.7153 10.9748C21.6788 9.82169 20.746 8.91758 19.5924 8.91758V9.11758ZM19.6904 8.99733L19.6904 8.9973L19.4945 9.03786L19.4945 9.0379L19.6904 8.99733ZM19.6447 12.7082C20.0897 12.6941 20.5027 12.5072 20.8072 12.1829L20.6614 12.046C20.3931 12.3317 20.0303 12.4958 19.6383 12.5083L19.6447 12.7082ZM19.5919 12.7088L19.6428 12.7082L19.6403 12.5082L19.5894 12.5089L19.5919 12.7088ZM17.9264 11.0952C17.955 11.9999 18.686 12.7088 19.5907 12.7088V12.5088C18.7941 12.5088 18.1515 11.8858 18.1263 11.0888L17.9264 11.0952ZM19.5387 9.37643C18.6206 9.40582 17.8973 10.1769 17.9264 11.0952L18.1263 11.0888C18.1007 10.2809 18.7374 9.60218 19.5451 9.57633L19.5387 9.37643ZM19.5914 9.37575L19.5407 9.37639L19.5432 9.57637L19.5939 9.57573L19.5914 9.37575ZM21.2575 10.9894C21.2288 10.085 20.4973 9.37574 19.5926 9.37574V9.57574C20.3892 9.57574 21.0323 10.1992 21.0576 10.9958L21.2575 10.9894ZM20.8072 12.1829C21.1119 11.8584 21.2716 11.4343 21.2575 10.9894L21.0576 10.9958C21.0701 11.3878 20.9297 11.7603 20.6614 12.046L20.8072 12.1829ZM5.14858 11.5023C5.11203 10.3491 4.17961 9.44492 3.0262 9.44492V9.64492C4.07149 9.64492 4.91554 10.4632 4.94868 11.5087L5.14858 11.5023ZM4.94916 11.5157L4.94916 11.5158L5.1481 11.4952L5.1481 11.4952L4.94916 11.5157ZM4.57426 13.0238C4.96277 12.6098 5.16652 12.069 5.14858 11.5023L4.94868 11.5086C4.96494 12.0224 4.7806 12.5116 4.42842 12.8869L4.57426 13.0238ZM3.0923 13.6932C3.6594 13.6754 4.18609 13.4375 4.57426 13.0238L4.42842 12.8869C4.07655 13.2619 3.60007 13.4772 3.08603 13.4933L3.0923 13.6932ZM3.02517 13.6944L3.09087 13.6933L3.08746 13.4933L3.02177 13.4944L3.02517 13.6944ZM0.901086 11.6375C0.937807 12.7906 1.8702 13.6944 3.02347 13.6944V13.4944C1.97828 13.4944 1.13427 12.6764 1.10098 11.6311L0.901086 11.6375ZM2.95748 9.44593C1.7863 9.48317 0.864027 10.4662 0.901085 11.6375L1.10099 11.6312C1.06742 10.5702 1.90309 9.67956 2.96384 9.64583L2.95748 9.44593ZM3.02473 9.44493L2.9592 9.44589L2.96212 9.64587L3.02766 9.64491L3.02473 9.44493ZM3.07356 13.0354L3.02241 13.036L3.02491 13.236L3.07606 13.2353L3.07356 13.0354ZM3.07481 13.0354H3.07481V13.2354H3.07481V13.0354ZM4.0944 12.5736C3.82645 12.8589 3.46331 13.0229 3.07164 13.0354L3.07799 13.2353C3.52261 13.2212 3.93592 13.0345 4.24019 12.7105L4.0944 12.5736ZM4.49061 11.5233C4.50303 11.915 4.3625 12.2876 4.09433 12.5737L4.24026 12.7105C4.54465 12.3857 4.70461 11.9617 4.69051 11.517L4.49061 11.5233ZM3.02624 10.1035C3.82252 10.1035 4.46547 10.7266 4.49061 11.5233L4.69051 11.517C4.66196 10.6124 3.93062 9.90349 3.02624 9.90349V10.1035ZM2.97667 10.1041L3.0275 10.1035L3.02499 9.9035L2.97416 9.90414L2.97667 10.1041ZM1.5593 11.6166C1.53356 10.8082 2.17048 10.1298 2.9786 10.1041L2.97223 9.90418C2.05376 9.93344 1.33015 10.7041 1.3594 11.6229L1.5593 11.6166ZM3.02366 13.036C2.22756 13.036 1.58474 12.4129 1.5593 11.6166L1.3594 11.623C1.38829 12.527 2.11944 13.236 3.02366 13.236V13.036ZM13.8288 8.31577L13.8283 8.31101L13.6293 8.33064L13.6297 8.3354L13.8288 8.31577ZM13.8406 8.35642C13.8333 8.34034 13.8298 8.3277 13.8289 8.31681L13.6297 8.33436C13.6332 8.3743 13.645 8.40928 13.6582 8.4386L13.8406 8.35642ZM13.8448 8.36399C13.8411 8.35772 13.841 8.35728 13.8411 8.35754L13.6577 8.43748C13.6633 8.45021 13.6696 8.46064 13.6729 8.4662L13.8448 8.36399ZM13.868 8.39559C13.8594 8.38696 13.8523 8.37741 13.8464 8.36684L13.6712 8.46334C13.6862 8.49049 13.7046 8.51483 13.7258 8.53625L13.868 8.39559ZM13.8767 8.40504C13.8756 8.40379 13.872 8.39961 13.8676 8.39521L13.7262 8.53664L13.7258 8.53633L13.8767 8.40504ZM13.8707 8.39972C13.8761 8.404 13.8795 8.40835 13.8767 8.40503L13.7258 8.53633C13.7274 8.53818 13.7353 8.54758 13.7464 8.55642L13.8707 8.39972ZM13.9065 8.42395C13.8964 8.41949 13.8857 8.41252 13.8738 8.40229L13.7433 8.55385C13.7659 8.57335 13.7932 8.59259 13.826 8.60699L13.9065 8.42395ZM13.8815 8.41696C13.8802 8.41682 13.883 8.41708 13.8863 8.4177C13.8902 8.41839 13.8966 8.41984 13.9043 8.423L13.8282 8.60794C13.8372 8.61166 13.8451 8.61347 13.8503 8.61442C13.8551 8.6153 13.8593 8.61572 13.8594 8.61574L13.8815 8.41696ZM13.9128 8.42476C13.9038 8.42104 13.8959 8.41923 13.8906 8.41828C13.8859 8.4174 13.8817 8.41698 13.8815 8.41696L13.8594 8.61574C13.8608 8.61588 13.858 8.61562 13.8546 8.615C13.8508 8.61431 13.8443 8.61286 13.8367 8.6097L13.9128 8.42476ZM13.9386 8.43956C13.9385 8.43948 13.9349 8.43672 13.9305 8.43393C13.9256 8.43083 13.9185 8.42678 13.9093 8.42339L13.8402 8.61106C13.8324 8.60822 13.8266 8.60488 13.823 8.60257C13.8198 8.60057 13.8174 8.59869 13.8185 8.59948L13.9386 8.43956ZM13.9127 8.42651C13.9219 8.42942 13.9288 8.4332 13.9332 8.4359C13.9369 8.4382 13.9397 8.44044 13.9385 8.43954L13.8185 8.5995C13.8185 8.59953 13.8226 8.60269 13.8277 8.60581C13.8333 8.60932 13.8417 8.61382 13.8524 8.61722L13.9127 8.42651ZM14.8949 8.76621L13.9152 8.42736L13.8499 8.61637L14.8295 8.95522L14.8949 8.76621ZM14.9371 8.77351C14.9235 8.77351 14.9092 8.77121 14.8951 8.76628L14.8293 8.95515C14.8647 8.96749 14.9012 8.97351 14.9371 8.97351V8.77351ZM15.0592 8.68654C15.0408 8.73968 14.9908 8.77351 14.9371 8.77351V8.97351C15.0734 8.97351 15.2011 8.88809 15.2482 8.75199L15.0592 8.68654ZM14.9794 8.5222C15.0467 8.54555 15.0825 8.61928 15.0592 8.68654L15.2482 8.75198C15.3077 8.58013 15.2163 8.39268 15.0449 8.33324L14.9794 8.5222ZM14.3983 8.32131L14.9794 8.52223L15.0448 8.33321L14.4636 8.13229L14.3983 8.32131ZM15.2748 7.44225L14.3695 8.14793L14.4924 8.30567L15.3977 7.59999L15.2748 7.44225ZM15.2975 7.26119C15.3412 7.31722 15.3312 7.39843 15.2749 7.44213L15.3976 7.60011C15.5414 7.48846 15.5669 7.28131 15.4552 7.13818L15.2975 7.26119ZM15.1167 7.23856C15.1723 7.19491 15.2535 7.2047 15.2975 7.26115L15.4553 7.13822C15.3436 6.99488 15.1364 6.96887 14.9932 7.08121L15.1167 7.23856ZM14.2102 7.94494L15.1164 7.23877L14.9935 7.08101L14.0872 7.78718L14.2102 7.94494ZM14.0062 7.39302L14.0491 7.87491L14.2483 7.8572L14.2055 7.37531L14.0062 7.39302ZM13.8643 7.27582C13.9373 7.27084 14.0001 7.32424 14.0062 7.39301L14.2055 7.37531C14.1892 7.19218 14.0263 7.06432 13.8507 7.07629L13.8643 7.27582ZM13.749 7.41559C13.7427 7.3447 13.795 7.28198 13.8663 7.27566L13.8486 7.07644C13.6674 7.09251 13.5337 7.25228 13.5497 7.43329L13.749 7.41559ZM13.8284 8.31135L13.749 7.41561L13.5497 7.43328L13.6292 8.32902L13.8284 8.31135ZM13.8288 8.32083V8.32019H13.6288V8.32083H13.8288ZM8.30301 13.5338C8.2994 13.5259 8.29549 13.52 8.29273 13.5161C8.2902 13.5125 8.28777 13.5096 8.28771 13.5095L8.1326 13.6358C8.13329 13.6366 8.13162 13.6346 8.1298 13.6321C8.12775 13.6292 8.1245 13.6243 8.12142 13.6176L8.30301 13.5338ZM8.69919 14.4961L8.30469 13.5376L8.11974 13.6137L8.51424 14.5723L8.69919 14.4961ZM8.52002 14.9258C8.68846 14.8566 8.76823 14.6643 8.69922 14.4962L8.51421 14.5722C8.54142 14.6384 8.50994 14.7137 8.44405 14.7408L8.52002 14.9258ZM8.39493 14.9505C8.43643 14.9505 8.47904 14.9427 8.52024 14.9257L8.44383 14.7408C8.42782 14.7475 8.41128 14.7505 8.39493 14.7505V14.9505ZM8.09048 14.7464C8.14289 14.874 8.26586 14.9505 8.39493 14.9505V14.7505C8.34402 14.7505 8.29596 14.7203 8.27548 14.6704L8.09048 14.7464ZM7.8565 14.1778L8.0905 14.7465L8.27546 14.6704L8.04145 14.1017L7.8565 14.1778ZM7.24479 15.3328L8.0312 14.1967L7.86675 14.0828L7.08034 15.219L7.24479 15.3328ZM6.97396 15.4747C7.07779 15.4747 7.18088 15.4254 7.24488 15.3327L7.08025 15.2191C7.05537 15.2552 7.01525 15.2747 6.97396 15.2747V15.4747ZM6.78701 15.4162C6.84393 15.4555 6.90924 15.4747 6.97396 15.4747V15.2747C6.94884 15.2747 6.92336 15.2673 6.90068 15.2516L6.78701 15.4162ZM6.70356 14.958C6.60026 15.1075 6.6375 15.3124 6.78681 15.416L6.90088 15.2518C6.84209 15.2109 6.82754 15.1304 6.86809 15.0717L6.70356 14.958ZM7.48984 13.8218L6.7036 14.958L6.86805 15.0718L7.6543 13.9356L7.48984 13.8218ZM7.08569 13.9633L7.5689 13.9787L7.57525 13.7788L7.09204 13.7634L7.08569 13.9633ZM6.76707 13.624C6.76109 13.8057 6.90394 13.9581 7.08597 13.9633L7.09177 13.7634C7.0206 13.7614 6.96462 13.7017 6.96696 13.6306L6.76707 13.624ZM7.11391 13.306C6.91941 13.2852 6.77234 13.4497 6.76706 13.6243L6.96697 13.6303C6.96935 13.5514 7.03358 13.4986 7.09259 13.5049L7.11391 13.306ZM8.01047 13.3341L7.10641 13.3055L7.10009 13.5054L8.00414 13.534L8.01047 13.3341ZM8.11654 13.3565C8.08662 13.3452 8.05073 13.3351 8.00977 13.3341L8.00484 13.534C8.01566 13.5343 8.02836 13.537 8.04576 13.5436L8.11654 13.3565ZM8.13702 13.3656C8.13332 13.3639 8.12651 13.3605 8.11873 13.3574L8.04357 13.5427C8.04442 13.5431 8.04557 13.5436 8.05003 13.5457L8.13702 13.3656ZM8.14132 13.3677L8.13675 13.3655L8.0503 13.5459L8.05486 13.548L8.14132 13.3677ZM8.21941 13.4199C8.19605 13.3988 8.16985 13.3812 8.14078 13.3674L8.0554 13.5483C8.06629 13.5534 8.07621 13.5601 8.08546 13.5684L8.21941 13.4199ZM8.21908 13.4196C8.21697 13.4179 8.21832 13.4189 8.22001 13.4204L8.08486 13.5679C8.08978 13.5724 8.09449 13.576 8.09573 13.577L8.21908 13.4196ZM8.2363 13.4349C8.2285 13.4267 8.22066 13.4208 8.21908 13.4196L8.09573 13.577C8.0971 13.5781 8.09679 13.5778 8.09627 13.5774C8.09556 13.5768 8.09392 13.5754 8.0919 13.5733L8.2363 13.4349ZM8.2943 13.515C8.27805 13.4825 8.2569 13.4557 8.23517 13.4337L8.09304 13.5744C8.10327 13.5848 8.11057 13.5947 8.11542 13.6044L8.2943 13.515ZM8.30284 13.5374C8.30267 13.5368 8.30008 13.5271 8.29515 13.5167L8.11458 13.6027C8.11271 13.5988 8.1116 13.5956 8.11106 13.594C8.1106 13.5926 8.11031 13.5916 8.11068 13.5929L8.30284 13.5374ZM8.30024 13.5305C8.30245 13.5356 8.30357 13.5399 8.30284 13.5374L8.11068 13.5929C8.11095 13.5938 8.11309 13.6017 8.11683 13.6103L8.30024 13.5305ZM8.28772 13.5095C8.28716 13.5088 8.28829 13.5102 8.28955 13.5119C8.29097 13.5138 8.29358 13.5175 8.29633 13.5225L8.12074 13.6183C8.12392 13.6241 8.12704 13.6285 8.129 13.6312C8.13082 13.6336 8.13255 13.6357 8.13259 13.6358L8.28772 13.5095ZM11.1327 5.25528H11.1338V5.05528H11.1327V5.25528ZM11.0035 5.38384C11.004 5.31266 11.0618 5.25528 11.1327 5.25528V5.05528C10.9517 5.05528 10.8047 5.20153 10.8035 5.38257L11.0035 5.38384ZM10.9968 6.68178L11.0035 5.38372L10.8035 5.38269L10.7968 6.68074L10.9968 6.68178ZM10.4364 6.50068L10.8422 6.76505L10.9514 6.59747L10.5456 6.3331L10.4364 6.50068ZM10.2577 6.53837C10.2965 6.4787 10.3766 6.46167 10.4364 6.50065L10.5456 6.33313C10.3931 6.23369 10.189 6.27708 10.09 6.42936L10.2577 6.53837ZM10.2953 6.71714C10.2358 6.67842 10.2187 6.59831 10.2577 6.5384L10.09 6.42933C9.99092 6.58168 10.0339 6.78576 10.1863 6.88482L10.2953 6.71714ZM11.0533 7.21074L10.2954 6.71718L10.1863 6.88478L10.9442 7.37834L11.0533 7.21074ZM11.0393 7.20334C11.0383 7.20294 11.0399 7.20353 11.0418 7.20438C11.044 7.20537 11.0475 7.20711 11.0518 7.20973L10.9458 7.37934C10.956 7.38574 10.9658 7.38931 10.966 7.38941L11.0393 7.20334ZM11.0596 7.21341C11.0493 7.20701 11.0396 7.20344 11.0393 7.20333L10.966 7.38942C10.967 7.38981 10.9655 7.38922 10.9636 7.38837C10.9614 7.38738 10.9578 7.38564 10.9536 7.38301L11.0596 7.21341ZM11.0791 7.22207C11.0703 7.21888 11.0634 7.21568 11.0579 7.21237L10.9553 7.38406C10.9744 7.39546 10.9934 7.40376 11.0111 7.41016L11.0791 7.22207ZM11.0892 7.22602L11.082 7.22318L11.0082 7.40905L11.0153 7.41189L11.0892 7.22602ZM11.0902 7.22673L11.0907 7.22665L11.0138 7.41125C11.0165 7.41241 11.0261 7.41653 11.0371 7.41957L11.0902 7.22673ZM11.1233 7.23162C11.1135 7.23154 11.1022 7.22994 11.0894 7.22652L11.0379 7.41977C11.0634 7.42659 11.0918 7.43138 11.1217 7.43162L11.1233 7.23162ZM11.135 7.23239L11.1335 7.23223L11.1114 7.43101L11.1129 7.43117L11.135 7.23239ZM11.1143 7.23223L11.1129 7.23239L11.135 7.43117L11.1364 7.43101L11.1143 7.23223ZM11.1563 7.22694C11.1445 7.23023 11.1344 7.23162 11.1254 7.23162V7.43162C11.1553 7.43162 11.1836 7.42694 11.2098 7.41967L11.1563 7.22694ZM11.1545 7.22739C11.1523 7.22835 11.1522 7.22835 11.1525 7.22824C11.153 7.22805 11.1553 7.22717 11.1588 7.22629L11.2073 7.42032C11.2206 7.417 11.2321 7.41175 11.2343 7.41078L11.1545 7.22739ZM11.169 7.22157C11.1624 7.2239 11.1564 7.22655 11.1545 7.22739L11.2343 7.41077L11.2351 7.41034L11.169 7.22157ZM11.1777 7.21856L11.1694 7.22144L11.2347 7.41047L11.2431 7.40759L11.1777 7.21856ZM11.1839 7.21667C11.1855 7.21581 11.1862 7.21558 11.1853 7.21594C11.1841 7.21639 11.1826 7.21693 11.1785 7.21829L11.2423 7.40787C11.2483 7.40583 11.2642 7.40075 11.2803 7.39191L11.1839 7.21667ZM11.1734 7.22348C11.1726 7.22415 11.1734 7.22349 11.1745 7.22268C11.1757 7.22174 11.1782 7.22002 11.1814 7.2181L11.2828 7.39048C11.2913 7.38547 11.298 7.37995 11.2983 7.37966L11.1734 7.22348ZM11.1889 7.21266C11.1804 7.21767 11.1738 7.22319 11.1734 7.22348L11.2983 7.37966C11.2992 7.37899 11.2984 7.37966 11.2973 7.38046C11.296 7.3814 11.2936 7.38312 11.2903 7.38504L11.1889 7.21266ZM11.199 7.20745L11.1971 7.20834L11.2821 7.38937L11.284 7.38848L11.199 7.20745ZM11.2081 7.20369L11.2066 7.20427L11.2765 7.39165L11.278 7.39108L11.2081 7.20369ZM11.1908 7.21294C11.1965 7.20902 11.2016 7.2065 11.205 7.20499C11.208 7.20371 11.2104 7.20285 11.2092 7.2033L11.277 7.39147C11.2772 7.39138 11.2906 7.38707 11.3041 7.37774L11.1908 7.21294ZM12.065 6.65037L11.1934 7.21124L11.3016 7.37943L12.1732 6.81856L12.065 6.65037ZM12.1037 6.47198C12.1424 6.53196 12.1251 6.61167 12.065 6.65036L12.1732 6.81857C12.3262 6.72013 12.3704 6.51661 12.2719 6.36368L12.1037 6.47198ZM11.9254 6.43313C11.9851 6.39457 12.065 6.41174 12.1037 6.47192L12.2719 6.36373C12.1735 6.21069 11.9698 6.16648 11.817 6.26507L11.9254 6.43313ZM11.409 6.76549L11.9253 6.43318L11.817 6.26501L11.3008 6.59731L11.409 6.76549ZM11.2616 5.38524L11.2549 6.68088L11.4549 6.68192L11.4616 5.38628L11.2616 5.38524ZM11.1333 5.25527C11.2046 5.25563 11.2621 5.31377 11.2616 5.385L11.4616 5.38652C11.463 5.20425 11.3159 5.05619 11.1343 5.05527L11.1333 5.25527ZM11.2131 5.09431L11.2131 5.0943L11.0546 5.21624L11.0546 5.21625L11.2131 5.09431ZM11.1153 17.2692H11.1189V17.0692H11.1153V17.2692ZM11.1758 17.2488L11.1759 17.2488L11.0547 17.0897L11.0546 17.0897L11.1758 17.2488ZM10.7899 16.9355C10.7869 17.117 10.9323 17.2663 11.1136 17.2692L11.1169 17.0693C11.0453 17.0681 10.9887 17.0092 10.9899 16.9388L10.7899 16.9355ZM10.8094 15.6378L10.7899 16.9357L10.9899 16.9387L11.0094 15.6408L10.8094 15.6378ZM10.5515 15.9801L10.9622 15.7242L10.8565 15.5544L10.4457 15.8103L10.5515 15.9801ZM10.0981 15.8746C10.1944 16.0295 10.3975 16.076 10.5515 15.9801L10.4457 15.8103C10.3852 15.848 10.3057 15.8296 10.268 15.769L10.0981 15.8746ZM10.2035 15.4214C10.0493 15.5176 10.0022 15.7204 10.0982 15.8746L10.268 15.769C10.2303 15.7084 10.2488 15.6289 10.3093 15.5912L10.2035 15.4214ZM10.9668 14.9459L10.2036 15.4214L10.3093 15.5912L11.0725 15.1157L10.9668 14.9459ZM11.0198 14.9308H11.0196V15.1308H11.0198V14.9308ZM10.9692 14.9444L10.9651 14.9471L11.0745 15.1145L11.0787 15.1118L10.9692 14.9444ZM11.072 14.903C11.0399 14.9102 11.0047 14.9222 10.971 14.9433L11.077 15.1129C11.0867 15.1068 11.0992 15.1018 11.1156 15.0982L11.072 14.903ZM11.094 14.8992C11.09 14.8998 11.0813 14.9009 11.0719 14.903L11.1158 15.0981C11.1156 15.0982 11.1159 15.0981 11.1211 15.0974L11.094 14.8992ZM11.0988 14.8985L11.0935 14.8993L11.1216 15.0973L11.1268 15.0965L11.0988 14.8985ZM11.1912 14.8984C11.1604 14.894 11.1291 14.894 11.098 14.8986L11.1277 15.0964C11.139 15.0947 11.1509 15.0947 11.1633 15.0964L11.1912 14.8984ZM11.1914 14.8983L11.1918 14.8984L11.1627 15.0963C11.1692 15.0973 11.1751 15.0977 11.1769 15.0978L11.1914 14.8983ZM11.214 14.9013C11.2032 14.899 11.1934 14.8985 11.1914 14.8983L11.1768 15.0978C11.1787 15.0979 11.1785 15.0979 11.178 15.0979C11.1773 15.0978 11.1753 15.0975 11.1725 15.097L11.214 14.9013ZM11.3068 14.9358C11.2757 14.9183 11.244 14.908 11.215 14.9015L11.1715 15.0967C11.1869 15.1002 11.199 15.1046 11.2088 15.1101L11.3068 14.9358ZM11.3262 14.9493C11.3254 14.9487 11.3188 14.9431 11.3104 14.9379L11.2052 15.108C11.2024 15.1063 11.2005 15.1048 11.1995 15.1041C11.1987 15.1035 11.1982 15.103 11.1991 15.1038L11.3262 14.9493ZM11.3276 14.9505L11.3254 14.9487L11.1999 15.1045L11.2021 15.1062L11.3276 14.9505ZM11.3251 14.9485L11.323 14.947L11.2066 15.1096L11.2087 15.1111L11.3251 14.9485ZM11.3095 14.9393L11.3077 14.9385L11.2261 15.1211L11.2279 15.1219L11.3095 14.9393ZM11.2993 14.9354L11.2985 14.9352L11.2389 15.1261L11.2397 15.1263L11.2993 14.9354ZM11.3026 14.9365L11.3011 14.936L11.238 15.1258L11.2395 15.1263L11.3026 14.9365ZM11.3361 14.955C11.325 14.9458 11.3142 14.9409 11.3076 14.9383L11.2345 15.1245C11.2292 15.1224 11.2196 15.1181 11.2095 15.1098L11.3361 14.955ZM12.1886 15.5277L11.3286 14.9494L11.217 15.1154L12.077 15.6937L12.1886 15.5277ZM12.278 15.9847C12.3794 15.8337 12.3394 15.6294 12.1887 15.5278L12.0769 15.6936C12.1361 15.7336 12.1518 15.8138 12.1119 15.8732L12.278 15.9847ZM12.0046 16.1299C12.1098 16.1299 12.2143 16.0792 12.2779 15.9848L12.112 15.8731C12.0873 15.9097 12.0464 15.9299 12.0046 15.9299V16.1299ZM11.8212 16.0741C11.8774 16.1117 11.9409 16.1299 12.0046 16.1299V15.9299C11.9797 15.9299 11.955 15.923 11.9323 15.9078L11.8212 16.0741ZM11.3118 15.7314L11.8209 16.0739L11.9325 15.908L11.4235 15.5654L11.3118 15.7314ZM11.4481 16.9451L11.4676 15.6499L11.2677 15.6469L11.2482 16.942L11.4481 16.9451ZM11.1189 17.2692C11.2984 17.2692 11.4451 17.1251 11.4481 16.9452L11.2482 16.9419C11.247 17.0126 11.1892 17.0692 11.1189 17.0692V17.2692ZM8.28888 7.17331C8.29134 7.10128 8.35427 7.04505 8.42063 7.04839L8.43069 6.84864C8.24962 6.83952 8.09517 6.98596 8.089 7.16648L8.28888 7.17331ZM8.26875 7.78744L8.28889 7.17317L8.08899 7.16662L8.06885 7.78088L8.26875 7.78744ZM7.02185 7.1068L8.11163 7.8662L8.22597 7.70211L7.13619 6.94271L7.02185 7.1068ZM6.84206 7.13894C6.88289 7.08027 6.96337 7.06599 7.02178 7.10676L7.13625 6.94275C6.98719 6.83871 6.78189 6.87526 6.6779 7.0247L6.84206 7.13894ZM6.87408 7.31871C6.81557 7.27808 6.80117 7.19752 6.84198 7.13905L6.67798 7.02458C6.57398 7.17359 6.61042 7.37912 6.76001 7.48299L6.87408 7.31871ZM7.96494 8.07883L6.87421 7.31881L6.75987 7.4829L7.85059 8.24292L7.96494 8.07883ZM7.49765 8.4369L7.94567 8.25341L7.86986 8.06833L7.42185 8.25183L7.49765 8.4369ZM7.42721 8.6057C7.4001 8.53915 7.43183 8.46384 7.49763 8.43691L7.42187 8.25182C7.25334 8.32079 7.17351 8.51305 7.24199 8.68115L7.42721 8.6057ZM7.54686 8.68568C7.49568 8.68568 7.44759 8.65532 7.42709 8.60542L7.2421 8.68142C7.29449 8.80895 7.41743 8.88568 7.54686 8.88568V8.68568ZM7.59545 8.676C7.57931 8.68268 7.56307 8.68568 7.54686 8.68568V8.88568C7.58851 8.88568 7.63077 8.87782 7.67186 8.86083L7.59545 8.676ZM8.4328 8.33287L7.59573 8.67589L7.67157 8.86095L8.50864 8.51794L8.4328 8.33287ZM8.42223 8.33794L8.42111 8.33858L8.52033 8.51223L8.52145 8.51159L8.42223 8.33794ZM8.46832 8.30897C8.45515 8.3208 8.44394 8.32806 8.43342 8.33244L8.51026 8.51709C8.54737 8.50165 8.5774 8.47983 8.60196 8.45777L8.46832 8.30897ZM8.4741 8.30292C8.46984 8.30749 8.46878 8.30855 8.46787 8.30938L8.60241 8.45736C8.61036 8.45013 8.61681 8.44313 8.62042 8.43926L8.4741 8.30292ZM8.47394 8.30308L8.47394 8.30308L8.62058 8.43909L8.62058 8.43909L8.47394 8.30308ZM8.47643 8.30042L8.47417 8.30284L8.62035 8.43933L8.62261 8.43691L8.47643 8.30042ZM8.49635 8.27219C8.49114 8.28243 8.48466 8.29164 8.47657 8.30027L8.62248 8.43706C8.64315 8.415 8.66065 8.39033 8.67462 8.36284L8.49635 8.27219ZM8.50247 8.26138L8.49915 8.26706L8.67182 8.36798L8.67514 8.3623L8.50247 8.26138ZM8.5032 8.26015L8.5032 8.26015L8.67441 8.36353L8.67441 8.36353L8.5032 8.26015ZM8.50277 8.26132C8.50407 8.25855 8.50536 8.25661 8.50352 8.25962L8.67408 8.36406C8.67537 8.36196 8.67977 8.35494 8.68386 8.34622L8.50277 8.26132ZM8.51207 8.22667C8.51065 8.23869 8.50722 8.25098 8.50159 8.26395L8.68505 8.34359C8.69732 8.31532 8.70667 8.28413 8.71069 8.25012L8.51207 8.22667ZM8.51163 8.2402C8.51174 8.24161 8.51159 8.24001 8.51154 8.23796C8.51148 8.2356 8.51148 8.23113 8.51222 8.22546L8.71054 8.25133C8.71235 8.23742 8.71106 8.22513 8.71104 8.22491L8.51163 8.2402ZM8.5116 8.2187C8.51062 8.22995 8.5116 8.23986 8.51163 8.24021L8.71104 8.2249C8.71095 8.22369 8.71105 8.22487 8.71111 8.22638C8.71117 8.22813 8.71123 8.23159 8.71084 8.23603L8.5116 8.2187ZM8.51744 8.19147C8.5174 8.19156 8.51697 8.1928 8.51651 8.19422C8.51602 8.19575 8.51528 8.19813 8.51454 8.20106C8.51304 8.20693 8.51122 8.21607 8.51122 8.22737H8.71122C8.71122 8.23754 8.70958 8.24561 8.70835 8.25042C8.70728 8.25463 8.70602 8.25807 8.70644 8.25687L8.51744 8.19147ZM8.51842 8.18875L8.51842 8.18875L8.70546 8.25958L8.70546 8.25958L8.51842 8.18875ZM8.51266 8.22097C8.51266 8.2108 8.5143 8.20273 8.51552 8.19792C8.5166 8.19371 8.51785 8.19027 8.51744 8.19147L8.70644 8.25687C8.70647 8.25677 8.70691 8.25553 8.70737 8.25411C8.70786 8.25258 8.7086 8.2502 8.70934 8.24727C8.71083 8.24141 8.71266 8.23226 8.71266 8.22097H8.51266ZM8.54692 7.18178L8.51271 8.21767L8.7126 8.22427L8.74681 7.18838L8.54692 7.18178ZM8.42237 7.04847C8.49358 7.05081 8.54935 7.11036 8.54692 7.18167L8.7468 7.18849C8.75301 7.00662 8.61058 6.85454 8.42893 6.84858L8.42237 7.04847ZM8.36705 6.86749L8.36704 6.8675L8.48426 7.02955L8.48427 7.02954L8.36705 6.86749ZM14.1651 14.705L14.7421 14.4953L14.6738 14.3073L14.0967 14.517L14.1651 14.705ZM15.2318 15.3163L14.1911 14.5312L14.0707 14.6908L15.1114 15.476L15.2318 15.3163ZM15.2964 15.7772C15.4057 15.6321 15.3768 15.4258 15.2319 15.3163L15.1113 15.4759C15.1682 15.5189 15.1795 15.6 15.1366 15.6569L15.2964 15.7772ZM15.0332 15.908C15.1331 15.908 15.2313 15.8626 15.296 15.7777L15.137 15.6564C15.1113 15.6902 15.0726 15.708 15.0332 15.708V15.908ZM14.8351 15.8419C14.8946 15.8867 14.9643 15.908 15.0332 15.908V15.708C15.0058 15.708 14.9787 15.6996 14.9554 15.6821L14.8351 15.8419ZM13.794 15.0564L14.835 15.8418L14.9555 15.6822L13.9145 14.8967L13.794 15.0564ZM13.9187 15.4664L13.954 14.9839L13.7545 14.9693L13.7192 15.4518L13.9187 15.4664ZM13.5662 15.7708C13.747 15.7846 13.9054 15.6475 13.9186 15.4664L13.7192 15.4518C13.7139 15.5232 13.6511 15.5767 13.5815 15.5714L13.5662 15.7708ZM13.2622 15.4188C13.2491 15.6002 13.3854 15.7575 13.5666 15.7708L13.5812 15.5713C13.5099 15.5661 13.4565 15.5044 13.4617 15.4332L13.2622 15.4188ZM13.3276 14.5214L13.2622 15.4188L13.4617 15.4333L13.5271 14.536L13.3276 14.5214ZM13.3304 14.5039L13.3303 14.5045L13.5244 14.5529L13.5245 14.5522L13.3304 14.5039ZM13.3277 14.52L13.3275 14.5246L13.5274 14.5315L13.5276 14.5269L13.3277 14.52ZM13.3541 14.4128C13.3423 14.4413 13.3309 14.476 13.3279 14.5159L13.5274 14.5309C13.5282 14.52 13.5315 14.507 13.5389 14.4892L13.3541 14.4128ZM13.366 14.3888C13.3637 14.393 13.3593 14.4011 13.3552 14.4102L13.5378 14.4918C13.5381 14.4911 13.5387 14.49 13.5415 14.4847L13.366 14.3888ZM13.366 14.3889L13.366 14.3889L13.5416 14.4847L13.5416 14.4847L13.366 14.3889ZM13.3678 14.3856L13.3659 14.389L13.5416 14.4846L13.5434 14.4812L13.3678 14.3856ZM13.4222 14.311C13.3994 14.3343 13.3817 14.3599 13.3677 14.3858L13.5435 14.4811C13.5503 14.4686 13.5575 14.4587 13.5651 14.451L13.4222 14.311ZM13.4248 14.3081L13.4201 14.3133L13.5672 14.4487L13.572 14.4436L13.4248 14.3081ZM13.4349 14.2976C13.4293 14.3029 13.4248 14.3081 13.4234 14.3097L13.5734 14.442L13.5732 14.442L13.4349 14.2976ZM13.5198 14.2404C13.4874 14.2553 13.4601 14.2749 13.4373 14.2953L13.5708 14.4443C13.5819 14.4343 13.5926 14.4271 13.6033 14.4222L13.5198 14.2404ZM13.5432 14.2324C13.5424 14.2326 13.5309 14.2351 13.5184 14.2411L13.6047 14.4215C13.6001 14.4237 13.5962 14.4251 13.5938 14.4258C13.5918 14.4264 13.5902 14.4268 13.5916 14.4264L13.5432 14.2324ZM13.5443 14.2321L13.5425 14.2325L13.5923 14.4263L13.5941 14.4258L13.5443 14.2321ZM13.5327 14.2361C13.5378 14.2339 13.5417 14.2328 13.543 14.2324L13.5954 14.4254C13.5989 14.4245 13.6052 14.4227 13.6125 14.4195L13.5327 14.2361ZM13.5485 14.229C13.5376 14.2323 13.5294 14.2368 13.524 14.2401C13.519 14.2432 13.5152 14.2462 13.5145 14.2466C13.5137 14.2473 13.5143 14.2468 13.5145 14.2466C13.515 14.2463 13.5163 14.2453 13.5179 14.2442C13.5211 14.2421 13.5282 14.2375 13.5384 14.2338L13.6068 14.4217C13.6179 14.4177 13.6258 14.4127 13.6298 14.41C13.6319 14.4086 13.6336 14.4073 13.6345 14.4067C13.6351 14.4062 13.6361 14.4054 13.6357 14.4057C13.6357 14.4057 13.635 14.4063 13.6339 14.4071C13.6328 14.4078 13.6311 14.409 13.6288 14.4104C13.6244 14.4131 13.6171 14.4171 13.6073 14.4201L13.5485 14.229ZM14.5173 13.8769L13.5437 14.2306L13.612 14.4186L14.5856 14.0648L14.5173 13.8769ZM14.9389 14.0737C14.8769 13.9028 14.6888 13.815 14.5175 13.8768L14.5854 14.0649C14.6533 14.0404 14.7266 14.0751 14.7509 14.142L14.9389 14.0737ZM14.742 14.4953C14.9129 14.4333 15.0011 14.2445 14.9389 14.0736L14.751 14.1421C14.7753 14.209 14.7408 14.283 14.6738 14.3073L14.742 14.4953ZM15.6265 11.9432C15.6648 12.0029 15.6476 12.0829 15.5873 12.1217L15.6955 12.2899C15.8484 12.1916 15.8929 11.988 15.7948 11.8351L15.6265 11.9432ZM15.3645 11.5358L15.6265 11.9433L15.7947 11.8351L15.5328 11.4277L15.3645 11.5358ZM16.7469 11.3845L15.4489 11.3817L15.4484 11.5817L16.7465 11.5845L16.7469 11.3845ZM16.7472 11.3845H16.7467V11.5845H16.7472V11.3845ZM16.8764 11.2555C16.8762 11.327 16.8185 11.3845 16.7472 11.3845V11.5845C16.9288 11.5845 17.0759 11.4377 17.0764 11.256L16.8764 11.2555ZM16.7475 11.1262C16.8188 11.1263 16.8765 11.1842 16.8764 11.2556L17.0764 11.2559C17.0766 11.0744 16.93 10.9264 16.7478 10.9262L16.7475 11.1262ZM15.3941 11.1235L16.7475 11.1262L16.7479 10.9262L15.3945 10.9235L15.3941 11.1235ZM15.5667 10.4397L15.3044 10.9798L15.4843 11.0672L15.7466 10.5271L15.5667 10.4397ZM15.5069 10.2673C15.571 10.2983 15.5978 10.3755 15.5666 10.4398L15.7466 10.527C15.8258 10.3637 15.7579 10.1666 15.594 10.0873L15.5069 10.2673ZM15.3344 10.3268C15.3653 10.263 15.4427 10.2362 15.5068 10.2673L15.5941 10.0873C15.431 10.0082 15.2338 10.076 15.1544 10.2395L15.3344 10.3268ZM14.9125 11.1955L15.3344 10.3268L15.1544 10.2394L14.7326 11.1081L14.9125 11.1955ZM14.9195 11.1749C14.9198 11.1734 14.9194 11.1756 14.9188 11.1783C14.918 11.1814 14.9165 11.1868 14.9136 11.1932L14.7315 11.1105C14.7245 11.1258 14.7225 11.1405 14.7225 11.1406L14.9195 11.1749ZM14.9133 11.1981C14.9158 11.1915 14.9173 11.1857 14.9181 11.182C14.9189 11.1785 14.9195 11.1753 14.9195 11.1749L14.7225 11.1406C14.7223 11.1418 14.7225 11.1403 14.7229 11.1384C14.7234 11.1362 14.7245 11.1321 14.7264 11.1269L14.9133 11.1981ZM14.9024 11.2384C14.9037 11.2257 14.9067 11.2136 14.9118 11.2019L14.7279 11.1231C14.7147 11.1539 14.7066 11.186 14.7034 11.2187L14.9024 11.2384ZM14.9013 11.2476L14.9022 11.2404L14.7036 11.2167L14.7028 11.2239L14.9013 11.2476ZM14.9007 11.2526C14.9007 11.2532 14.9006 11.2532 14.9012 11.2486L14.7029 11.2229C14.7025 11.2262 14.7014 11.234 14.701 11.2426L14.9007 11.2526ZM14.9067 11.2923C14.9026 11.2802 14.9005 11.2659 14.9008 11.2494L14.7009 11.2457C14.7002 11.281 14.7045 11.3185 14.7171 11.3559L14.9067 11.2923ZM14.9029 11.2833C14.9023 11.282 14.9029 11.2832 14.9036 11.2847C14.9044 11.2865 14.906 11.2901 14.9075 11.295L14.7162 11.3533C14.72 11.3657 14.7256 11.3757 14.7258 11.3761L14.9029 11.2833ZM14.9111 11.3018C14.9077 11.2919 14.9032 11.2838 14.9029 11.2833L14.7258 11.3761C14.7263 11.3772 14.7259 11.3764 14.7254 11.3752C14.7247 11.3739 14.7235 11.3712 14.7222 11.3676L14.9111 11.3018ZM14.9198 11.3217C14.918 11.3188 14.9157 11.3141 14.9104 11.2999L14.7229 11.3694C14.7282 11.3837 14.7368 11.4068 14.7515 11.4298L14.9198 11.3217ZM15.4087 12.0829L14.9198 11.3217L14.7515 11.4298L15.2405 12.191L15.4087 12.0829ZM15.5179 12.1423C15.4749 12.1423 15.4333 12.1212 15.4088 12.0829L15.2404 12.1909C15.3035 12.2892 15.41 12.3423 15.5179 12.3423V12.1423ZM15.5876 12.1215C15.5658 12.1354 15.5415 12.1421 15.5171 12.1423L15.5186 12.3423C15.5789 12.3418 15.6403 12.3251 15.6952 12.2901L15.5876 12.1215ZM6.20816 12.1784C6.26347 12.2148 6.32674 12.2327 6.38902 12.2327V12.0327C6.36498 12.0327 6.34002 12.0258 6.31798 12.0113L6.20816 12.1784ZM6.17363 12.0501L6.17362 12.0501L6.35251 12.1396L6.35251 12.1396L6.17363 12.0501ZM6.11461 11.7219C6.01464 11.874 6.05604 12.0781 6.20801 12.1783L6.31813 12.0114C6.25879 11.9722 6.24202 11.8922 6.28175 11.8317L6.11461 11.7219ZM6.38165 11.3173L6.11472 11.7217L6.28163 11.8319L6.54856 11.4275L6.38165 11.3173ZM5.39453 11.4607L6.46401 11.4724L6.4662 11.2724L5.39671 11.2607L5.39453 11.4607ZM5.06897 11.128C5.0669 11.3098 5.21285 11.4584 5.39435 11.4607L5.39688 11.2607C5.3252 11.2598 5.26815 11.2012 5.26896 11.1303L5.06897 11.128ZM5.39736 10.8025C5.23204 10.8078 5.07087 10.9406 5.06897 11.1281L5.26896 11.1301C5.26963 11.0644 5.3303 11.0048 5.40379 11.0024L5.39736 10.8025ZM6.46907 10.8141L5.40167 10.8025L5.39948 11.0025L6.46688 11.0141L6.46907 10.8141ZM6.05444 10.4494L6.38355 10.9677L6.55239 10.8605L6.22329 10.3422L6.05444 10.4494ZM6.15593 9.99519C6.00253 10.0926 5.95707 10.296 6.05444 10.4494L6.2233 10.3422C6.18512 10.282 6.20296 10.2022 6.2631 10.164L6.15593 9.99519ZM6.61011 10.0967C6.5127 9.94322 6.30985 9.89793 6.1561 9.99508L6.26293 10.1642C6.32369 10.1258 6.40311 10.1438 6.44125 10.2039L6.61011 10.0967ZM6.59655 10.0797L6.59639 10.0796L6.45497 10.221L6.45513 10.2211L6.59655 10.0797ZM6.68289 10.2115L6.61032 10.0969L6.44135 10.2039L6.51391 10.3185L6.68289 10.2115ZM7.16522 10.9715L6.68283 10.2114L6.51397 10.3186L6.99636 11.0786L7.16522 10.9715ZM7.17881 11.0035C7.17877 11.0034 7.1785 11.0023 7.17817 11.0011C7.17781 10.9998 7.17725 10.9978 7.17646 10.9954C7.17495 10.9908 7.17214 10.9832 7.16716 10.9747L6.99441 11.0754C6.98998 11.0679 6.98759 11.0613 6.98642 11.0577C6.98536 11.0545 6.9847 11.0517 6.98498 11.0528L7.17881 11.0035ZM7.16739 10.9776C7.17296 10.9863 7.17583 10.994 7.17716 10.998C7.17838 11.0016 7.17912 11.0048 7.1788 11.0035L6.98498 11.0528C6.98501 11.053 6.98531 11.0541 6.98566 11.0554C6.98604 11.0568 6.98667 11.059 6.98755 11.0616C6.98923 11.0667 6.99252 11.0753 6.99866 11.085L7.16739 10.9776ZM7.1624 10.9706C7.16173 10.9698 7.16224 10.9704 7.16288 10.9712C7.16365 10.9722 7.16514 10.9741 7.16687 10.9768L6.99918 11.0858C7.00396 11.0931 7.00902 11.099 7.0094 11.0994L7.1624 10.9706ZM7.17918 10.9957C7.17203 10.9814 7.16277 10.971 7.1624 10.9706L7.0094 11.0994C7.01042 11.1006 7.00914 11.0991 7.00768 11.0972C7.00595 11.0949 7.00311 11.0907 7.0003 11.0851L7.17918 10.9957ZM7.20999 11.0868C7.20435 11.0576 7.19498 11.0256 7.17822 10.9938L7.00126 11.087C7.00655 11.097 7.01061 11.1092 7.01361 11.1247L7.20999 11.0868ZM7.20297 11.0653C7.20247 11.0642 7.20412 11.0676 7.20567 11.0717C7.20739 11.0763 7.21019 11.0847 7.2113 11.0958L7.01229 11.1157C7.01348 11.1276 7.0165 11.1369 7.01851 11.1422C7.01954 11.1449 7.0205 11.1471 7.02111 11.1485C7.02168 11.1498 7.0222 11.1509 7.02222 11.1509L7.20297 11.0653ZM7.2129 11.1004C7.21171 11.0886 7.20869 11.0793 7.20668 11.074C7.20565 11.0713 7.20469 11.0691 7.20408 11.0677C7.20351 11.0664 7.20299 11.0653 7.20297 11.0653L7.02222 11.1509C7.02272 11.152 7.02107 11.1486 7.01952 11.1445C7.0178 11.1399 7.015 11.1315 7.01389 11.1204L7.2129 11.1004ZM7.21286 11.127C7.2129 11.1266 7.21345 11.1217 7.2136 11.1162C7.21376 11.1102 7.21357 11.101 7.21129 11.09L7.0155 11.1308C7.01365 11.1219 7.01357 11.1148 7.01367 11.1109C7.01376 11.1074 7.0141 11.1047 7.01392 11.1064L7.21286 11.127ZM7.21246 11.1097C7.21328 11.1163 7.21317 11.1214 7.21305 11.1241C7.21293 11.1265 7.21271 11.1284 7.21286 11.127L7.01392 11.1064C7.01388 11.1068 7.01347 11.1105 7.01327 11.1147C7.01306 11.1192 7.01296 11.1261 7.01401 11.1345L7.21246 11.1097ZM7.21017 11.2032C7.21554 11.1722 7.2162 11.141 7.21253 11.1102L7.01394 11.1339C7.01538 11.146 7.01508 11.1577 7.0131 11.1691L7.21017 11.2032ZM7.21142 11.1877C7.21136 11.1863 7.21144 11.1878 7.21142 11.1898C7.21141 11.1919 7.21128 11.1966 7.21028 11.2026L7.013 11.1697C7.0117 11.1775 7.01147 11.184 7.01143 11.188C7.0114 11.1918 7.01156 11.1952 7.01158 11.1957L7.21142 11.1877ZM7.20817 11.2226C7.21078 11.2121 7.21136 11.2033 7.21152 11.1979C7.21166 11.1928 7.21144 11.1882 7.21142 11.1877L7.01158 11.1957C7.01165 11.1975 7.01151 11.1952 7.01159 11.1923C7.01168 11.1891 7.01205 11.1824 7.01414 11.1741L7.20817 11.2226ZM7.19779 11.2491C7.19787 11.2489 7.19963 11.2457 7.20136 11.2419C7.20323 11.2378 7.20603 11.2311 7.20817 11.2226L7.01414 11.1741C7.01596 11.1668 7.01828 11.1613 7.01959 11.1585C7.02077 11.1559 7.02189 11.1539 7.02132 11.1549L7.19779 11.2491ZM7.20497 11.2299C7.20315 11.2372 7.20083 11.2427 7.19952 11.2455C7.19835 11.2481 7.19722 11.2501 7.19779 11.2491L7.02133 11.1549C7.02125 11.1551 7.01949 11.1583 7.01776 11.1621C7.01589 11.1662 7.01309 11.1729 7.01095 11.1814L7.20497 11.2299ZM7.16198 11.3303C7.18482 11.2962 7.19703 11.2607 7.20478 11.2307L7.01114 11.1807C7.00642 11.1989 7.00137 11.2107 6.99576 11.2191L7.16198 11.3303ZM7.15985 11.3336L7.16257 11.3294L6.99517 11.22L6.99246 11.2242L7.15985 11.3336ZM6.66379 12.0849L7.1596 11.334L6.9927 11.2238L6.49689 11.9747L6.66379 12.0849ZM6.38902 12.2327C6.49575 12.2327 6.60063 12.1807 6.66382 12.0849L6.49686 11.9748C6.47215 12.0122 6.43126 12.0327 6.38902 12.0327V12.2327ZM11.6392 11.3234C12.4345 11.5711 12.9867 12.3031 12.9867 13.0982H13.1867C13.1867 12.2108 12.573 11.4048 11.6987 11.1325L11.6392 11.3234ZM11.762 11.2648L11.7634 11.2606L11.5744 11.1952L11.573 11.1994L11.762 11.2648ZM11.4845 11.3909C11.511 11.3356 11.5753 11.3084 11.6381 11.3277L11.6969 11.1365C11.5474 11.0906 11.3771 11.1525 11.3042 11.3044L11.4845 11.3909ZM11.2816 11.8131L11.4845 11.391L11.3042 11.3043L11.1014 11.7265L11.2816 11.8131ZM10.894 11.3702L11.1009 11.8122L11.2821 11.7274L11.0751 11.2854L10.894 11.3702ZM10.7465 11.3042C10.8088 11.2891 10.869 11.317 10.894 11.3703L11.075 11.2853C11.0058 11.1378 10.8451 11.0746 10.6995 11.1098L10.7465 11.3042ZM10.6247 11.2258L10.6258 11.2304L10.8202 11.1835L10.8191 11.1789L10.6247 11.2258ZM9.30216 13.098C9.30216 12.2655 9.90807 11.5067 10.7459 11.2994L10.6979 11.1053C9.77462 11.3337 9.10216 12.1697 9.10216 13.098H9.30216ZM9.30216 13.4522V13.098H9.10216V13.4522H9.30216ZM13.0864 13.3522H9.20216V13.5522H13.0864V13.3522ZM12.9867 13.0981L12.9864 13.4521L13.1864 13.4523L13.1867 13.0983L12.9867 13.0981ZM10.6206 11.6127C10.0346 11.8351 9.61127 12.3746 9.565 12.9866L9.76443 13.0017C9.80447 12.4721 10.1733 11.9964 10.6915 11.7996L10.6206 11.6127ZM11.0722 12.3587L10.7466 11.6637L10.5655 11.7486L10.8911 12.4435L11.0722 12.3587ZM11.1887 12.4331C11.1386 12.4329 11.0934 12.404 11.0722 12.3588L10.891 12.4434C10.945 12.559 11.0606 12.6324 11.1876 12.6331L11.1887 12.4331ZM11.1893 12.4331H11.1881V12.6331H11.1893V12.4331ZM11.3057 12.3601C11.2843 12.4045 11.2389 12.4331 11.1893 12.4331V12.6331C11.3158 12.6331 11.4312 12.5605 11.4859 12.4469L11.3057 12.3601ZM11.6255 11.6949L11.3057 12.3602L11.4859 12.4468L11.8057 11.7816L11.6255 11.6949ZM12.7243 12.9863C12.6789 12.4161 12.2929 11.8932 11.7573 11.6474L11.6739 11.8291C12.1488 12.0471 12.4857 12.5098 12.5249 13.0022L12.7243 12.9863ZM9.66471 13.0941L12.6246 13.0942L12.6246 12.8942L9.66472 12.8941L9.66471 13.0941ZM11.145 11.0788C11.9715 11.0788 12.6439 10.4063 12.6439 9.57958H12.4439C12.4439 10.2959 11.861 10.8788 11.145 10.8788V11.0788ZM9.6461 9.57958C9.6461 10.4063 10.3185 11.0788 11.145 11.0788V10.8788C10.429 10.8788 9.8461 10.2959 9.8461 9.57958H9.6461ZM11.145 8.08066C10.3183 8.08066 9.6461 8.75314 9.6461 9.57958H9.8461C9.8461 8.86357 10.4287 8.28066 11.145 8.28066V8.08066ZM12.6439 9.57958C12.6439 8.75282 11.9715 8.08066 11.145 8.08066V8.28066C11.861 8.28066 12.4439 8.86331 12.4439 9.57958H12.6439ZM11.145 8.73875C11.6086 8.73875 11.9857 9.11607 11.9857 9.57938H12.1857C12.1857 9.00565 11.7191 8.53875 11.145 8.53875V8.73875ZM10.3044 9.57938C10.3044 9.11609 10.6817 8.73875 11.145 8.73875V8.53875C10.5713 8.53875 10.1044 9.00563 10.1044 9.57938H10.3044ZM11.145 10.4202C10.6817 10.4202 10.3044 10.0428 10.3044 9.57938H10.1044C10.1044 10.1533 10.5713 10.6202 11.145 10.6202V10.4202ZM11.9857 9.57938C11.9857 10.043 11.6083 10.4202 11.145 10.4202V10.6202C11.7188 10.6202 12.1857 10.1535 12.1857 9.57938H11.9857Z" fill="black" mask="url(#path-1-outside-1_1190_28741)"/>
</svg>
